{
.appVersion = "3151";
.formatVersion = 3;
customParameters = (
{
name = panose;
value = (
0,
0,
5,
0,
0,
0,
0,
0,
0,
0
);
},
{
name = unicodeRanges;
value = (
0,
1
);
},
{
name = codePageRanges;
value = (
"1252"
);
},
{
name = blueScale;
value = 0.037;
},
{
name = glyphOrder;
value = (
.notdef,
A,
Aacute,
Acircumflex,
Adieresis,
Agrave,
Aring,
Atilde,
AE,
B,
C,
Ccedilla,
D,
E,
Eacute,
Ecircumflex,
Edieresis,
Egrave,
F,
G,
H,
I,
Iacute,
Icircumflex,
Idieresis,
Igrave,
J,
K,
L,
M,
N,
Ntilde,
O,
Oacute,
Ocircumflex,
Odieresis,
Ograve,
Oslash,
Otilde,
OE,
P,
Q,
R,
S,
T,
U,
Uacute,
Ucircumflex,
Udieresis,
Ugrave,
V,
W,
X,
Y,
Z,
a,
aacute,
acircumflex,
adieresis,
agrave,
aring,
atilde,
ae,
b,
c,
ccedilla,
d,
e,
eacute,
ecircumflex,
edieresis,
egrave,
f,
g,
h,
i,
iacute,
icircumflex,
idieresis,
igrave,
j,
k,
l,
m,
n,
ntilde,
o,
oacute,
ocircumflex,
odieresis,
ograve,
oslash,
otilde,
p,
q,
r,
s,
germandbls,
t,
u,
ucircumflex,
v,
w,
x,
y,
z,
oe,
uacute,
udieresis,
ugrave,
ydieresis,
ordfeminine,
ordmasculine,
pi,
zero,
one,
two,
three,
four,
five,
six,
seven,
eight,
nine,
uni00B9,
uni00B2,
uni00B3,
period,
comma,
colon,
semicolon,
ellipsis,
exclam,
exclamdown,
question,
questiondown,
bullet,
asterisk,
numbersign,
slash,
backslash,
parenleft,
parenright,
braceleft,
braceright,
bracketleft,
bracketright,
hyphen,
emdash,
underscore,
quotedblleft,
quotedblright,
quoteleft,
quoteright,
guillemotleft,
guillemotright,
quotedbl,
quotesingle,
uni3000,
CR,
.null,
space,
uni00A0,
checkmark,
apple,
at,
ampersand,
paragraph,
section,
copyright,
registered,
trademark,
degree,
bar,
brokenbar,
dagger,
cent,
currency,
dollar,
Euro,
florin,
sterling,
yen,
bulletoperator,
plus,
multiply,
divide,
equal,
notequal,
greater,
less,
greaterequal,
lessequal,
plusminus,
approxequal,
asciitilde,
logicalnot,
asciicircum,
infinity,
integral,
uni2126,
uni2206,
product,
summation,
radical,
uni00B5,
partialdiff,
percent,
fullBlock,
lozenge,
dieresis,
grave,
acute,
cedilla
);
}
);

glyphs = (
{
glyphname = A;
layers = (
{
hints = (
{
horizontal = 1;
place = (256, 64);
place = (256, 64);
type = Stem;
},
{
horizontal = 1;
place = (512, 64);
place = (512, 64);
type = Stem;
},
{
place = (0, 128);
place = (0, 128);
type = Stem;
},
{
place = (256, 128);
place = (256, 128);
type = Stem;
},
{
place = (64, 64);
place = (64, 64);
type = Stem;
},
{
place = (256, 64);
place = (256, 64);
type = Stem;
}
);
layerId = m01;
shapes = (
{
closed = 1;
nodes = (
(256,0,l),
(384,0,l),
(384,512,l),
(320,512,l),
(320,576,l),
(64,576,l),
(64,512,l),
(0,512,l),
(0,0,l),
(128,0,l),
(128,256,l),
(256,256,l)
);
},
{
closed = 1;
nodes = (
(256,320,l),
(128,320,l),
(128,512,l),
(256,512,l)
);
}
);
userData = {
com.GeorgSeifert.ImageExportSettings = {
path = "../../Desktop/Chicago Kare";
presets = (
{
filename = "{{{glyph.name}}}";
format = PDF;
name = default;
size = 1024;
}
);
};
};
width = 512;
}
);
note = A;
unicode = 65;
},
{
glyphname = Aacute;
layers = (
{
hints = (
{
horizontal = 1;
place = (256, 64);
place = (256, 64);
type = Stem;
},
{
horizontal = 1;
place = (512, 64);
place = (512, 64);
type = Stem;
},
{
horizontal = 1;
place = (704, 64);
place = (704, 64);
type = Stem;
},
{
place = (0, 128);
place = (0, 128);
type = Stem;
},
{
place = (192, 64);
place = (192, 64);
type = Stem;
},
{
horizontal = 1;
place = (640, 64);
place = (640, 64);
type = Stem;
},
{
place = (128, 64);
place = (128, 64);
type = Stem;
},
{
place = (256, 64);
place = (256, 64);
type = Stem;
},
{
place = (64, 64);
place = (64, 64);
type = Stem;
},
{
place = (256, 128);
place = (256, 128);
type = Stem;
}
);
layerId = m01;
shapes = (
{
closed = 1;
nodes = (
(192,768,l),
(192,704,l),
(256,704,l),
(256,768,l)
);
},
{
closed = 1;
nodes = (
(128,704,l),
(128,640,l),
(192,640,l),
(192,704,l)
);
},
{
closed = 1;
nodes = (
(320,576,l),
(64,576,l),
(64,512,l),
(0,512,l),
(0,0,l),
(128,0,l),
(128,256,l),
(256,256,l),
(256,0,l),
(384,0,l),
(384,512,l),
(320,512,l)
);
},
{
closed = 1;
nodes = (
(256,512,l),
(256,320,l),
(128,320,l),
(128,512,l)
);
}
);
userData = {
com.GeorgSeifert.ImageExportSettings = {
path = "../../Desktop/Chicago Kare";
presets = (
{
filename = "{{{glyph.name}}}";
format = PDF;
name = default;
size = 1024;
}
);
};
};
width = 512;
}
);
note = Aacute;
unicode = 193;
},
{
glyphname = Acircumflex;
layers = (
{
hints = (
{
horizontal = 1;
place = (256, 64);
place = (256, 64);
type = Stem;
},
{
horizontal = 1;
place = (512, 64);
place = (512, 64);
type = Stem;
},
{
horizontal = 1;
place = (704, 64);
place = (704, 64);
type = Stem;
},
{
place = (128, 128);
place = (128, 128);
type = Stem;
},
{
horizontal = 1;
place = (640, 64);
place = (640, 64);
type = Stem;
},
{
place = (64, 64);
place = (64, 64);
type = Stem;
},
{
place = (256, 128);
place = (256, 128);
type = Stem;
},
{
place = (0, 128);
place = (0, 128);
type = Stem;
},
{
place = (256, 64);
place = (256, 64);
type = Stem;
}
);
layerId = m01;
shapes = (
{
closed = 1;
nodes = (
(256,704,l),
(256,768,l),
(128,768,l),
(128,704,l)
);
},
{
closed = 1;
nodes = (
(64,640,l),
(128,640,l),
(128,704,l),
(64,704,l)
);
},
{
closed = 1;
nodes = (
(320,640,l),
(320,704,l),
(256,704,l),
(256,640,l)
);
},
{
closed = 1;
nodes = (
(256,0,l),
(384,0,l),
(384,512,l),
(320,512,l),
(320,576,l),
(64,576,l),
(64,512,l),
(0,512,l),
(0,0,l),
(128,0,l),
(128,256,l),
(256,256,l)
);
},
{
closed = 1;
nodes = (
(256,320,l),
(128,320,l),
(128,512,l),
(256,512,l)
);
}
);
userData = {
com.GeorgSeifert.ImageExportSettings = {
path = "../../Desktop/Chicago Kare";
presets = (
{
filename = "{{{glyph.name}}}";
format = PDF;
name = default;
size = 1024;
}
);
};
};
width = 512;
}
);
note = Acircumflex;
unicode = 194;
},
{
glyphname = Adieresis;
layers = (
{
hints = (
{
horizontal = 1;
place = (256, 64);
place = (256, 64);
type = Stem;
},
{
horizontal = 1;
place = (512, 64);
place = (512, 64);
type = Stem;
},
{
horizontal = 1;
place = (640, 64);
place = (640, 64);
type = Stem;
},
{
place = (64, 64);
place = (64, 64);
type = Stem;
},
{
place = (256, 128);
place = (256, 128);
type = Stem;
},
{
place = (0, 128);
place = (0, 128);
type = Stem;
},
{
place = (256, 64);
place = (256, 64);
type = Stem;
}
);
layerId = m01;
shapes = (
{
closed = 1;
nodes = (
(64,640,l),
(128,640,l),
(128,704,l),
(64,704,l)
);
},
{
closed = 1;
nodes = (
(256,640,l),
(320,640,l),
(320,704,l),
(256,704,l)
);
},
{
closed = 1;
nodes = (
(256,0,l),
(384,0,l),
(384,512,l),
(320,512,l),
(320,576,l),
(64,576,l),
(64,512,l),
(0,512,l),
(0,0,l),
(128,0,l),
(128,256,l),
(256,256,l)
);
},
{
closed = 1;
nodes = (
(256,320,l),
(128,320,l),
(128,512,l),
(256,512,l)
);
}
);
userData = {
com.GeorgSeifert.ImageExportSettings = {
path = "../../Desktop/Chicago Kare";
presets = (
{
filename = "{{{glyph.name}}}";
format = PDF;
name = default;
size = 1024;
}
);
};
};
width = 512;
}
);
note = Adieresis;
unicode = 196;
},
{
glyphname = Agrave;
layers = (
{
hints = (
{
horizontal = 1;
place = (256, 64);
place = (256, 64);
type = Stem;
},
{
horizontal = 1;
place = (512, 64);
place = (512, 64);
type = Stem;
},
{
horizontal = 1;
place = (704, 64);
place = (704, 64);
type = Stem;
},
{
place = (128, 64);
place = (128, 64);
type = Stem;
},
{
place = (256, 128);
place = (256, 128);
type = Stem;
},
{
horizontal = 1;
place = (640, 64);
place = (640, 64);
type = Stem;
},
{
place = (0, 128);
place = (0, 128);
type = Stem;
},
{
place = (192, 64);
place = (192, 64);
type = Stem;
},
{
place = (64, 64);
place = (64, 64);
type = Stem;
},
{
place = (256, 64);
place = (256, 64);
type = Stem;
}
);
layerId = m01;
shapes = (
{
closed = 1;
nodes = (
(128,768,l),
(128,704,l),
(192,704,l),
(192,768,l)
);
},
{
closed = 1;
nodes = (
(192,704,l),
(192,640,l),
(256,640,l),
(256,704,l)
);
},
{
closed = 1;
nodes = (
(320,576,l),
(64,576,l),
(64,512,l),
(0,512,l),
(0,0,l),
(128,0,l),
(128,256,l),
(256,256,l),
(256,0,l),
(384,0,l),
(384,512,l),
(320,512,l)
);
},
{
closed = 1;
nodes = (
(256,512,l),
(256,320,l),
(128,320,l),
(128,512,l)
);
}
);
userData = {
com.GeorgSeifert.ImageExportSettings = {
path = "../../Desktop/Chicago Kare";
presets = (
{
filename = "{{{glyph.name}}}";
format = PDF;
name = default;
size = 1024;
}
);
};
};
width = 512;
}
);
note = Agrave;
unicode = 192;
},
{
glyphname = Aring;
layers = (
{
hints = (
{
horizontal = 1;
place = (256, 64);
place = (256, 64);
type = Stem;
},
{
horizontal = 1;
place = (512, 64);
place = (512, 64);
type = Stem;
},
{
horizontal = 1;
place = (704, 64);
place = (704, 64);
type = Stem;
},
{
place = (128, 128);
place = (128, 128);
type = Stem;
},
{
place = (0, 128);
place = (0, 128);
type = Stem;
},
{
place = (256, 128);
place = (256, 128);
type = Stem;
},
{
place = (256, 64);
place = (256, 64);
type = Stem;
},
{
place = (64, 64);
place = (64, 64);
type = Stem;
}
);
layerId = m01;
shapes = (
{
closed = 1;
nodes = (
(256,704,l),
(256,768,l),
(128,768,l),
(128,704,l)
);
},
{
closed = 1;
nodes = (
(256,0,l),
(384,0,l),
(384,512,l),
(320,512,l),
(320,704,l),
(256,704,l),
(256,576,l),
(128,576,l),
(128,704,l),
(64,704,l),
(64,512,l),
(0,512,l),
(0,0,l),
(128,0,l),
(128,256,l),
(256,256,l)
);
},
{
closed = 1;
nodes = (
(256,320,l),
(128,320,l),
(128,512,l),
(256,512,l)
);
}
);
width = 512;
}
);
note = Aring;
unicode = 197;
},
{
glyphname = Atilde;
layers = (
{
hints = (
{
horizontal = 1;
place = (704, 64);
place = (704, 64);
type = Stem;
},
{
place = (64, 128);
place = (64, 128);
type = Stem;
},
{
place = (320, 64);
place = (320, 64);
type = Stem;
},
{
horizontal = 1;
place = (640, 64);
place = (640, 64);
type = Stem;
},
{
place = (0, 128);
place = (0, 128);
type = Stem;
},
{
place = (0, 64);
place = (0, 64);
type = Stem;
},
{
place = (256, 64);
place = (256, 64);
type = Stem;
},
{
place = (192, 128);
place = (192, 128);
type = Stem;
},
{
horizontal = 1;
place = (512, 64);
place = (512, 64);
type = Stem;
},
{
place = (256, 128);
place = (256, 128);
type = Stem;
},
{
place = (64, 64);
place = (64, 64);
type = Stem;
},
{
horizontal = 1;
place = (256, 64);
place = (256, 64);
type = Stem;
}
);
layerId = m01;
shapes = (
{
closed = 1;
nodes = (
(192,704,l),
(192,768,l),
(64,768,l),
(64,704,l)
);
},
{
closed = 1;
nodes = (
(320,704,l),
(384,704,l),
(384,768,l),
(320,768,l)
);
},
{
closed = 1;
nodes = (
(0,640,l),
(64,640,l),
(64,704,l),
(0,704,l)
);
},
{
closed = 1;
nodes = (
(320,704,l),
(192,704,l),
(192,640,l),
(320,640,l)
);
},
{
closed = 1;
nodes = (
(256,0,l),
(384,0,l),
(384,512,l),
(320,512,l),
(320,576,l),
(64,576,l),
(64,512,l),
(0,512,l),
(0,0,l),
(128,0,l),
(128,256,l),
(256,256,l)
);
},
{
closed = 1;
nodes = (
(256,320,l),
(128,320,l),
(128,512,l),
(256,512,l)
);
}
);
width = 512;
}
);
note = Atilde;
unicode = 195;
},
{
glyphname = AE;
layers = (
{
hints = (
{
horizontal = 1;
place = (0, 64);
place = (0, 64);
type = Stem;
},
{
horizontal = 1;
place = (256, 64);
place = (256, 64);
type = Stem;
},
{
horizontal = 1;
place = (512, 64);
place = (512, 64);
type = Stem;
},
{
place = (0, 128);
place = (0, 128);
type = Stem;
},
{
place = (256, 128);
place = (256, 128);
type = Stem;
},
{
place = (64, 64);
place = (64, 64);
type = Stem;
}
);
layerId = m01;
shapes = (
{
closed = 1;
nodes = (
(576,64,l),
(384,64,l),
(384,256,l),
(512,256,l),
(512,320,l),
(384,320,l),
(384,512,l),
(576,512,l),
(576,576,l),
(64,576,l),
(64,512,l),
(0,512,l),
(0,0,l),
(128,0,l),
(128,256,l),
(256,256,l),
(256,0,l),
(576,0,l)
);
},
{
closed = 1;
nodes = (
(128,320,l),
(128,512,l),
(256,512,l),
(256,320,l)
);
}
);
width = 704;
}
);
note = AE;
unicode = 198;
},
{
glyphname = B;
layers = (
{
hints = (
{
horizontal = 1;
place = (0, 64);
place = (0, 64);
type = Stem;
},
{
horizontal = 1;
place = (256, 64);
place = (256, 64);
type = Stem;
},
{
horizontal = 1;
place = (512, 64);
place = (512, 64);
type = Stem;
},
{
place = (0, 128);
place = (0, 128);
type = Stem;
},
{
place = (256, 64);
place = (256, 64);
type = Stem;
},
{
horizontal = 1;
place = (64, 192);
place = (64, 192);
type = Stem;
},
{
place = (256, 128);
place = (256, 128);
type = Stem;
},
{
horizontal = 1;
place = (320, 192);
place = (320, 192);
type = Stem;
}
);
layerId = m01;
shapes = (
{
closed = 1;
nodes = (
(0,0,l),
(320,0,l),
(320,64,l),
(384,64,l),
(384,256,l),
(320,256,l),
(320,320,l),
(384,320,l),
(384,512,l),
(320,512,l),
(320,576,l),
(0,576,l)
);
},
{
closed = 1;
nodes = (
(256,320,l),
(128,320,l),
(128,512,l),
(256,512,l)
);
},
{
closed = 1;
nodes = (
(256,64,l),
(128,64,l),
(128,256,l),
(256,256,l)
);
}
);
width = 512;
}
);
note = B;
unicode = 66;
},
{
glyphname = C;
layers = (
{
hints = (
{
horizontal = 1;
place = (0, 64);
place = (0, 64);
type = Stem;
},
{
horizontal = 1;
place = (512, 64);
place = (512, 64);
type = Stem;
},
{
place = (0, 128);
place = (0, 128);
type = Stem;
},
{
place = (320, 64);
place = (320, 64);
type = Stem;
},
{
place = (64, 64);
place = (64, 64);
type = Stem;
},
{
horizontal = 1;
place = (448, 64);
place = (448, 64);
type = Stem;
},
{
horizontal = 1;
place = (64, 64);
place = (64, 64);
type = Stem;
}
);
layerId = m01;
shapes = (
{
closed = 1;
nodes = (
(320,64,l),
(128,64,l),
(128,512,l),
(320,512,l),
(320,576,l),
(64,576,l),
(64,512,l),
(0,512,l),
(0,64,l),
(64,64,l),
(64,0,l),
(320,0,l)
);
},
{
closed = 1;
nodes = (
(320,448,l),
(384,448,l),
(384,512,l),
(320,512,l)
);
},
{
closed = 1;
nodes = (
(320,64,l),
(384,64,l),
(384,128,l),
(320,128,l)
);
}
);
width = 512;
}
);
note = C;
unicode = 67;
},
{
glyphname = Ccedilla;
layers = (
{
hints = (
{
horizontal = 1;
place = (-192, 64);
place = (-192, 64);
type = Stem;
},
{
horizontal = 1;
place = (0, 64);
place = (0, 64);
type = Stem;
},
{
horizontal = 1;
place = (512, 64);
place = (512, 64);
type = Stem;
},
{
place = (0, 128);
place = (0, 128);
type = Stem;
},
{
place = (192, 64);
place = (192, 64);
type = Stem;
},
{
place = (320, 64);
place = (320, 64);
type = Stem;
},
{
place = (64, 64);
place = (64, 64);
type = Stem;
},
{
place = (128, 64);
place = (128, 64);
type = Stem;
},
{
horizontal = 1;
place = (64, 64);
place = (64, 64);
type = Stem;
},
{
horizontal = 1;
place = (448, 64);
place = (448, 64);
type = Stem;
}
);
layerId = m01;
shapes = (
{
closed = 1;
nodes = (
(192,-128,l),
(256,-128,l),
(256,0,l),
(320,0,l),
(320,64,l),
(128,64,l),
(128,512,l),
(320,512,l),
(320,576,l),
(64,576,l),
(64,512,l),
(0,512,l),
(0,64,l),
(64,64,l),
(64,0,l),
(128,0,l),
(128,-64,l),
(192,-64,l)
);
},
{
closed = 1;
nodes = (
(320,448,l),
(384,448,l),
(384,512,l),
(320,512,l)
);
},
{
closed = 1;
nodes = (
(320,64,l),
(384,64,l),
(384,128,l),
(320,128,l)
);
},
{
closed = 1;
nodes = (
(128,-192,l),
(192,-192,l),
(192,-128,l),
(128,-128,l)
);
}
);
width = 512;
}
);
note = Ccedilla;
unicode = 199;
},
{
glyphname = D;
layers = (
{
hints = (
{
horizontal = 1;
place = (0, 64);
place = (0, 64);
type = Stem;
},
{
horizontal = 1;
place = (512, 64);
place = (512, 64);
type = Stem;
},
{
place = (0, 128);
place = (0, 128);
type = Stem;
},
{
place = (256, 128);
place = (256, 128);
type = Stem;
},
{
place = (256, 64);
place = (256, 64);
type = Stem;
}
);
layerId = m01;
shapes = (
{
closed = 1;
nodes = (
(0,0,l),
(320,0,l),
(320,64,l),
(384,64,l),
(384,512,l),
(320,512,l),
(320,576,l),
(0,576,l)
);
},
{
closed = 1;
nodes = (
(256,64,l),
(128,64,l),
(128,512,l),
(256,512,l)
);
}
);
width = 512;
}
);
note = D;
unicode = 68;
},
{
glyphname = E;
layers = (
{
hints = (
{
horizontal = 1;
place = (0, 64);
place = (0, 64);
type = Stem;
},
{
horizontal = 1;
place = (256, 64);
place = (256, 64);
type = Stem;
},
{
horizontal = 1;
place = (512, 64);
place = (512, 64);
type = Stem;
},
{
place = (0, 128);
place = (0, 128);
type = Stem;
}
);
layerId = m01;
shapes = (
{
closed = 1;
nodes = (
(128,512,l),
(320,512,l),
(320,576,l),
(0,576,l),
(0,0,l),
(320,0,l),
(320,64,l),
(128,64,l),
(128,256,l),
(256,256,l),
(256,320,l),
(128,320,l)
);
}
);
width = 448;
}
);
note = E;
unicode = 69;
},
{
glyphname = Eacute;
layers = (
{
hints = (
{
horizontal = 1;
place = (0, 64);
place = (0, 64);
type = Stem;
},
{
horizontal = 1;
place = (256, 64);
place = (256, 64);
type = Stem;
},
{
horizontal = 1;
place = (512, 64);
place = (512, 64);
type = Stem;
},
{
horizontal = 1;
place = (704, 64);
place = (704, 64);
type = Stem;
},
{
place = (0, 128);
place = (0, 128);
type = Stem;
},
{
place = (192, 64);
place = (192, 64);
type = Stem;
},
{
horizontal = 1;
place = (640, 64);
place = (640, 64);
type = Stem;
},
{
place = (128, 64);
place = (128, 64);
type = Stem;
}
);
layerId = m01;
shapes = (
{
closed = 1;
nodes = (
(256,768,l),
(192,768,l),
(192,704,l),
(256,704,l)
);
},
{
closed = 1;
nodes = (
(192,704,l),
(128,704,l),
(128,640,l),
(192,640,l)
);
},
{
closed = 1;
nodes = (
(128,512,l),
(320,512,l),
(320,576,l),
(0,576,l),
(0,0,l),
(320,0,l),
(320,64,l),
(128,64,l),
(128,256,l),
(256,256,l),
(256,320,l),
(128,320,l)
);
}
);
width = 448;
}
);
note = Eacute;
unicode = 201;
},
{
glyphname = Ecircumflex;
layers = (
{
hints = (
{
horizontal = 1;
place = (0, 64);
place = (0, 64);
type = Stem;
},
{
horizontal = 1;
place = (256, 64);
place = (256, 64);
type = Stem;
},
{
horizontal = 1;
place = (512, 64);
place = (512, 64);
type = Stem;
},
{
horizontal = 1;
place = (704, 64);
place = (704, 64);
type = Stem;
},
{
place = (64, 128);
place = (64, 128);
type = Stem;
},
{
horizontal = 1;
place = (640, 64);
place = (640, 64);
type = Stem;
},
{
place = (0, 64);
place = (0, 64);
type = Stem;
},
{
place = (192, 64);
place = (192, 64);
type = Stem;
},
{
place = (0, 128);
place = (0, 128);
type = Stem;
}
);
layerId = m01;
shapes = (
{
closed = 1;
nodes = (
(192,704,l),
(192,768,l),
(64,768,l),
(64,704,l)
);
},
{
closed = 1;
nodes = (
(64,640,l),
(64,704,l),
(0,704,l),
(0,640,l)
);
},
{
closed = 1;
nodes = (
(256,640,l),
(256,704,l),
(192,704,l),
(192,640,l)
);
},
{
closed = 1;
nodes = (
(320,64,l),
(128,64,l),
(128,256,l),
(256,256,l),
(256,320,l),
(128,320,l),
(128,512,l),
(320,512,l),
(320,576,l),
(0,576,l),
(0,0,l),
(320,0,l)
);
}
);
width = 448;
}
);
note = Ecircumflex;
unicode = 202;
},
{
glyphname = Edieresis;
layers = (
{
hints = (
{
horizontal = 1;
place = (0, 64);
place = (0, 64);
type = Stem;
},
{
horizontal = 1;
place = (256, 64);
place = (256, 64);
type = Stem;
},
{
horizontal = 1;
place = (512, 64);
place = (512, 64);
type = Stem;
},
{
horizontal = 1;
place = (640, 64);
place = (640, 64);
type = Stem;
},
{
place = (0, 128);
place = (0, 128);
type = Stem;
},
{
place = (192, 64);
place = (192, 64);
type = Stem;
},
{
place = (0, 64);
place = (0, 64);
type = Stem;
}
);
layerId = m01;
shapes = (
{
closed = 1;
nodes = (
(0,704,l),
(0,640,l),
(64,640,l),
(64,704,l)
);
},
{
closed = 1;
nodes = (
(192,704,l),
(192,640,l),
(256,640,l),
(256,704,l)
);
},
{
closed = 1;
nodes = (
(128,512,l),
(320,512,l),
(320,576,l),
(0,576,l),
(0,0,l),
(320,0,l),
(320,64,l),
(128,64,l),
(128,256,l),
(256,256,l),
(256,320,l),
(128,320,l)
);
}
);
width = 448;
}
);
note = Edieresis;
unicode = 203;
},
{
glyphname = Egrave;
layers = (
{
hints = (
{
horizontal = 1;
place = (0, 64);
place = (0, 64);
type = Stem;
},
{
horizontal = 1;
place = (256, 64);
place = (256, 64);
type = Stem;
},
{
horizontal = 1;
place = (512, 64);
place = (512, 64);
type = Stem;
},
{
horizontal = 1;
place = (704, 64);
place = (704, 64);
type = Stem;
},
{
place = (128, 64);
place = (128, 64);
type = Stem;
},
{
horizontal = 1;
place = (640, 64);
place = (640, 64);
type = Stem;
},
{
place = (0, 128);
place = (0, 128);
type = Stem;
},
{
place = (192, 64);
place = (192, 64);
type = Stem;
}
);
layerId = m01;
shapes = (
{
closed = 1;
nodes = (
(192,768,l),
(128,768,l),
(128,704,l),
(192,704,l)
);
},
{
closed = 1;
nodes = (
(256,704,l),
(192,704,l),
(192,640,l),
(256,640,l)
);
},
{
closed = 1;
nodes = (
(128,512,l),
(320,512,l),
(320,576,l),
(0,576,l),
(0,0,l),
(320,0,l),
(320,64,l),
(128,64,l),
(128,256,l),
(256,256,l),
(256,320,l),
(128,320,l)
);
}
);
width = 448;
}
);
note = Egrave;
unicode = 200;
},
{
glyphname = F;
layers = (
{
hints = (
{
horizontal = 1;
place = (256, 64);
place = (256, 64);
type = Stem;
},
{
horizontal = 1;
place = (512, 64);
place = (512, 64);
type = Stem;
},
{
place = (0, 128);
place = (0, 128);
type = Stem;
}
);
layerId = m01;
shapes = (
{
closed = 1;
nodes = (
(256,320,l),
(128,320,l),
(128,512,l),
(320,512,l),
(320,576,l),
(0,576,l),
(0,0,l),
(128,0,l),
(128,256,l),
(256,256,l)
);
}
);
width = 448;
}
);
note = F;
unicode = 70;
},
{
glyphname = G;
layers = (
{
hints = (
{
horizontal = 1;
place = (0, 64);
place = (0, 64);
type = Stem;
},
{
horizontal = 1;
place = (256, 64);
place = (256, 64);
type = Stem;
},
{
horizontal = 1;
place = (512, 64);
place = (512, 64);
type = Stem;
},
{
place = (0, 128);
place = (0, 128);
type = Stem;
},
{
place = (256, 64);
place = (256, 64);
type = Stem;
},
{
place = (256, 128);
place = (256, 128);
type = Stem;
},
{
place = (64, 64);
place = (64, 64);
type = Stem;
},
{
horizontal = 1;
place = (448, 64);
place = (448, 64);
type = Stem;
},
{
place = (320, 64);
place = (320, 64);
type = Stem;
}
);
layerId = m01;
shapes = (
{
closed = 1;
nodes = (
(320,0,l),
(320,64,l),
(384,64,l),
(384,320,l),
(192,320,l),
(192,256,l),
(256,256,l),
(256,64,l),
(128,64,l),
(128,512,l),
(320,512,l),
(320,576,l),
(64,576,l),
(64,512,l),
(0,512,l),
(0,64,l),
(64,64,l),
(64,0,l)
);
},
{
closed = 1;
nodes = (
(384,448,l),
(384,512,l),
(320,512,l),
(320,448,l)
);
}
);
width = 512;
}
);
note = G;
unicode = 71;
},
{
glyphname = H;
layers = (
{
hints = (
{
horizontal = 1;
place = (256, 64);
place = (256, 64);
type = Stem;
},
{
place = (0, 128);
place = (0, 128);
type = Stem;
},
{
place = (256, 128);
place = (256, 128);
type = Stem;
}
);
layerId = m01;
shapes = (
{
closed = 1;
nodes = (
(384,0,l),
(384,576,l),
(256,576,l),
(256,320,l),
(128,320,l),
(128,576,l),
(0,576,l),
(0,0,l),
(128,0,l),
(128,256,l),
(256,256,l),
(256,0,l)
);
}
);
width = 512;
}
);
note = H;
unicode = 72;
},
{
glyphname = I;
layers = (
{
hints = (
{
horizontal = 1;
place = (0, 576);
place = (0, 576);
type = Stem;
},
{
place = (0, 128);
place = (0, 128);
type = Stem;
}
);
layerId = m01;
shapes = (
{
closed = 1;
nodes = (
(128,0,l),
(128,576,l),
(0,576,l),
(0,0,l)
);
}
);
width = 256;
}
);
note = I;
unicode = 73;
},
{
glyphname = Iacute;
layers = (
{
hints = (
{
horizontal = 1;
place = (704, 64);
place = (704, 64);
type = Stem;
},
{
place = (0, 128);
place = (0, 128);
type = Stem;
},
{
place = (64, 64);
place = (64, 64);
type = Stem;
},
{
horizontal = 1;
place = (640, 64);
place = (640, 64);
type = Stem;
},
{
place = (0, 64);
place = (0, 64);
type = Stem;
}
);
layerId = m01;
shapes = (
{
closed = 1;
nodes = (
(128,704,l),
(128,768,l),
(64,768,l),
(64,704,l)
);
},
{
closed = 1;
nodes = (
(64,640,l),
(64,704,l),
(0,704,l),
(0,640,l)
);
},
{
closed = 1;
nodes = (
(128,0,l),
(128,576,l),
(0,576,l),
(0,0,l)
);
}
);
width = 256;
}
);
note = Iacute;
unicode = 205;
},
{
glyphname = Icircumflex;
layers = (
{
hints = (
{
horizontal = 1;
place = (703, 64);
place = (703, 64);
type = Stem;
},
{
place = (64, 128);
place = (64, 128);
type = Stem;
},
{
horizontal = 1;
place = (639, 64);
place = (639, 64);
type = Stem;
},
{
place = (0, 64);
place = (0, 64);
type = Stem;
},
{
place = (192, 64);
place = (192, 64);
type = Stem;
}
);
layerId = m01;
shapes = (
{
closed = 1;
nodes = (
(192,703,l),
(192,767,l),
(64,767,l),
(64,703,l)
);
},
{
closed = 1;
nodes = (
(64,639,l),
(64,703,l),
(0,703,l),
(0,639,l)
);
},
{
closed = 1;
nodes = (
(256,639,l),
(256,703,l),
(192,703,l),
(192,639,l)
);
},
{
closed = 1;
nodes = (
(192,0,l),
(192,576,l),
(64,576,l),
(64,0,l)
);
}
);
width = 384;
}
);
note = Icircumflex;
unicode = 206;
},
{
glyphname = Idieresis;
layers = (
{
hints = (
{
horizontal = 1;
place = (640, 64);
place = (640, 64);
type = Stem;
},
{
place = (0, 64);
place = (0, 64);
type = Stem;
},
{
place = (192, 64);
place = (192, 64);
type = Stem;
},
{
place = (64, 128);
place = (64, 128);
type = Stem;
}
);
layerId = m01;
shapes = (
{
closed = 1;
nodes = (
(64,640,l),
(64,704,l),
(0,704,l),
(0,640,l)
);
},
{
closed = 1;
nodes = (
(256,640,l),
(256,704,l),
(192,704,l),
(192,640,l)
);
},
{
closed = 1;
nodes = (
(192,0,l),
(192,576,l),
(64,576,l),
(64,0,l)
);
}
);
width = 384;
}
);
note = Idieresis;
unicode = 207;
},
{
glyphname = Igrave;
layers = (
{
hints = (
{
horizontal = 1;
place = (704, 64);
place = (704, 64);
type = Stem;
},
{
place = (0, 64);
place = (0, 64);
type = Stem;
},
{
place = (0, 128);
place = (0, 128);
type = Stem;
},
{
horizontal = 1;
place = (640, 64);
place = (640, 64);
type = Stem;
},
{
place = (64, 64);
place = (64, 64);
type = Stem;
}
);
layerId = m01;
shapes = (
{
closed = 1;
nodes = (
(64,768,l),
(0,768,l),
(0,704,l),
(64,704,l)
);
},
{
closed = 1;
nodes = (
(128,640,l),
(128,704,l),
(64,704,l),
(64,640,l)
);
},
{
closed = 1;
nodes = (
(128,0,l),
(128,576,l),
(0,576,l),
(0,0,l)
);
}
);
width = 256;
}
);
note = Igrave;
unicode = 204;
},
{
glyphname = J;
layers = (
{
hints = (
{
horizontal = 1;
place = (0, 64);
place = (0, 64);
type = Stem;
},
{
place = (0, 128);
place = (0, 128);
type = Stem;
},
{
place = (256, 64);
place = (256, 64);
type = Stem;
},
{
horizontal = 1;
place = (64, 192);
place = (64, 192);
type = Stem;
},
{
place = (256, 128);
place = (256, 128);
type = Stem;
},
{
place = (64, 64);
place = (64, 64);
type = Stem;
}
);
layerId = m01;
shapes = (
{
closed = 1;
nodes = (
(320,0,l),
(320,64,l),
(384,64,l),
(384,576,l),
(256,576,l),
(256,64,l),
(128,64,l),
(128,256,l),
(0,256,l),
(0,64,l),
(64,64,l),
(64,0,l)
);
}
);
width = 512;
}
);
note = J;
unicode = 74;
},
{
glyphname = K;
layers = (
{
hints = (
{
horizontal = 1;
place = (0, 64);
place = (0, 64);
type = Stem;
},
{
horizontal = 1;
place = (192, 64);
place = (192, 64);
type = Stem;
},
{
horizontal = 1;
place = (384, 64);
place = (384, 64);
type = Stem;
},
{
horizontal = 1;
place = (512, 64);
place = (512, 64);
type = Stem;
},
{
place = (0, 128);
place = (0, 128);
type = Stem;
},
{
place = (192, 64);
place = (192, 64);
type = Stem;
},
{
place = (320, 64);
place = (320, 64);
type = Stem;
},
{
horizontal = 1;
place = (64, 64);
place = (64, 64);
type = Stem;
},
{
place = (256, 64);
place = (256, 64);
type = Stem;
},
{
horizontal = 1;
place = (128, 64);
place = (128, 64);
type = Stem;
},
{
horizontal = 1;
place = (320, 64);
place = (320, 64);
type = Stem;
},
{
place = (0, 192);
place = (0, 192);
type = Stem;
},
{
horizontal = 1;
place = (448, 64);
place = (448, 64);
type = Stem;
},
{
horizontal = 1;
place = (0, 128);
place = (0, 128);
type = Stem;
},
{
horizontal = 1;
place = (448, 128);
place = (448, 128);
type = Stem;
}
);
layerId = m01;
shapes = (
{
closed = 1;
nodes = (
(448,0,l),
(448,64,l),
(384,64,l),
(384,128,l),
(320,128,l),
(320,192,l),
(256,192,l),
(256,256,l),
(192,256,l),
(192,320,l),
(256,320,l),
(256,384,l),
(320,384,l),
(320,448,l),
(384,448,l),
(384,512,l),
(448,512,l),
(448,576,l),
(320,576,l),
(320,512,l),
(256,512,l),
(256,448,l),
(192,448,l),
(192,384,l),
(128,384,l),
(128,576,l),
(0,576,l),
(0,0,l),
(128,0,l),
(128,192,l),
(192,192,l),
(192,128,l),
(256,128,l),
(256,64,l),
(320,64,l),
(320,0,l)
);
}
);
width = 576;
}
);
note = K;
unicode = 75;
},
{
glyphname = L;
layers = (
{
hints = (
{
horizontal = 1;
place = (0, 64);
place = (0, 64);
type = Stem;
},
{
place = (0, 128);
place = (0, 128);
type = Stem;
}
);
layerId = m01;
shapes = (
{
closed = 1;
nodes = (
(320,64,l),
(128,64,l),
(128,576,l),
(0,576,l),
(0,0,l),
(320,0,l)
);
}
);
width = 448;
}
);
note = L;
unicode = 76;
},
{
glyphname = M;
layers = (
{
hints = (
{
horizontal = 1;
place = (256, 64);
place = (256, 64);
type = Stem;
},
{
place = (0, 64);
place = (0, 64);
type = Stem;
},
{
place = (128, 64);
place = (128, 64);
type = Stem;
},
{
place = (256, 64);
place = (256, 64);
type = Stem;
},
{
place = (384, 64);
place = (384, 64);
type = Stem;
},
{
place = (512, 128);
place = (512, 128);
type = Stem;
},
{
horizontal = 1;
place = (320, 64);
place = (320, 64);
type = Stem;
},
{
place = (128, 128);
place = (128, 128);
type = Stem;
},
{
place = (192, 64);
place = (192, 64);
type = Stem;
},
{
horizontal = 1;
place = (192, 128);
place = (192, 128);
type = Stem;
},
{
horizontal = 1;
place = (320, 128);
place = (320, 128);
type = Stem;
},
{
place = (576, 64);
place = (576, 64);
type = Stem;
}
);
layerId = m01;
shapes = (
{
closed = 1;
nodes = (
(64,0,l),
(64,320,l),
(128,320,l),
(128,256,l),
(192,256,l),
(192,192,l),
(256,192,l),
(256,128,l),
(320,128,l),
(320,192,l),
(384,192,l),
(384,256,l),
(448,256,l),
(448,320,l),
(512,320,l),
(512,0,l),
(640,0,l),
(640,576,l),
(576,576,l),
(576,512,l),
(512,512,l),
(512,448,l),
(448,448,l),
(448,384,l),
(384,384,l),
(384,320,l),
(256,320,l),
(256,384,l),
(192,384,l),
(192,448,l),
(128,448,l),
(128,512,l),
(64,512,l),
(64,576,l),
(0,576,l),
(0,0,l)
);
}
);
width = 768;
}
);
note = M;
unicode = 77;
},
{
glyphname = N;
layers = (
{
hints = (
{
horizontal = 1;
place = (128, 128);
place = (128, 128);
type = Stem;
},
{
horizontal = 1;
place = (320, 128);
place = (320, 128);
type = Stem;
},
{
place = (0, 64);
place = (0, 64);
type = Stem;
},
{
place = (192, 128);
place = (192, 128);
type = Stem;
},
{
place = (384, 64);
place = (384, 64);
type = Stem;
},
{
horizontal = 1;
place = (256, 64);
place = (256, 64);
type = Stem;
},
{
place = (128, 128);
place = (128, 128);
type = Stem;
},
{
horizontal = 1;
place = (320, 64);
place = (320, 64);
type = Stem;
},
{
place = (128, 64);
place = (128, 64);
type = Stem;
},
{
horizontal = 1;
place = (192, 64);
place = (192, 64);
type = Stem;
},
{
place = (256, 64);
place = (256, 64);
type = Stem;
}
);
layerId = m01;
shapes = (
{
closed = 1;
nodes = (
(384,576,l),
(384,256,l),
(320,256,l),
(320,320,l),
(256,320,l),
(256,384,l),
(192,384,l),
(192,448,l),
(128,448,l),
(128,512,l),
(64,512,l),
(64,576,l),
(0,576,l),
(0,0,l),
(64,0,l),
(64,320,l),
(128,320,l),
(128,256,l),
(192,256,l),
(192,192,l),
(256,192,l),
(256,128,l),
(320,128,l),
(320,64,l),
(384,64,l),
(384,0,l),
(448,0,l),
(448,576,l)
);
}
);
width = 576;
}
);
note = N;
unicode = 78;
},
{
glyphname = Ntilde;
layers = (
{
hints = (
{
horizontal = 1;
place = (704, 64);
place = (704, 64);
type = Stem;
},
{
place = (64, 128);
place = (64, 128);
type = Stem;
},
{
place = (384, 64);
place = (384, 64);
type = Stem;
},
{
place = (0, 192);
place = (0, 192);
type = Stem;
},
{
place = (320, 128);
place = (320, 128);
type = Stem;
},
{
place = (0, 64);
place = (0, 64);
type = Stem;
},
{
place = (320, 64);
place = (320, 64);
type = Stem;
},
{
horizontal = 1;
place = (128, 128);
place = (128, 128);
type = Stem;
},
{
horizontal = 1;
place = (640, 64);
place = (640, 64);
type = Stem;
},
{
place = (192, 128);
place = (192, 128);
type = Stem;
},
{
horizontal = 1;
place = (256, 64);
place = (256, 64);
type = Stem;
},
{
place = (128, 128);
place = (128, 128);
type = Stem;
},
{
horizontal = 1;
place = (320, 64);
place = (320, 64);
type = Stem;
},
{
place = (128, 64);
place = (128, 64);
type = Stem;
},
{
horizontal = 1;
place = (320, 128);
place = (320, 128);
type = Stem;
},
{
horizontal = 1;
place = (192, 64);
place = (192, 64);
type = Stem;
},
{
place = (256, 64);
place = (256, 64);
type = Stem;
}
);
layerId = m01;
shapes = (
{
closed = 1;
nodes = (
(64,768,l),
(64,704,l),
(192,704,l),
(192,768,l)
);
},
{
closed = 1;
nodes = (
(320,704,l),
(384,704,l),
(384,768,l),
(320,768,l)
);
},
{
closed = 1;
nodes = (
(64,640,l),
(64,704,l),
(0,704,l),
(0,640,l)
);
},
{
closed = 1;
nodes = (
(192,640,l),
(320,640,l),
(320,704,l),
(192,704,l)
);
},
{
closed = 1;
nodes = (
(384,576,l),
(384,256,l),
(320,256,l),
(320,320,l),
(256,320,l),
(256,384,l),
(192,384,l),
(192,448,l),
(128,448,l),
(128,512,l),
(64,512,l),
(64,576,l),
(0,576,l),
(0,0,l),
(64,0,l),
(64,320,l),
(128,320,l),
(128,256,l),
(192,256,l),
(192,192,l),
(256,192,l),
(256,128,l),
(320,128,l),
(320,64,l),
(384,64,l),
(384,0,l),
(448,0,l),
(448,576,l)
);
}
);
width = 576;
}
);
note = Ntilde;
unicode = 209;
},
{
glyphname = O;
layers = (
{
hints = (
{
horizontal = 1;
place = (0, 64);
place = (0, 64);
type = Stem;
},
{
horizontal = 1;
place = (512, 64);
place = (512, 64);
type = Stem;
},
{
place = (0, 128);
place = (0, 128);
type = Stem;
},
{
place = (256, 64);
place = (256, 64);
type = Stem;
},
{
place = (256, 128);
place = (256, 128);
type = Stem;
},
{
place = (64, 64);
place = (64, 64);
type = Stem;
}
);
layerId = m01;
shapes = (
{
closed = 1;
nodes = (
(320,0,l),
(320,64,l),
(384,64,l),
(384,512,l),
(320,512,l),
(320,576,l),
(64,576,l),
(64,512,l),
(0,512,l),
(0,64,l),
(64,64,l),
(64,0,l)
);
},
{
closed = 1;
nodes = (
(128,64,l),
(128,512,l),
(256,512,l),
(256,64,l)
);
}
);
width = 512;
}
);
note = O;
unicode = 79;
},
{
glyphname = Oacute;
layers = (
{
hints = (
{
horizontal = 1;
place = (0, 64);
place = (0, 64);
type = Stem;
},
{
horizontal = 1;
place = (512, 64);
place = (512, 64);
type = Stem;
},
{
horizontal = 1;
place = (704, 64);
place = (704, 64);
type = Stem;
},
{
place = (0, 128);
place = (0, 128);
type = Stem;
},
{
place = (192, 64);
place = (192, 64);
type = Stem;
},
{
horizontal = 1;
place = (640, 64);
place = (640, 64);
type = Stem;
},
{
place = (128, 64);
place = (128, 64);
type = Stem;
},
{
place = (256, 64);
place = (256, 64);
type = Stem;
},
{
place = (256, 128);
place = (256, 128);
type = Stem;
},
{
place = (64, 64);
place = (64, 64);
type = Stem;
}
);
layerId = m01;
shapes = (
{
closed = 1;
nodes = (
(256,704,l),
(256,768,l),
(192,768,l),
(192,704,l)
);
},
{
closed = 1;
nodes = (
(192,640,l),
(192,704,l),
(128,704,l),
(128,640,l)
);
},
{
closed = 1;
nodes = (
(320,0,l),
(320,64,l),
(384,64,l),
(384,512,l),
(320,512,l),
(320,576,l),
(64,576,l),
(64,512,l),
(0,512,l),
(0,64,l),
(64,64,l),
(64,0,l)
);
},
{
closed = 1;
nodes = (
(128,64,l),
(128,512,l),
(256,512,l),
(256,64,l)
);
}
);
width = 512;
}
);
note = Oacute;
unicode = 211;
},
{
glyphname = Ocircumflex;
layers = (
{
hints = (
{
horizontal = 1;
place = (0, 64);
place = (0, 64);
type = Stem;
},
{
horizontal = 1;
place = (512, 64);
place = (512, 64);
type = Stem;
},
{
horizontal = 1;
place = (704, 64);
place = (704, 64);
type = Stem;
},
{
place = (128, 128);
place = (128, 128);
type = Stem;
},
{
horizontal = 1;
place = (640, 64);
place = (640, 64);
type = Stem;
},
{
place = (0, 128);
place = (0, 128);
type = Stem;
},
{
place = (256, 128);
place = (256, 128);
type = Stem;
},
{
place = (64, 64);
place = (64, 64);
type = Stem;
},
{
place = (256, 64);
place = (256, 64);
type = Stem;
}
);
layerId = m01;
shapes = (
{
closed = 1;
nodes = (
(256,768,l),
(128,768,l),
(128,704,l),
(256,704,l)
);
},
{
closed = 1;
nodes = (
(128,640,l),
(128,704,l),
(64,704,l),
(64,640,l)
);
},
{
closed = 1;
nodes = (
(320,640,l),
(320,704,l),
(256,704,l),
(256,640,l)
);
},
{
closed = 1;
nodes = (
(320,0,l),
(320,64,l),
(384,64,l),
(384,512,l),
(320,512,l),
(320,576,l),
(64,576,l),
(64,512,l),
(0,512,l),
(0,64,l),
(64,64,l),
(64,0,l)
);
},
{
closed = 1;
nodes = (
(128,64,l),
(128,512,l),
(256,512,l),
(256,64,l)
);
}
);
width = 512;
}
);
note = Ocircumflex;
unicode = 212;
},
{
glyphname = Odieresis;
layers = (
{
hints = (
{
horizontal = 1;
place = (0, 64);
place = (0, 64);
type = Stem;
},
{
horizontal = 1;
place = (512, 64);
place = (512, 64);
type = Stem;
},
{
horizontal = 1;
place = (640, 64);
place = (640, 64);
type = Stem;
},
{
place = (0, 128);
place = (0, 128);
type = Stem;
},
{
place = (256, 128);
place = (256, 128);
type = Stem;
},
{
place = (64, 64);
place = (64, 64);
type = Stem;
},
{
place = (256, 64);
place = (256, 64);
type = Stem;
}
);
layerId = m01;
shapes = (
{
closed = 1;
nodes = (
(128,640,l),
(128,704,l),
(64,704,l),
(64,640,l)
);
},
{
closed = 1;
nodes = (
(320,640,l),
(320,704,l),
(256,704,l),
(256,640,l)
);
},
{
closed = 1;
nodes = (
(320,0,l),
(320,64,l),
(384,64,l),
(384,512,l),
(320,512,l),
(320,576,l),
(64,576,l),
(64,512,l),
(0,512,l),
(0,64,l),
(64,64,l),
(64,0,l)
);
},
{
closed = 1;
nodes = (
(128,64,l),
(128,512,l),
(256,512,l),
(256,64,l)
);
}
);
width = 512;
}
);
note = Odieresis;
unicode = 214;
},
{
glyphname = Ograve;
layers = (
{
hints = (
{
horizontal = 1;
place = (0, 64);
place = (0, 64);
type = Stem;
},
{
horizontal = 1;
place = (512, 64);
place = (512, 64);
type = Stem;
},
{
horizontal = 1;
place = (704, 64);
place = (704, 64);
type = Stem;
},
{
place = (128, 64);
place = (128, 64);
type = Stem;
},
{
place = (256, 128);
place = (256, 128);
type = Stem;
},
{
horizontal = 1;
place = (640, 64);
place = (640, 64);
type = Stem;
},
{
place = (0, 128);
place = (0, 128);
type = Stem;
},
{
place = (192, 64);
place = (192, 64);
type = Stem;
},
{
place = (256, 64);
place = (256, 64);
type = Stem;
},
{
place = (64, 64);
place = (64, 64);
type = Stem;
}
);
layerId = m01;
shapes = (
{
closed = 1;
nodes = (
(192,768,l),
(128,768,l),
(128,704,l),
(192,704,l)
);
},
{
closed = 1;
nodes = (
(256,640,l),
(256,704,l),
(192,704,l),
(192,640,l)
);
},
{
closed = 1;
nodes = (
(320,0,l),
(320,64,l),
(384,64,l),
(384,512,l),
(320,512,l),
(320,576,l),
(64,576,l),
(64,512,l),
(0,512,l),
(0,64,l),
(64,64,l),
(64,0,l)
);
},
{
closed = 1;
nodes = (
(128,64,l),
(128,512,l),
(256,512,l),
(256,64,l)
);
}
);
width = 512;
}
);
note = Ograve;
unicode = 210;
},
{
glyphname = Oslash;
layers = (
{
hints = (
{
horizontal = 1;
place = (0, 64);
place = (0, 64);
type = Stem;
},
{
horizontal = 1;
place = (320, 64);
place = (320, 64);
type = Stem;
},
{
horizontal = 1;
place = (512, 64);
place = (512, 64);
type = Stem;
},
{
place = (0, 64);
place = (0, 64);
type = Stem;
},
{
place = (128, 128);
place = (128, 128);
type = Stem;
},
{
place = (384, 64);
place = (384, 64);
type = Stem;
},
{
place = (384, 128);
place = (384, 128);
type = Stem;
},
{
place = (192, 64);
place = (192, 64);
type = Stem;
},
{
horizontal = 1;
place = (64, 64);
place = (64, 64);
type = Stem;
},
{
place = (512, 64);
place = (512, 64);
type = Stem;
},
{
horizontal = 1;
place = (256, 64);
place = (256, 64);
type = Stem;
}
);
layerId = m01;
shapes = (
{
closed = 1;
nodes = (
(448,0,l),
(448,64,l),
(512,64,l),
(512,512,l),
(448,512,l),
(448,576,l),
(192,576,l),
(192,512,l),
(128,512,l),
(128,128,l),
(64,128,l),
(64,64,l),
(192,64,l),
(192,0,l)
);
},
{
closed = 1;
nodes = (
(576,512,l),
(576,576,l),
(512,576,l),
(512,512,l)
);
},
{
closed = 1;
nodes = (
(256,64,l),
(256,256,l),
(320,256,l),
(320,320,l),
(256,320,l),
(256,512,l),
(384,512,l),
(384,384,l),
(320,384,l),
(320,320,l),
(384,320,l),
(384,64,l)
);
},
{
closed = 1;
nodes = (
(64,0,l),
(64,64,l),
(0,64,l),
(0,0,l)
);
}
);
width = 704;
}
);
note = Oslash;
unicode = 216;
},
{
glyphname = Otilde;
layers = (
{
hints = (
{
horizontal = 1;
place = (704, 64);
place = (704, 64);
type = Stem;
},
{
place = (64, 128);
place = (64, 128);
type = Stem;
},
{
place = (320, 64);
place = (320, 64);
type = Stem;
},
{
horizontal = 1;
place = (640, 64);
place = (640, 64);
type = Stem;
},
{
place = (0, 64);
place = (0, 64);
type = Stem;
},
{
place = (0, 128);
place = (0, 128);
type = Stem;
},
{
place = (192, 128);
place = (192, 128);
type = Stem;
},
{
horizontal = 1;
place = (0, 64);
place = (0, 64);
type = Stem;
},
{
place = (256, 64);
place = (256, 64);
type = Stem;
},
{
horizontal = 1;
place = (512, 64);
place = (512, 64);
type = Stem;
},
{
place = (256, 128);
place = (256, 128);
type = Stem;
},
{
place = (64, 64);
place = (64, 64);
type = Stem;
}
);
layerId = m01;
shapes = (
{
closed = 1;
nodes = (
(192,768,l),
(64,768,l),
(64,704,l),
(192,704,l)
);
},
{
closed = 1;
nodes = (
(384,704,l),
(384,768,l),
(320,768,l),
(320,704,l)
);
},
{
closed = 1;
nodes = (
(64,640,l),
(64,704,l),
(0,704,l),
(0,640,l)
);
},
{
closed = 1;
nodes = (
(192,704,l),
(192,640,l),
(320,640,l),
(320,704,l)
);
},
{
closed = 1;
nodes = (
(320,0,l),
(320,64,l),
(384,64,l),
(384,512,l),
(320,512,l),
(320,576,l),
(64,576,l),
(64,512,l),
(0,512,l),
(0,64,l),
(64,64,l),
(64,0,l)
);
},
{
closed = 1;
nodes = (
(128,64,l),
(128,512,l),
(256,512,l),
(256,64,l)
);
}
);
width = 512;
}
);
note = Otilde;
unicode = 213;
},
{
glyphname = OE;
layers = (
{
hints = (
{
horizontal = 1;
place = (0, 64);
place = (0, 64);
type = Stem;
},
{
horizontal = 1;
place = (256, 64);
place = (256, 64);
type = Stem;
},
{
horizontal = 1;
place = (512, 64);
place = (512, 64);
type = Stem;
},
{
place = (0, 128);
place = (0, 128);
type = Stem;
},
{
place = (256, 128);
place = (256, 128);
type = Stem;
},
{
place = (64, 64);
place = (64, 64);
type = Stem;
}
);
layerId = m01;
shapes = (
{
closed = 1;
nodes = (
(576,64,l),
(384,64,l),
(384,256,l),
(512,256,l),
(512,320,l),
(384,320,l),
(384,512,l),
(576,512,l),
(576,576,l),
(64,576,l),
(64,512,l),
(0,512,l),
(0,64,l),
(64,64,l),
(64,0,l),
(576,0,l)
);
},
{
closed = 1;
nodes = (
(128,64,l),
(128,512,l),
(256,512,l),
(256,64,l)
);
}
);
width = 704;
}
);
note = OE;
unicode = 338;
},
{
glyphname = P;
layers = (
{
hints = (
{
horizontal = 1;
place = (256, 64);
place = (256, 64);
type = Stem;
},
{
horizontal = 1;
place = (512, 64);
place = (512, 64);
type = Stem;
},
{
place = (0, 128);
place = (0, 128);
type = Stem;
},
{
place = (256, 64);
place = (256, 64);
type = Stem;
},
{
horizontal = 1;
place = (320, 192);
place = (320, 192);
type = Stem;
},
{
place = (256, 128);
place = (256, 128);
type = Stem;
}
);
layerId = m01;
shapes = (
{
closed = 1;
nodes = (
(128,0,l),
(128,256,l),
(320,256,l),
(320,320,l),
(384,320,l),
(384,512,l),
(320,512,l),
(320,576,l),
(0,576,l),
(0,0,l)
);
},
{
closed = 1;
nodes = (
(128,320,l),
(128,512,l),
(256,512,l),
(256,320,l)
);
}
);
width = 512;
}
);
note = P;
unicode = 80;
},
{
glyphname = Q;
layers = (
{
hints = (
{
horizontal = 1;
place = (-64, 64);
place = (-64, 64);
type = Stem;
},
{
horizontal = 1;
place = (512, 64);
place = (512, 64);
type = Stem;
},
{
place = (0, 128);
place = (0, 128);
type = Stem;
},
{
place = (256, 128);
place = (256, 128);
type = Stem;
},
{
place = (256, 64);
place = (256, 64);
type = Stem;
},
{
horizontal = 1;
place = (0, 64);
place = (0, 64);
type = Stem;
},
{
place = (64, 64);
place = (64, 64);
type = Stem;
}
);
layerId = m01;
shapes = (
{
closed = 1;
nodes = (
(384,-64,l),
(384,0,l),
(320,0,l),
(320,64,l),
(384,64,l),
(384,512,l),
(320,512,l),
(320,576,l),
(64,576,l),
(64,512,l),
(0,512,l),
(0,64,l),
(64,64,l),
(64,0,l),
(256,0,l),
(256,-64,l)
);
},
{
closed = 1;
nodes = (
(128,64,l),
(128,512,l),
(256,512,l),
(256,64,l)
);
}
);
width = 512;
}
);
note = Q;
unicode = 81;
},
{
glyphname = R;
layers = (
{
hints = (
{
horizontal = 1;
place = (0, 256);
place = (0, 256);
type = Stem;
},
{
horizontal = 1;
place = (512, 64);
place = (512, 64);
type = Stem;
},
{
place = (0, 128);
place = (0, 128);
type = Stem;
},
{
place = (256, 128);
place = (256, 128);
type = Stem;
},
{
horizontal = 1;
place = (320, 192);
place = (320, 192);
type = Stem;
},
{
place = (256, 64);
place = (256, 64);
type = Stem;
},
{
horizontal = 1;
place = (256, 64);
place = (256, 64);
type = Stem;
}
);
layerId = m01;
shapes = (
{
closed = 1;
nodes = (
(384,0,l),
(384,256,l),
(320,256,l),
(320,320,l),
(384,320,l),
(384,512,l),
(320,512,l),
(320,576,l),
(0,576,l),
(0,0,l),
(128,0,l),
(128,256,l),
(256,256,l),
(256,0,l)
);
},
{
closed = 1;
nodes = (
(128,320,l),
(128,512,l),
(256,512,l),
(256,320,l)
);
}
);
width = 512;
}
);
note = R;
unicode = 82;
},
{
glyphname = S;
layers = (
{
hints = (
{
horizontal = 1;
place = (0, 64);
place = (0, 64);
type = Stem;
},
{
horizontal = 1;
place = (512, 64);
place = (512, 64);
type = Stem;
},
{
place = (0, 128);
place = (0, 128);
type = Stem;
},
{
place = (192, 64);
place = (192, 64);
type = Stem;
},
{
horizontal = 1;
place = (64, 192);
place = (64, 192);
type = Stem;
},
{
place = (192, 128);
place = (192, 128);
type = Stem;
},
{
horizontal = 1;
place = (192, 64);
place = (192, 64);
type = Stem;
},
{
horizontal = 1;
place = (256, 64);
place = (256, 64);
type = Stem;
},
{
place = (128, 64);
place = (128, 64);
type = Stem;
},
{
horizontal = 1;
place = (320, 64);
place = (320, 64);
type = Stem;
},
{
place = (64, 192);
place = (64, 192);
type = Stem;
},
{
place = (64, 64);
place = (64, 64);
type = Stem;
},
{
horizontal = 1;
place = (320, 192);
place = (320, 192);
type = Stem;
},
{
horizontal = 1;
place = (64, 64);
place = (64, 64);
type = Stem;
},
{
horizontal = 1;
place = (448, 64);
place = (448, 64);
type = Stem;
},
{
place = (0, 64);
place = (0, 64);
type = Stem;
},
{
place = (256, 64);
place = (256, 64);
type = Stem;
}
);
layerId = m01;
shapes = (
{
closed = 1;
nodes = (
(256,0,l),
(256,64,l),
(320,64,l),
(320,256,l),
(256,256,l),
(256,320,l),
(192,320,l),
(192,384,l),
(128,384,l),
(128,512,l),
(256,512,l),
(256,576,l),
(64,576,l),
(64,512,l),
(0,512,l),
(0,320,l),
(64,320,l),
(64,256,l),
(128,256,l),
(128,192,l),
(192,192,l),
(192,64,l),
(64,64,l),
(64,0,l)
);
},
{
closed = 1;
nodes = (
(320,448,l),
(320,512,l),
(256,512,l),
(256,448,l)
);
},
{
closed = 1;
nodes = (
(64,128,l),
(0,128,l),
(0,64,l),
(64,64,l)
);
}
);
width = 448;
}
);
note = S;
unicode = 83;
},
{
glyphname = T;
layers = (
{
hints = (
{
horizontal = 1;
place = (512, 64);
place = (512, 64);
type = Stem;
},
{
place = (128, 128);
place = (128, 128);
type = Stem;
}
);
layerId = m01;
shapes = (
{
closed = 1;
nodes = (
(256,0,l),
(256,512,l),
(384,512,l),
(384,576,l),
(0,576,l),
(0,512,l),
(128,512,l),
(128,0,l)
);
}
);
width = 512;
}
);
note = T;
unicode = 84;
},
{
glyphname = U;
layers = (
{
hints = (
{
horizontal = 1;
place = (0, 64);
place = (0, 64);
type = Stem;
},
{
place = (0, 128);
place = (0, 128);
type = Stem;
},
{
place = (256, 64);
place = (256, 64);
type = Stem;
},
{
place = (256, 128);
place = (256, 128);
type = Stem;
},
{
place = (64, 64);
place = (64, 64);
type = Stem;
}
);
layerId = m01;
shapes = (
{
closed = 1;
nodes = (
(320,0,l),
(320,64,l),
(384,64,l),
(384,576,l),
(256,576,l),
(256,64,l),
(128,64,l),
(128,576,l),
(0,576,l),
(0,64,l),
(64,64,l),
(64,0,l)
);
}
);
width = 512;
}
);
note = U;
unicode = 85;
},
{
glyphname = Uacute;
layers = (
{
hints = (
{
horizontal = 1;
place = (0, 64);
place = (0, 64);
type = Stem;
},
{
horizontal = 1;
place = (704, 64);
place = (704, 64);
type = Stem;
},
{
place = (0, 128);
place = (0, 128);
type = Stem;
},
{
place = (192, 64);
place = (192, 64);
type = Stem;
},
{
horizontal = 1;
place = (640, 64);
place = (640, 64);
type = Stem;
},
{
place = (128, 64);
place = (128, 64);
type = Stem;
},
{
place = (256, 64);
place = (256, 64);
type = Stem;
},
{
place = (256, 128);
place = (256, 128);
type = Stem;
},
{
place = (64, 64);
place = (64, 64);
type = Stem;
}
);
layerId = m01;
shapes = (
{
closed = 1;
nodes = (
(256,704,l),
(256,768,l),
(192,768,l),
(192,704,l)
);
},
{
closed = 1;
nodes = (
(192,640,l),
(192,704,l),
(128,704,l),
(128,640,l)
);
},
{
closed = 1;
nodes = (
(320,0,l),
(320,64,l),
(384,64,l),
(384,576,l),
(256,576,l),
(256,64,l),
(128,64,l),
(128,576,l),
(0,576,l),
(0,64,l),
(64,64,l),
(64,0,l)
);
}
);
width = 512;
}
);
note = Uacute;
unicode = 218;
},
{
glyphname = Ucircumflex;
layers = (
{
hints = (
{
horizontal = 1;
place = (0, 64);
place = (0, 64);
type = Stem;
},
{
horizontal = 1;
place = (704, 64);
place = (704, 64);
type = Stem;
},
{
place = (128, 128);
place = (128, 128);
type = Stem;
},
{
horizontal = 1;
place = (640, 64);
place = (640, 64);
type = Stem;
},
{
place = (0, 128);
place = (0, 128);
type = Stem;
},
{
place = (256, 128);
place = (256, 128);
type = Stem;
},
{
place = (64, 64);
place = (64, 64);
type = Stem;
},
{
place = (256, 64);
place = (256, 64);
type = Stem;
}
);
layerId = m01;
shapes = (
{
closed = 1;
nodes = (
(256,768,l),
(128,768,l),
(128,704,l),
(256,704,l)
);
},
{
closed = 1;
nodes = (
(128,640,l),
(128,704,l),
(64,704,l),
(64,640,l)
);
},
{
closed = 1;
nodes = (
(320,640,l),
(320,704,l),
(256,704,l),
(256,640,l)
);
},
{
closed = 1;
nodes = (
(320,0,l),
(320,64,l),
(384,64,l),
(384,576,l),
(256,576,l),
(256,64,l),
(128,64,l),
(128,576,l),
(0,576,l),
(0,64,l),
(64,64,l),
(64,0,l)
);
}
);
width = 512;
}
);
note = Ucircumflex;
unicode = 219;
},
{
glyphname = Udieresis;
layers = (
{
hints = (
{
horizontal = 1;
place = (0, 64);
place = (0, 64);
type = Stem;
},
{
horizontal = 1;
place = (640, 64);
place = (640, 64);
type = Stem;
},
{
place = (0, 128);
place = (0, 128);
type = Stem;
},
{
place = (256, 128);
place = (256, 128);
type = Stem;
},
{
place = (64, 64);
place = (64, 64);
type = Stem;
},
{
place = (256, 64);
place = (256, 64);
type = Stem;
}
);
layerId = m01;
shapes = (
{
closed = 1;
nodes = (
(128,640,l),
(128,704,l),
(64,704,l),
(64,640,l)
);
},
{
closed = 1;
nodes = (
(320,640,l),
(320,704,l),
(256,704,l),
(256,640,l)
);
},
{
closed = 1;
nodes = (
(320,0,l),
(320,64,l),
(384,64,l),
(384,576,l),
(256,576,l),
(256,64,l),
(128,64,l),
(128,576,l),
(0,576,l),
(0,64,l),
(64,64,l),
(64,0,l)
);
}
);
width = 512;
}
);
note = Udieresis;
unicode = 220;
},
{
glyphname = Ugrave;
layers = (
{
hints = (
{
horizontal = 1;
place = (0, 64);
place = (0, 64);
type = Stem;
},
{
horizontal = 1;
place = (704, 64);
place = (704, 64);
type = Stem;
},
{
place = (128, 64);
place = (128, 64);
type = Stem;
},
{
place = (256, 128);
place = (256, 128);
type = Stem;
},
{
horizontal = 1;
place = (640, 64);
place = (640, 64);
type = Stem;
},
{
place = (0, 128);
place = (0, 128);
type = Stem;
},
{
place = (192, 64);
place = (192, 64);
type = Stem;
},
{
place = (256, 64);
place = (256, 64);
type = Stem;
},
{
place = (64, 64);
place = (64, 64);
type = Stem;
}
);
layerId = m01;
shapes = (
{
closed = 1;
nodes = (
(192,768,l),
(128,768,l),
(128,704,l),
(192,704,l)
);
},
{
closed = 1;
nodes = (
(256,640,l),
(256,704,l),
(192,704,l),
(192,640,l)
);
},
{
closed = 1;
nodes = (
(320,0,l),
(320,64,l),
(384,64,l),
(384,576,l),
(256,576,l),
(256,64,l),
(128,64,l),
(128,576,l),
(0,576,l),
(0,64,l),
(64,64,l),
(64,0,l)
);
}
);
width = 512;
}
);
note = Ugrave;
unicode = 217;
},
{
glyphname = V;
layers = (
{
hints = (
{
horizontal = 1;
place = (0, 64);
place = (0, 64);
type = Stem;
},
{
place = (0, 128);
place = (0, 128);
type = Stem;
},
{
place = (256, 64);
place = (256, 64);
type = Stem;
},
{
place = (256, 128);
place = (256, 128);
type = Stem;
}
);
layerId = m01;
shapes = (
{
closed = 1;
nodes = (
(320,0,l),
(320,128,l),
(384,128,l),
(384,576,l),
(256,576,l),
(256,64,l),
(128,64,l),
(128,576,l),
(0,576,l),
(0,0,l)
);
}
);
width = 512;
}
);
note = V;
unicode = 86;
},
{
glyphname = W;
layers = (
{
hints = (
{
horizontal = 1;
place = (0, 64);
place = (0, 64);
type = Stem;
},
{
place = (0, 128);
place = (0, 128);
type = Stem;
},
{
place = (256, 128);
place = (256, 128);
type = Stem;
},
{
place = (512, 128);
place = (512, 128);
type = Stem;
},
{
place = (512, 64);
place = (512, 64);
type = Stem;
}
);
layerId = m01;
shapes = (
{
closed = 1;
nodes = (
(384,64,l),
(384,576,l),
(256,576,l),
(256,64,l),
(128,64,l),
(128,576,l),
(0,576,l),
(0,0,l),
(512,0,l),
(512,64,l)
);
},
{
closed = 1;
nodes = (
(576,64,l),
(576,128,l),
(640,128,l),
(640,576,l),
(512,576,l),
(512,64,l)
);
}
);
width = 768;
}
);
note = W;
unicode = 87;
},
{
glyphname = X;
layers = (
{
hints = (
{
horizontal = 1;
place = (0, 256);
place = (0, 256);
type = Stem;
},
{
place = (0, 128);
place = (0, 128);
type = Stem;
},
{
place = (256, 128);
place = (256, 128);
type = Stem;
},
{
horizontal = 1;
place = (320, 256);
place = (320, 256);
type = Stem;
},
{
place = (256, 64);
place = (256, 64);
type = Stem;
},
{
horizontal = 1;
place = (256, 64);
place = (256, 64);
type = Stem;
},
{
place = (64, 64);
place = (64, 64);
type = Stem;
}
);
layerId = m01;
shapes = (
{
closed = 1;
nodes = (
(384,0,l),
(384,256,l),
(320,256,l),
(320,320,l),
(384,320,l),
(384,576,l),
(256,576,l),
(256,320,l),
(128,320,l),
(128,576,l),
(0,576,l),
(0,320,l),
(64,320,l),
(64,256,l),
(0,256,l),
(0,0,l),
(128,0,l),
(128,256,l),
(256,256,l),
(256,0,l)
);
}
);
width = 512;
}
);
note = X;
unicode = 88;
},
{
glyphname = Y;
layers = (
{
hints = (
{
horizontal = 1;
place = (256, 64);
place = (256, 64);
type = Stem;
},
{
place = (128, 128);
place = (128, 128);
type = Stem;
},
{
place = (0, 128);
place = (0, 128);
type = Stem;
},
{
place = (256, 64);
place = (256, 64);
type = Stem;
},
{
horizontal = 1;
place = (320, 256);
place = (320, 256);
type = Stem;
},
{
place = (256, 128);
place = (256, 128);
type = Stem;
},
{
place = (64, 64);
place = (64, 64);
type = Stem;
}
);
layerId = m01;
shapes = (
{
closed = 1;
nodes = (
(256,0,l),
(256,256,l),
(320,256,l),
(320,320,l),
(384,320,l),
(384,576,l),
(256,576,l),
(256,320,l),
(128,320,l),
(128,576,l),
(0,576,l),
(0,320,l),
(64,320,l),
(64,256,l),
(128,256,l),
(128,0,l)
);
}
);
width = 512;
}
);
note = Y;
unicode = 89;
},
{
glyphname = Z;
layers = (
{
hints = (
{
horizontal = 1;
place = (0, 64);
place = (0, 64);
type = Stem;
},
{
horizontal = 1;
place = (192, 64);
place = (192, 64);
type = Stem;
},
{
horizontal = 1;
place = (320, 64);
place = (320, 64);
type = Stem;
},
{
horizontal = 1;
place = (512, 64);
place = (512, 64);
type = Stem;
},
{
place = (0, 128);
place = (0, 128);
type = Stem;
},
{
place = (256, 128);
place = (256, 128);
type = Stem;
},
{
place = (128, 64);
place = (128, 64);
type = Stem;
},
{
horizontal = 1;
place = (256, 64);
place = (256, 64);
type = Stem;
},
{
place = (192, 64);
place = (192, 64);
type = Stem;
},
{
place = (256, 64);
place = (256, 64);
type = Stem;
},
{
horizontal = 1;
place = (384, 192);
place = (384, 192);
type = Stem;
},
{
place = (64, 64);
place = (64, 64);
type = Stem;
},
{
horizontal = 1;
place = (0, 192);
place = (0, 192);
type = Stem;
}
);
layerId = m01;
shapes = (
{
closed = 1;
nodes = (
(384,64,l),
(128,64,l),
(128,192,l),
(192,192,l),
(192,256,l),
(256,256,l),
(256,320,l),
(320,320,l),
(320,384,l),
(384,384,l),
(384,576,l),
(0,576,l),
(0,512,l),
(256,512,l),
(256,384,l),
(192,384,l),
(192,320,l),
(128,320,l),
(128,256,l),
(64,256,l),
(64,192,l),
(0,192,l),
(0,0,l),
(384,0,l)
);
}
);
width = 512;
}
);
note = Z;
unicode = 90;
},
{
glyphname = a;
layers = (
{
hints = (
{
horizontal = 1;
place = (0, 64);
place = (0, 64);
type = Stem;
},
{
horizontal = 1;
place = (256, 64);
place = (256, 64);
type = Stem;
},
{
horizontal = 1;
place = (384, 64);
place = (384, 64);
type = Stem;
},
{
place = (64, 64);
place = (64, 64);
type = Stem;
},
{
place = (256, 128);
place = (256, 128);
type = Stem;
},
{
place = (256, 64);
place = (256, 64);
type = Stem;
},
{
horizontal = 1;
place = (320, 64);
place = (320, 64);
type = Stem;
},
{
place = (0, 128);
place = (0, 128);
type = Stem;
},
{
horizontal = 1;
place = (64, 192);
place = (64, 192);
type = Stem;
},
{
place = (0, 64);
place = (0, 64);
type = Stem;
}
);
layerId = m01;
shapes = (
{
closed = 1;
nodes = (
(384,0,l),
(384,384,l),
(320,384,l),
(320,448,l),
(64,448,l),
(64,384,l),
(0,384,l),
(0,320,l),
(64,320,l),
(64,256,l),
(0,256,l),
(0,64,l),
(64,64,l),
(64,0,l)
);
},
{
closed = 1;
nodes = (
(256,320,l),
(64,320,l),
(64,384,l),
(256,384,l)
);
},
{
closed = 1;
nodes = (
(128,64,l),
(128,256,l),
(256,256,l),
(256,64,l)
);
}
);
width = 512;
}
);
note = a;
unicode = 97;
},
{
glyphname = aacute;
layers = (
{
hints = (
{
horizontal = 1;
place = (0, 64);
place = (0, 64);
type = Stem;
},
{
horizontal = 1;
place = (256, 64);
place = (256, 64);
type = Stem;
},
{
horizontal = 1;
place = (384, 64);
place = (384, 64);
type = Stem;
},
{
horizontal = 1;
place = (576, 64);
place = (576, 64);
type = Stem;
},
{
place = (64, 64);
place = (64, 64);
type = Stem;
},
{
place = (192, 64);
place = (192, 64);
type = Stem;
},
{
horizontal = 1;
place = (512, 64);
place = (512, 64);
type = Stem;
},
{
place = (128, 64);
place = (128, 64);
type = Stem;
},
{
place = (256, 128);
place = (256, 128);
type = Stem;
},
{
place = (256, 64);
place = (256, 64);
type = Stem;
},
{
horizontal = 1;
place = (320, 64);
place = (320, 64);
type = Stem;
},
{
place = (0, 128);
place = (0, 128);
type = Stem;
},
{
horizontal = 1;
place = (64, 192);
place = (64, 192);
type = Stem;
},
{
place = (0, 64);
place = (0, 64);
type = Stem;
}
);
layerId = m01;
shapes = (
{
closed = 1;
nodes = (
(256,640,l),
(192,640,l),
(192,576,l),
(256,576,l)
);
},
{
closed = 1;
nodes = (
(192,576,l),
(128,576,l),
(128,512,l),
(192,512,l)
);
},
{
closed = 1;
nodes = (
(384,0,l),
(384,384,l),
(320,384,l),
(320,448,l),
(64,448,l),
(64,384,l),
(0,384,l),
(0,320,l),
(64,320,l),
(64,256,l),
(0,256,l),
(0,64,l),
(64,64,l),
(64,0,l)
);
},
{
closed = 1;
nodes = (
(256,320,l),
(64,320,l),
(64,384,l),
(256,384,l)
);
},
{
closed = 1;
nodes = (
(128,64,l),
(128,256,l),
(256,256,l),
(256,64,l)
);
}
);
width = 512;
}
);
note = aacute;
unicode = 225;
},
{
glyphname = acircumflex;
layers = (
{
hints = (
{
horizontal = 1;
place = (576, 64);
place = (576, 64);
type = Stem;
},
{
place = (128, 128);
place = (128, 128);
type = Stem;
},
{
horizontal = 1;
place = (512, 64);
place = (512, 64);
type = Stem;
},
{
place = (64, 64);
place = (64, 64);
type = Stem;
},
{
place = (256, 64);
place = (256, 64);
type = Stem;
},
{
place = (256, 128);
place = (256, 128);
type = Stem;
},
{
horizontal = 1;
place = (0, 64);
place = (0, 64);
type = Stem;
},
{
horizontal = 1;
place = (384, 64);
place = (384, 64);
type = Stem;
},
{
horizontal = 1;
place = (320, 64);
place = (320, 64);
type = Stem;
},
{
place = (0, 64);
place = (0, 64);
type = Stem;
},
{
horizontal = 1;
place = (64, 192);
place = (64, 192);
type = Stem;
},
{
horizontal = 1;
place = (256, 64);
place = (256, 64);
type = Stem;
}
);
layerId = m01;
shapes = (
{
closed = 1;
nodes = (
(256,576,l),
(256,640,l),
(128,640,l),
(128,576,l)
);
},
{
closed = 1;
nodes = (
(128,512,l),
(128,576,l),
(64,576,l),
(64,512,l)
);
},
{
closed = 1;
nodes = (
(320,576,l),
(256,576,l),
(256,512,l),
(320,512,l)
);
},
{
closed = 1;
nodes = (
(384,0,l),
(384,384,l),
(320,384,l),
(320,448,l),
(64,448,l),
(64,384,l),
(0,384,l),
(0,320,l),
(64,320,l),
(64,256,l),
(0,256,l),
(0,64,l),
(64,64,l),
(64,0,l)
);
},
{
closed = 1;
nodes = (
(256,320,l),
(64,320,l),
(64,384,l),
(256,384,l)
);
},
{
closed = 1;
nodes = (
(128,64,l),
(128,256,l),
(256,256,l),
(256,64,l)
);
}
);
width = 512;
}
);
note = acircumflex;
unicode = 226;
},
{
glyphname = adieresis;
layers = (
{
hints = (
{
horizontal = 1;
place = (0, 64);
place = (0, 64);
type = Stem;
},
{
horizontal = 1;
place = (256, 64);
place = (256, 64);
type = Stem;
},
{
horizontal = 1;
place = (384, 64);
place = (384, 64);
type = Stem;
},
{
horizontal = 1;
place = (512, 64);
place = (512, 64);
type = Stem;
},
{
place = (64, 64);
place = (64, 64);
type = Stem;
},
{
place = (256, 128);
place = (256, 128);
type = Stem;
},
{
place = (256, 64);
place = (256, 64);
type = Stem;
},
{
horizontal = 1;
place = (320, 64);
place = (320, 64);
type = Stem;
},
{
place = (0, 64);
place = (0, 64);
type = Stem;
},
{
horizontal = 1;
place = (64, 192);
place = (64, 192);
type = Stem;
}
);
layerId = m01;
shapes = (
{
closed = 1;
nodes = (
(128,512,l),
(128,576,l),
(64,576,l),
(64,512,l)
);
},
{
closed = 1;
nodes = (
(320,512,l),
(320,576,l),
(256,576,l),
(256,512,l)
);
},
{
closed = 1;
nodes = (
(384,0,l),
(384,384,l),
(320,384,l),
(320,448,l),
(64,448,l),
(64,384,l),
(0,384,l),
(0,320,l),
(64,320,l),
(64,256,l),
(0,256,l),
(0,64,l),
(64,64,l),
(64,0,l)
);
},
{
closed = 1;
nodes = (
(256,320,l),
(64,320,l),
(64,384,l),
(256,384,l)
);
},
{
closed = 1;
nodes = (
(128,64,l),
(128,256,l),
(256,256,l),
(256,64,l)
);
}
);
width = 512;
}
);
note = adieresis;
unicode = 228;
},
{
glyphname = agrave;
layers = (
{
hints = (
{
horizontal = 1;
place = (0, 64);
place = (0, 64);
type = Stem;
},
{
horizontal = 1;
place = (256, 64);
place = (256, 64);
type = Stem;
},
{
horizontal = 1;
place = (384, 64);
place = (384, 64);
type = Stem;
},
{
horizontal = 1;
place = (576, 64);
place = (576, 64);
type = Stem;
},
{
place = (128, 64);
place = (128, 64);
type = Stem;
},
{
place = (256, 128);
place = (256, 128);
type = Stem;
},
{
horizontal = 1;
place = (512, 64);
place = (512, 64);
type = Stem;
},
{
place = (64, 64);
place = (64, 64);
type = Stem;
},
{
place = (192, 64);
place = (192, 64);
type = Stem;
},
{
place = (256, 64);
place = (256, 64);
type = Stem;
},
{
horizontal = 1;
place = (320, 64);
place = (320, 64);
type = Stem;
},
{
place = (0, 128);
place = (0, 128);
type = Stem;
},
{
horizontal = 1;
place = (64, 192);
place = (64, 192);
type = Stem;
},
{
place = (0, 64);
place = (0, 64);
type = Stem;
}
);
layerId = m01;
shapes = (
{
closed = 1;
nodes = (
(192,576,l),
(192,640,l),
(128,640,l),
(128,576,l)
);
},
{
closed = 1;
nodes = (
(256,512,l),
(256,576,l),
(192,576,l),
(192,512,l)
);
},
{
closed = 1;
nodes = (
(384,0,l),
(384,384,l),
(320,384,l),
(320,448,l),
(64,448,l),
(64,384,l),
(0,384,l),
(0,320,l),
(64,320,l),
(64,256,l),
(0,256,l),
(0,64,l),
(64,64,l),
(64,0,l)
);
},
{
closed = 1;
nodes = (
(256,320,l),
(64,320,l),
(64,384,l),
(256,384,l)
);
},
{
closed = 1;
nodes = (
(128,64,l),
(128,256,l),
(256,256,l),
(256,64,l)
);
}
);
width = 512;
}
);
note = agrave;
unicode = 224;
},
{
glyphname = aring;
layers = (
{
hints = (
{
horizontal = 1;
place = (704, 64);
place = (704, 64);
type = Stem;
},
{
place = (128, 128);
place = (128, 128);
type = Stem;
},
{
horizontal = 1;
place = (576, 128);
place = (576, 128);
type = Stem;
},
{
place = (64, 64);
place = (64, 64);
type = Stem;
},
{
place = (256, 64);
place = (256, 64);
type = Stem;
},
{
place = (256, 128);
place = (256, 128);
type = Stem;
},
{
horizontal = 1;
place = (512, 64);
place = (512, 64);
type = Stem;
},
{
horizontal = 1;
place = (0, 64);
place = (0, 64);
type = Stem;
},
{
horizontal = 1;
place = (384, 64);
place = (384, 64);
type = Stem;
},
{
horizontal = 1;
place = (320, 64);
place = (320, 64);
type = Stem;
},
{
place = (0, 64);
place = (0, 64);
type = Stem;
},
{
horizontal = 1;
place = (64, 192);
place = (64, 192);
type = Stem;
},
{
horizontal = 1;
place = (256, 64);
place = (256, 64);
type = Stem;
}
);
layerId = m01;
shapes = (
{
closed = 1;
nodes = (
(256,768,l),
(128,768,l),
(128,704,l),
(256,704,l)
);
},
{
closed = 1;
nodes = (
(128,576,l),
(128,704,l),
(64,704,l),
(64,576,l)
);
},
{
closed = 1;
nodes = (
(320,576,l),
(320,704,l),
(256,704,l),
(256,576,l)
);
},
{
closed = 1;
nodes = (
(128,576,l),
(128,512,l),
(256,512,l),
(256,576,l)
);
},
{
closed = 1;
nodes = (
(384,0,l),
(384,384,l),
(320,384,l),
(320,448,l),
(64,448,l),
(64,384,l),
(0,384,l),
(0,320,l),
(64,320,l),
(64,256,l),
(0,256,l),
(0,64,l),
(64,64,l),
(64,0,l)
);
},
{
closed = 1;
nodes = (
(256,320,l),
(64,320,l),
(64,384,l),
(256,384,l)
);
},
{
closed = 1;
nodes = (
(128,64,l),
(128,256,l),
(256,256,l),
(256,64,l)
);
}
);
width = 512;
}
);
note = aring;
unicode = 229;
},
{
glyphname = atilde;
layers = (
{
hints = (
{
horizontal = 1;
place = (576, 64);
place = (576, 64);
type = Stem;
},
{
place = (64, 128);
place = (64, 128);
type = Stem;
},
{
place = (320, 64);
place = (320, 64);
type = Stem;
},
{
horizontal = 1;
place = (512, 64);
place = (512, 64);
type = Stem;
},
{
place = (0, 64);
place = (0, 64);
type = Stem;
},
{
place = (192, 128);
place = (192, 128);
type = Stem;
},
{
horizontal = 1;
place = (0, 64);
place = (0, 64);
type = Stem;
},
{
horizontal = 1;
place = (384, 64);
place = (384, 64);
type = Stem;
},
{
place = (256, 128);
place = (256, 128);
type = Stem;
},
{
place = (64, 64);
place = (64, 64);
type = Stem;
},
{
place = (256, 64);
place = (256, 64);
type = Stem;
},
{
horizontal = 1;
place = (320, 64);
place = (320, 64);
type = Stem;
},
{
horizontal = 1;
place = (64, 192);
place = (64, 192);
type = Stem;
},
{
horizontal = 1;
place = (256, 64);
place = (256, 64);
type = Stem;
}
);
layerId = m01;
shapes = (
{
closed = 1;
nodes = (
(192,640,l),
(64,640,l),
(64,576,l),
(192,576,l)
);
},
{
closed = 1;
nodes = (
(384,576,l),
(384,640,l),
(320,640,l),
(320,576,l)
);
},
{
closed = 1;
nodes = (
(64,512,l),
(64,576,l),
(0,576,l),
(0,512,l)
);
},
{
closed = 1;
nodes = (
(192,576,l),
(192,512,l),
(320,512,l),
(320,576,l)
);
},
{
closed = 1;
nodes = (
(384,0,l),
(384,384,l),
(320,384,l),
(320,448,l),
(64,448,l),
(64,384,l),
(0,384,l),
(0,320,l),
(64,320,l),
(64,256,l),
(0,256,l),
(0,64,l),
(64,64,l),
(64,0,l)
);
},
{
closed = 1;
nodes = (
(256,320,l),
(64,320,l),
(64,384,l),
(256,384,l)
);
},
{
closed = 1;
nodes = (
(128,64,l),
(128,256,l),
(256,256,l),
(256,64,l)
);
}
);
width = 512;
}
);
note = atilde;
unicode = 227;
},
{
glyphname = ae;
layers = (
{
hints = (
{
horizontal = 1;
place = (0, 64);
place = (0, 64);
type = Stem;
},
{
horizontal = 1;
place = (256, 64);
place = (256, 64);
type = Stem;
},
{
horizontal = 1;
place = (384, 64);
place = (384, 64);
type = Stem;
},
{
place = (64, 64);
place = (64, 64);
type = Stem;
},
{
place = (256, 128);
place = (256, 128);
type = Stem;
},
{
place = (576, 64);
place = (576, 64);
type = Stem;
},
{
horizontal = 1;
place = (192, 64);
place = (192, 64);
type = Stem;
},
{
place = (512, 64);
place = (512, 64);
type = Stem;
},
{
horizontal = 1;
place = (256, 192);
place = (256, 192);
type = Stem;
},
{
horizontal = 1;
place = (256, 128);
place = (256, 128);
type = Stem;
},
{
horizontal = 1;
place = (320, 64);
place = (320, 64);
type = Stem;
},
{
place = (0, 64);
place = (0, 64);
type = Stem;
},
{
horizontal = 1;
place = (64, 128);
place = (64, 128);
type = Stem;
},
{
horizontal = 1;
place = (64, 64);
place = (64, 64);
type = Stem;
}
);
layerId = m01;
shapes = (
{
closed = 1;
nodes = (
(576,64,l),
(384,64,l),
(384,192,l),
(512,192,l),
(512,256,l),
(384,256,l),
(384,384,l),
(512,384,l),
(512,256,l),
(640,256,l),
(640,384,l),
(576,384,l),
(576,448,l),
(64,448,l),
(64,384,l),
(0,384,l),
(0,320,l),
(64,320,l),
(64,192,l),
(0,192,l),
(0,64,l),
(64,64,l),
(64,0,l),
(576,0,l)
);
},
{
closed = 1;
nodes = (
(256,320,l),
(64,320,l),
(64,384,l),
(256,384,l)
);
},
{
closed = 1;
nodes = (
(128,64,l),
(128,256,l),
(256,256,l),
(256,64,l)
);
},
{
closed = 1;
nodes = (
(640,64,l),
(640,128,l),
(576,128,l),
(576,64,l)
);
}
);
width = 768;
}
);
note = ae;
unicode = 230;
},
{
glyphname = b;
layers = (
{
hints = (
{
horizontal = 1;
place = (0, 64);
place = (0, 64);
type = Stem;
},
{
horizontal = 1;
place = (384, 64);
place = (384, 64);
type = Stem;
},
{
place = (0, 128);
place = (0, 128);
type = Stem;
},
{
place = (256, 64);
place = (256, 64);
type = Stem;
},
{
place = (256, 128);
place = (256, 128);
type = Stem;
}
);
layerId = m01;
shapes = (
{
closed = 1;
nodes = (
(320,0,l),
(320,64,l),
(384,64,l),
(384,384,l),
(320,384,l),
(320,448,l),
(128,448,l),
(128,576,l),
(0,576,l),
(0,0,l)
);
},
{
closed = 1;
nodes = (
(128,64,l),
(128,384,l),
(256,384,l),
(256,64,l)
);
}
);
width = 512;
}
);
note = b;
unicode = 98;
},
{
glyphname = c;
layers = (
{
hints = (
{
horizontal = 1;
place = (0, 64);
place = (0, 64);
type = Stem;
},
{
horizontal = 1;
place = (384, 64);
place = (384, 64);
type = Stem;
},
{
place = (0, 128);
place = (0, 128);
type = Stem;
},
{
place = (256, 64);
place = (256, 64);
type = Stem;
},
{
place = (64, 64);
place = (64, 64);
type = Stem;
},
{
horizontal = 1;
place = (320, 64);
place = (320, 64);
type = Stem;
},
{
horizontal = 1;
place = (64, 64);
place = (64, 64);
type = Stem;
}
);
layerId = m01;
shapes = (
{
closed = 1;
nodes = (
(128,64,l),
(128,384,l),
(256,384,l),
(256,448,l),
(64,448,l),
(64,384,l),
(0,384,l),
(0,64,l),
(64,64,l),
(64,0,l),
(256,0,l),
(256,64,l)
);
},
{
closed = 1;
nodes = (
(320,320,l),
(320,384,l),
(256,384,l),
(256,320,l)
);
},
{
closed = 1;
nodes = (
(320,64,l),
(320,128,l),
(256,128,l),
(256,64,l)
);
}
);
width = 448;
}
);
note = c;
unicode = 99;
},
{
glyphname = ccedilla;
layers = (
{
hints = (
{
horizontal = 1;
place = (-192, 64);
place = (-192, 64);
type = Stem;
},
{
horizontal = 1;
place = (0, 64);
place = (0, 64);
type = Stem;
},
{
horizontal = 1;
place = (384, 64);
place = (384, 64);
type = Stem;
},
{
place = (0, 128);
place = (0, 128);
type = Stem;
},
{
place = (192, 64);
place = (192, 64);
type = Stem;
},
{
place = (320, 64);
place = (320, 64);
type = Stem;
},
{
place = (64, 64);
place = (64, 64);
type = Stem;
},
{
place = (128, 64);
place = (128, 64);
type = Stem;
},
{
horizontal = 1;
place = (64, 64);
place = (64, 64);
type = Stem;
},
{
horizontal = 1;
place = (320, 64);
place = (320, 64);
type = Stem;
}
);
layerId = m01;
shapes = (
{
closed = 1;
nodes = (
(256,-128,l),
(256,0,l),
(320,0,l),
(320,64,l),
(128,64,l),
(128,384,l),
(320,384,l),
(320,448,l),
(64,448,l),
(64,384,l),
(0,384,l),
(0,64,l),
(64,64,l),
(64,0,l),
(128,0,l),
(128,-64,l),
(192,-64,l),
(192,-128,l)
);
},
{
closed = 1;
nodes = (
(384,320,l),
(384,384,l),
(320,384,l),
(320,320,l)
);
},
{
closed = 1;
nodes = (
(384,64,l),
(384,128,l),
(320,128,l),
(320,64,l)
);
},
{
closed = 1;
nodes = (
(192,-192,l),
(192,-128,l),
(128,-128,l),
(128,-192,l)
);
}
);
width = 512;
}
);
note = ccedilla;
unicode = 231;
},
{
glyphname = d;
layers = (
{
hints = (
{
horizontal = 1;
place = (0, 64);
place = (0, 64);
type = Stem;
},
{
horizontal = 1;
place = (384, 64);
place = (384, 64);
type = Stem;
},
{
place = (0, 128);
place = (0, 128);
type = Stem;
},
{
place = (256, 128);
place = (256, 128);
type = Stem;
},
{
place = (64, 64);
place = (64, 64);
type = Stem;
}
);
layerId = m01;
shapes = (
{
closed = 1;
nodes = (
(384,0,l),
(384,576,l),
(256,576,l),
(256,448,l),
(64,448,l),
(64,384,l),
(0,384,l),
(0,64,l),
(64,64,l),
(64,0,l)
);
},
{
closed = 1;
nodes = (
(128,64,l),
(128,384,l),
(256,384,l),
(256,64,l)
);
}
);
width = 512;
}
);
note = d;
unicode = 100;
},
{
glyphname = e;
layers = (
{
hints = (
{
horizontal = 1;
place = (0, 64);
place = (0, 64);
type = Stem;
},
{
horizontal = 1;
place = (192, 64);
place = (192, 64);
type = Stem;
},
{
horizontal = 1;
place = (384, 64);
place = (384, 64);
type = Stem;
},
{
place = (0, 128);
place = (0, 128);
type = Stem;
},
{
place = (256, 128);
place = (256, 128);
type = Stem;
},
{
horizontal = 1;
place = (192, 192);
place = (192, 192);
type = Stem;
},
{
place = (256, 64);
place = (256, 64);
type = Stem;
},
{
place = (64, 64);
place = (64, 64);
type = Stem;
},
{
horizontal = 1;
place = (64, 64);
place = (64, 64);
type = Stem;
},
{
place = (320, 64);
place = (320, 64);
type = Stem;
}
);
layerId = m01;
shapes = (
{
closed = 1;
nodes = (
(320,64,l),
(128,64,l),
(128,192,l),
(384,192,l),
(384,384,l),
(320,384,l),
(320,448,l),
(64,448,l),
(64,384,l),
(0,384,l),
(0,64,l),
(64,64,l),
(64,0,l),
(320,0,l)
);
},
{
closed = 1;
nodes = (
(128,256,l),
(128,384,l),
(256,384,l),
(256,256,l)
);
},
{
closed = 1;
nodes = (
(384,64,l),
(384,128,l),
(320,128,l),
(320,64,l)
);
}
);
width = 512;
}
);
note = e;
unicode = 101;
},
{
glyphname = eacute;
layers = (
{
hints = (
{
horizontal = 1;
place = (0, 64);
place = (0, 64);
type = Stem;
},
{
horizontal = 1;
place = (192, 64);
place = (192, 64);
type = Stem;
},
{
horizontal = 1;
place = (384, 64);
place = (384, 64);
type = Stem;
},
{
horizontal = 1;
place = (576, 64);
place = (576, 64);
type = Stem;
},
{
place = (0, 128);
place = (0, 128);
type = Stem;
},
{
place = (192, 64);
place = (192, 64);
type = Stem;
},
{
horizontal = 1;
place = (512, 64);
place = (512, 64);
type = Stem;
},
{
place = (128, 64);
place = (128, 64);
type = Stem;
},
{
place = (256, 128);
place = (256, 128);
type = Stem;
},
{
horizontal = 1;
place = (192, 192);
place = (192, 192);
type = Stem;
},
{
place = (256, 64);
place = (256, 64);
type = Stem;
},
{
place = (64, 64);
place = (64, 64);
type = Stem;
},
{
horizontal = 1;
place = (64, 64);
place = (64, 64);
type = Stem;
},
{
place = (320, 64);
place = (320, 64);
type = Stem;
}
);
layerId = m01;
shapes = (
{
closed = 1;
nodes = (
(192,576,l),
(256,576,l),
(256,640,l),
(192,640,l)
);
},
{
closed = 1;
nodes = (
(192,512,l),
(192,576,l),
(128,576,l),
(128,512,l)
);
},
{
closed = 1;
nodes = (
(320,64,l),
(128,64,l),
(128,192,l),
(384,192,l),
(384,384,l),
(320,384,l),
(320,448,l),
(64,448,l),
(64,384,l),
(0,384,l),
(0,64,l),
(64,64,l),
(64,0,l),
(320,0,l)
);
},
{
closed = 1;
nodes = (
(128,256,l),
(128,384,l),
(256,384,l),
(256,256,l)
);
},
{
closed = 1;
nodes = (
(320,64,l),
(384,64,l),
(384,128,l),
(320,128,l)
);
}
);
width = 512;
}
);
note = eacute;
unicode = 233;
},
{
glyphname = ecircumflex;
layers = (
{
hints = (
{
horizontal = 1;
place = (576, 64);
place = (576, 64);
type = Stem;
},
{
place = (128, 128);
place = (128, 128);
type = Stem;
},
{
horizontal = 1;
place = (512, 64);
place = (512, 64);
type = Stem;
},
{
place = (0, 128);
place = (0, 128);
type = Stem;
},
{
horizontal = 1;
place = (0, 64);
place = (0, 64);
type = Stem;
},
{
place = (64, 64);
place = (64, 64);
type = Stem;
},
{
place = (256, 64);
place = (256, 64);
type = Stem;
},
{
horizontal = 1;
place = (192, 64);
place = (192, 64);
type = Stem;
},
{
place = (256, 128);
place = (256, 128);
type = Stem;
},
{
horizontal = 1;
place = (192, 192);
place = (192, 192);
type = Stem;
},
{
horizontal = 1;
place = (384, 64);
place = (384, 64);
type = Stem;
},
{
horizontal = 1;
place = (64, 64);
place = (64, 64);
type = Stem;
},
{
place = (320, 64);
place = (320, 64);
type = Stem;
}
);
layerId = m01;
shapes = (
{
closed = 1;
nodes = (
(256,576,l),
(256,640,l),
(128,640,l),
(128,576,l)
);
},
{
closed = 1;
nodes = (
(128,512,l),
(128,576,l),
(64,576,l),
(64,512,l)
);
},
{
closed = 1;
nodes = (
(320,576,l),
(256,576,l),
(256,512,l),
(320,512,l)
);
},
{
closed = 1;
nodes = (
(320,64,l),
(128,64,l),
(128,192,l),
(384,192,l),
(384,384,l),
(320,384,l),
(320,448,l),
(64,448,l),
(64,384,l),
(0,384,l),
(0,64,l),
(64,64,l),
(64,0,l),
(320,0,l)
);
},
{
closed = 1;
nodes = (
(128,256,l),
(128,384,l),
(256,384,l),
(256,256,l)
);
},
{
closed = 1;
nodes = (
(320,64,l),
(384,64,l),
(384,128,l),
(320,128,l)
);
}
);
width = 512;
}
);
note = ecircumflex;
unicode = 234;
},
{
glyphname = edieresis;
layers = (
{
hints = (
{
horizontal = 1;
place = (0, 64);
place = (0, 64);
type = Stem;
},
{
horizontal = 1;
place = (192, 64);
place = (192, 64);
type = Stem;
},
{
horizontal = 1;
place = (384, 64);
place = (384, 64);
type = Stem;
},
{
horizontal = 1;
place = (512, 64);
place = (512, 64);
type = Stem;
},
{
place = (64, 64);
place = (64, 64);
type = Stem;
},
{
place = (256, 64);
place = (256, 64);
type = Stem;
},
{
place = (0, 128);
place = (0, 128);
type = Stem;
},
{
horizontal = 1;
place = (192, 192);
place = (192, 192);
type = Stem;
},
{
place = (256, 128);
place = (256, 128);
type = Stem;
},
{
horizontal = 1;
place = (64, 64);
place = (64, 64);
type = Stem;
},
{
place = (320, 64);
place = (320, 64);
type = Stem;
}
);
layerId = m01;
shapes = (
{
closed = 1;
nodes = (
(64,576,l),
(64,512,l),
(128,512,l),
(128,576,l)
);
},
{
closed = 1;
nodes = (
(256,576,l),
(256,512,l),
(320,512,l),
(320,576,l)
);
},
{
closed = 1;
nodes = (
(320,448,l),
(64,448,l),
(64,384,l),
(0,384,l),
(0,64,l),
(64,64,l),
(64,0,l),
(320,0,l),
(320,64,l),
(128,64,l),
(128,192,l),
(384,192,l),
(384,384,l),
(320,384,l)
);
},
{
closed = 1;
nodes = (
(256,256,l),
(128,256,l),
(128,384,l),
(256,384,l)
);
},
{
closed = 1;
nodes = (
(320,128,l),
(320,64,l),
(384,64,l),
(384,128,l)
);
}
);
width = 512;
}
);
note = edieresis;
unicode = 235;
},
{
glyphname = egrave;
layers = (
{
hints = (
{
horizontal = 1;
place = (0, 64);
place = (0, 64);
type = Stem;
},
{
horizontal = 1;
place = (192, 64);
place = (192, 64);
type = Stem;
},
{
horizontal = 1;
place = (384, 64);
place = (384, 64);
type = Stem;
},
{
horizontal = 1;
place = (576, 64);
place = (576, 64);
type = Stem;
},
{
place = (128, 64);
place = (128, 64);
type = Stem;
},
{
place = (256, 128);
place = (256, 128);
type = Stem;
},
{
horizontal = 1;
place = (512, 64);
place = (512, 64);
type = Stem;
},
{
place = (0, 128);
place = (0, 128);
type = Stem;
},
{
place = (192, 64);
place = (192, 64);
type = Stem;
},
{
horizontal = 1;
place = (192, 192);
place = (192, 192);
type = Stem;
},
{
place = (256, 64);
place = (256, 64);
type = Stem;
},
{
place = (64, 64);
place = (64, 64);
type = Stem;
},
{
horizontal = 1;
place = (64, 64);
place = (64, 64);
type = Stem;
},
{
place = (320, 64);
place = (320, 64);
type = Stem;
}
);
layerId = m01;
shapes = (
{
closed = 1;
nodes = (
(192,576,l),
(192,640,l),
(128,640,l),
(128,576,l)
);
},
{
closed = 1;
nodes = (
(256,512,l),
(256,576,l),
(192,576,l),
(192,512,l)
);
},
{
closed = 1;
nodes = (
(320,64,l),
(128,64,l),
(128,192,l),
(384,192,l),
(384,384,l),
(320,384,l),
(320,448,l),
(64,448,l),
(64,384,l),
(0,384,l),
(0,64,l),
(64,64,l),
(64,0,l),
(320,0,l)
);
},
{
closed = 1;
nodes = (
(128,256,l),
(128,384,l),
(256,384,l),
(256,256,l)
);
},
{
closed = 1;
nodes = (
(320,64,l),
(384,64,l),
(384,128,l),
(320,128,l)
);
}
);
width = 512;
}
);
note = egrave;
unicode = 232;
},
{
glyphname = f;
layers = (
{
hints = (
{
horizontal = 1;
place = (384, 64);
place = (384, 64);
type = Stem;
},
{
horizontal = 1;
place = (512, 64);
place = (512, 64);
type = Stem;
},
{
place = (64, 128);
place = (64, 128);
type = Stem;
},
{
place = (128, 64);
place = (128, 64);
type = Stem;
}
);
layerId = m01;
shapes = (
{
closed = 1;
nodes = (
(192,0,l),
(192,384,l),
(256,384,l),
(256,448,l),
(192,448,l),
(192,512,l),
(320,512,l),
(320,576,l),
(128,576,l),
(128,512,l),
(64,512,l),
(64,448,l),
(0,448,l),
(0,384,l),
(64,384,l),
(64,0,l)
);
}
);
width = 448;
}
);
note = f;
unicode = 102;
},
{
glyphname = g;
layers = (
{
hints = (
{
horizontal = 1;
place = (-192, 64);
place = (-192, 64);
type = Stem;
},
{
horizontal = 1;
place = (0, 64);
place = (0, 64);
type = Stem;
},
{
horizontal = 1;
place = (384, 64);
place = (384, 64);
type = Stem;
},
{
place = (0, 128);
place = (0, 128);
type = Stem;
},
{
place = (256, 64);
place = (256, 64);
type = Stem;
},
{
place = (64, 64);
place = (64, 64);
type = Stem;
},
{
place = (256, 128);
place = (256, 128);
type = Stem;
},
{
horizontal = 1;
place = (-128, 64);
place = (-128, 64);
type = Stem;
},
{
place = (0, 64);
place = (0, 64);
type = Stem;
}
);
layerId = m01;
shapes = (
{
closed = 1;
nodes = (
(320,-192,l),
(320,-128,l),
(384,-128,l),
(384,448,l),
(64,448,l),
(64,384,l),
(0,384,l),
(0,64,l),
(64,64,l),
(64,0,l),
(256,0,l),
(256,-128,l),
(64,-128,l),
(64,-192,l)
);
},
{
closed = 1;
nodes = (
(128,64,l),
(128,384,l),
(256,384,l),
(256,64,l)
);
},
{
closed = 1;
nodes = (
(64,-64,l),
(0,-64,l),
(0,-128,l),
(64,-128,l)
);
}
);
width = 512;
}
);
note = g;
unicode = 103;
},
{
glyphname = h;
layers = (
{
hints = (
{
horizontal = 1;
place = (384, 64);
place = (384, 64);
type = Stem;
},
{
place = (0, 128);
place = (0, 128);
type = Stem;
},
{
place = (256, 128);
place = (256, 128);
type = Stem;
},
{
place = (256, 64);
place = (256, 64);
type = Stem;
}
);
layerId = m01;
shapes = (
{
closed = 1;
nodes = (
(384,0,l),
(384,384,l),
(320,384,l),
(320,448,l),
(128,448,l),
(128,576,l),
(0,576,l),
(0,0,l),
(128,0,l),
(128,384,l),
(256,384,l),
(256,0,l)
);
}
);
width = 512;
}
);
note = h;
unicode = 104;
},
{
glyphname = i;
layers = (
{
hints = (
{
horizontal = 1;
place = (512, 64);
place = (512, 64);
type = Stem;
},
{
place = (0, 128);
place = (0, 128);
type = Stem;
}
);
layerId = m01;
shapes = (
{
closed = 1;
nodes = (
(0,576,l),
(0,512,l),
(128,512,l),
(128,576,l)
);
},
{
closed = 1;
nodes = (
(128,0,l),
(128,448,l),
(0,448,l),
(0,0,l)
);
}
);
width = 256;
}
);
note = i;
unicode = 105;
},
{
glyphname = iacute;
layers = (
{
hints = (
{
horizontal = 1;
place = (576, 64);
place = (576, 64);
type = Stem;
},
{
place = (0, 128);
place = (0, 128);
type = Stem;
},
{
place = (64, 64);
place = (64, 64);
type = Stem;
},
{
horizontal = 1;
place = (512, 64);
place = (512, 64);
type = Stem;
},
{
place = (0, 64);
place = (0, 64);
type = Stem;
}
);
layerId = m01;
shapes = (
{
closed = 1;
nodes = (
(128,576,l),
(128,640,l),
(64,640,l),
(64,576,l)
);
},
{
closed = 1;
nodes = (
(64,512,l),
(64,576,l),
(0,576,l),
(0,512,l)
);
},
{
closed = 1;
nodes = (
(128,0,l),
(128,448,l),
(0,448,l),
(0,0,l)
);
}
);
width = 256;
}
);
note = iacute;
unicode = 237;
},
{
glyphname = icircumflex;
layers = (
{
hints = (
{
horizontal = 1;
place = (576, 64);
place = (576, 64);
type = Stem;
},
{
place = (64, 128);
place = (64, 128);
type = Stem;
},
{
horizontal = 1;
place = (512, 64);
place = (512, 64);
type = Stem;
},
{
place = (0, 64);
place = (0, 64);
type = Stem;
},
{
place = (192, 64);
place = (192, 64);
type = Stem;
}
);
layerId = m01;
shapes = (
{
closed = 1;
nodes = (
(192,640,l),
(64,640,l),
(64,576,l),
(192,576,l)
);
},
{
closed = 1;
nodes = (
(64,512,l),
(64,576,l),
(0,576,l),
(0,512,l)
);
},
{
closed = 1;
nodes = (
(256,512,l),
(256,576,l),
(192,576,l),
(192,512,l)
);
},
{
closed = 1;
nodes = (
(192,0,l),
(192,448,l),
(64,448,l),
(64,0,l)
);
}
);
width = 384;
}
);
note = icircumflex;
unicode = 238;
},
{
glyphname = idieresis;
layers = (
{
hints = (
{
horizontal = 1;
place = (512, 64);
place = (512, 64);
type = Stem;
},
{
place = (0, 64);
place = (0, 64);
type = Stem;
},
{
place = (192, 64);
place = (192, 64);
type = Stem;
},
{
place = (64, 128);
place = (64, 128);
type = Stem;
}
);
layerId = m01;
shapes = (
{
closed = 1;
nodes = (
(64,512,l),
(64,576,l),
(0,576,l),
(0,512,l)
);
},
{
closed = 1;
nodes = (
(256,512,l),
(256,576,l),
(192,576,l),
(192,512,l)
);
},
{
closed = 1;
nodes = (
(192,0,l),
(192,448,l),
(64,448,l),
(64,0,l)
);
}
);
width = 384;
}
);
note = idieresis;
unicode = 239;
},
{
glyphname = igrave;
layers = (
{
hints = (
{
horizontal = 1;
place = (576, 64);
place = (576, 64);
type = Stem;
},
{
place = (0, 64);
place = (0, 64);
type = Stem;
},
{
place = (0, 128);
place = (0, 128);
type = Stem;
},
{
horizontal = 1;
place = (512, 64);
place = (512, 64);
type = Stem;
},
{
place = (64, 64);
place = (64, 64);
type = Stem;
}
);
layerId = m01;
shapes = (
{
closed = 1;
nodes = (
(64,640,l),
(0,640,l),
(0,576,l),
(64,576,l)
);
},
{
closed = 1;
nodes = (
(128,512,l),
(128,576,l),
(64,576,l),
(64,512,l)
);
},
{
closed = 1;
nodes = (
(128,0,l),
(128,448,l),
(0,448,l),
(0,0,l)
);
}
);
width = 256;
}
);
note = igrave;
unicode = 236;
},
{
glyphname = j;
layers = (
{
hints = (
{
horizontal = 1;
place = (-192, 64);
place = (-192, 64);
type = Stem;
},
{
horizontal = 1;
place = (512, 64);
place = (512, 64);
type = Stem;
},
{
place = (0, 64);
place = (0, 64);
type = Stem;
},
{
place = (192, 128);
place = (192, 128);
type = Stem;
},
{
place = (192, 64);
place = (192, 64);
type = Stem;
},
{
horizontal = 1;
place = (-128, 64);
place = (-128, 64);
type = Stem;
}
);
layerId = m01;
shapes = (
{
closed = 1;
nodes = (
(192,576,l),
(192,512,l),
(320,512,l),
(320,576,l)
);
},
{
closed = 1;
nodes = (
(256,-192,l),
(256,-128,l),
(320,-128,l),
(320,448,l),
(192,448,l),
(192,-128,l),
(64,-128,l),
(64,-192,l)
);
},
{
closed = 1;
nodes = (
(64,-128,l),
(64,-64,l),
(0,-64,l),
(0,-128,l)
);
}
);
width = 448;
}
);
note = j;
unicode = 106;
},
{
glyphname = k;
layers = (
{
hints = (
{
horizontal = 1;
place = (0, 64);
place = (0, 64);
type = Stem;
},
{
horizontal = 1;
place = (128, 64);
place = (128, 64);
type = Stem;
},
{
horizontal = 1;
place = (320, 64);
place = (320, 64);
type = Stem;
},
{
place = (0, 128);
place = (0, 128);
type = Stem;
},
{
place = (192, 64);
place = (192, 64);
type = Stem;
},
{
place = (256, 64);
place = (256, 64);
type = Stem;
},
{
horizontal = 1;
place = (256, 64);
place = (256, 64);
type = Stem;
},
{
horizontal = 1;
place = (384, 64);
place = (384, 64);
type = Stem;
},
{
horizontal = 1;
place = (0, 128);
place = (0, 128);
type = Stem;
},
{
horizontal = 1;
place = (64, 64);
place = (64, 64);
type = Stem;
},
{
place = (0, 192);
place = (0, 192);
type = Stem;
}
);
layerId = m01;
shapes = (
{
closed = 1;
nodes = (
(256,320,l),
(320,320,l),
(320,384,l),
(384,384,l),
(384,448,l),
(256,448,l),
(256,384,l),
(192,384,l),
(192,320,l),
(128,320,l),
(128,576,l),
(0,576,l),
(0,0,l),
(128,0,l),
(128,128,l),
(192,128,l),
(192,64,l),
(256,64,l),
(256,0,l),
(384,0,l),
(384,64,l),
(320,64,l),
(320,128,l),
(256,128,l),
(256,192,l),
(192,192,l),
(192,256,l),
(256,256,l)
);
}
);
width = 512;
}
);
note = k;
unicode = 107;
},
{
glyphname = l;
layers = (
{
hints = (
{
horizontal = 1;
place = (0, 576);
place = (0, 576);
type = Stem;
},
{
place = (0, 128);
place = (0, 128);
type = Stem;
}
);
layerId = m01;
shapes = (
{
closed = 1;
nodes = (
(128,0,l),
(128,576,l),
(0,576,l),
(0,0,l)
);
}
);
width = 256;
}
);
note = l;
unicode = 108;
},
{
glyphname = m;
layers = (
{
hints = (
{
horizontal = 1;
place = (384, 64);
place = (384, 64);
type = Stem;
},
{
place = (0, 128);
place = (0, 128);
type = Stem;
},
{
place = (256, 128);
place = (256, 128);
type = Stem;
},
{
place = (512, 128);
place = (512, 128);
type = Stem;
},
{
place = (512, 64);
place = (512, 64);
type = Stem;
}
);
layerId = m01;
shapes = (
{
closed = 1;
nodes = (
(640,0,l),
(640,384,l),
(576,384,l),
(576,448,l),
(0,448,l),
(0,0,l),
(128,0,l),
(128,384,l),
(256,384,l),
(256,0,l),
(384,0,l),
(384,384,l),
(512,384,l),
(512,0,l)
);
}
);
width = 768;
}
);
note = m;
unicode = 109;
},
{
glyphname = n;
layers = (
{
hints = (
{
horizontal = 1;
place = (384, 64);
place = (384, 64);
type = Stem;
},
{
place = (0, 128);
place = (0, 128);
type = Stem;
},
{
place = (256, 128);
place = (256, 128);
type = Stem;
},
{
place = (256, 64);
place = (256, 64);
type = Stem;
}
);
layerId = m01;
shapes = (
{
closed = 1;
nodes = (
(384,0,l),
(384,384,l),
(320,384,l),
(320,448,l),
(0,448,l),
(0,0,l),
(128,0,l),
(128,384,l),
(256,384,l),
(256,0,l)
);
}
);
width = 512;
}
);
note = n;
unicode = 110;
},
{
glyphname = ntilde;
layers = (
{
hints = (
{
horizontal = 1;
place = (384, 64);
place = (384, 64);
type = Stem;
},
{
horizontal = 1;
place = (576, 64);
place = (576, 64);
type = Stem;
},
{
place = (64, 128);
place = (64, 128);
type = Stem;
},
{
place = (320, 64);
place = (320, 64);
type = Stem;
},
{
horizontal = 1;
place = (512, 64);
place = (512, 64);
type = Stem;
},
{
place = (0, 64);
place = (0, 64);
type = Stem;
},
{
place = (256, 128);
place = (256, 128);
type = Stem;
},
{
place = (0, 128);
place = (0, 128);
type = Stem;
},
{
place = (192, 128);
place = (192, 128);
type = Stem;
},
{
place = (256, 64);
place = (256, 64);
type = Stem;
}
);
layerId = m01;
shapes = (
{
closed = 1;
nodes = (
(192,640,l),
(64,640,l),
(64,576,l),
(192,576,l)
);
},
{
closed = 1;
nodes = (
(384,576,l),
(384,640,l),
(320,640,l),
(320,576,l)
);
},
{
closed = 1;
nodes = (
(64,512,l),
(64,576,l),
(0,576,l),
(0,512,l)
);
},
{
closed = 1;
nodes = (
(192,576,l),
(192,512,l),
(320,512,l),
(320,576,l)
);
},
{
closed = 1;
nodes = (
(384,0,l),
(384,384,l),
(320,384,l),
(320,448,l),
(0,448,l),
(0,0,l),
(128,0,l),
(128,384,l),
(256,384,l),
(256,0,l)
);
}
);
width = 512;
}
);
note = ntilde;
unicode = 241;
},
{
glyphname = o;
layers = (
{
hints = (
{
horizontal = 1;
place = (0, 64);
place = (0, 64);
type = Stem;
},
{
horizontal = 1;
place = (384, 64);
place = (384, 64);
type = Stem;
},
{
place = (0, 128);
place = (0, 128);
type = Stem;
},
{
place = (256, 64);
place = (256, 64);
type = Stem;
},
{
place = (256, 128);
place = (256, 128);
type = Stem;
},
{
place = (64, 64);
place = (64, 64);
type = Stem;
}
);
layerId = m01;
shapes = (
{
closed = 1;
nodes = (
(320,0,l),
(320,64,l),
(384,64,l),
(384,384,l),
(320,384,l),
(320,448,l),
(64,448,l),
(64,384,l),
(0,384,l),
(0,64,l),
(64,64,l),
(64,0,l)
);
},
{
closed = 1;
nodes = (
(128,64,l),
(128,384,l),
(256,384,l),
(256,64,l)
);
}
);
width = 512;
}
);
note = o;
unicode = 111;
},
{
glyphname = oacute;
layers = (
{
hints = (
{
horizontal = 1;
place = (0, 64);
place = (0, 64);
type = Stem;
},
{
horizontal = 1;
place = (384, 64);
place = (384, 64);
type = Stem;
},
{
horizontal = 1;
place = (576, 64);
place = (576, 64);
type = Stem;
},
{
place = (0, 128);
place = (0, 128);
type = Stem;
},
{
place = (195, 64);
place = (195, 64);
type = Stem;
},
{
horizontal = 1;
place = (512, 64);
place = (512, 64);
type = Stem;
},
{
place = (131, 64);
place = (131, 64);
type = Stem;
},
{
place = (256, 64);
place = (256, 64);
type = Stem;
},
{
place = (256, 128);
place = (256, 128);
type = Stem;
},
{
place = (64, 64);
place = (64, 64);
type = Stem;
}
);
layerId = m01;
shapes = (
{
closed = 1;
nodes = (
(195,576,l),
(259,576,l),
(259,640,l),
(195,640,l)
);
},
{
closed = 1;
nodes = (
(195,512,l),
(195,576,l),
(131,576,l),
(131,512,l)
);
},
{
closed = 1;
nodes = (
(320,0,l),
(320,64,l),
(384,64,l),
(384,384,l),
(320,384,l),
(320,448,l),
(64,448,l),
(64,384,l),
(0,384,l),
(0,64,l),
(64,64,l),
(64,0,l)
);
},
{
closed = 1;
nodes = (
(128,64,l),
(128,384,l),
(256,384,l),
(256,64,l)
);
}
);
width = 512;
}
);
note = oacute;
unicode = 243;
},
{
glyphname = ocircumflex;
layers = (
{
hints = (
{
horizontal = 1;
place = (0, 64);
place = (0, 64);
type = Stem;
},
{
horizontal = 1;
place = (384, 64);
place = (384, 64);
type = Stem;
},
{
horizontal = 1;
place = (576, 64);
place = (576, 64);
type = Stem;
},
{
place = (128, 128);
place = (128, 128);
type = Stem;
},
{
horizontal = 1;
place = (512, 64);
place = (512, 64);
type = Stem;
},
{
place = (64, 64);
place = (64, 64);
type = Stem;
},
{
place = (256, 64);
place = (256, 64);
type = Stem;
},
{
place = (256, 128);
place = (256, 128);
type = Stem;
},
{
place = (0, 128);
place = (0, 128);
type = Stem;
}
);
layerId = m01;
shapes = (
{
closed = 1;
nodes = (
(256,576,l),
(256,640,l),
(128,640,l),
(128,576,l)
);
},
{
closed = 1;
nodes = (
(128,512,l),
(128,576,l),
(64,576,l),
(64,512,l)
);
},
{
closed = 1;
nodes = (
(320,576,l),
(256,576,l),
(256,512,l),
(320,512,l)
);
},
{
closed = 1;
nodes = (
(320,0,l),
(320,64,l),
(384,64,l),
(384,384,l),
(320,384,l),
(320,448,l),
(64,448,l),
(64,384,l),
(0,384,l),
(0,64,l),
(64,64,l),
(64,0,l)
);
},
{
closed = 1;
nodes = (
(128,64,l),
(128,384,l),
(256,384,l),
(256,64,l)
);
}
);
width = 512;
}
);
note = ocircumflex;
unicode = 244;
},
{
glyphname = odieresis;
layers = (
{
hints = (
{
horizontal = 1;
place = (0, 64);
place = (0, 64);
type = Stem;
},
{
horizontal = 1;
place = (384, 64);
place = (384, 64);
type = Stem;
},
{
horizontal = 1;
place = (512, 64);
place = (512, 64);
type = Stem;
},
{
place = (64, 64);
place = (64, 64);
type = Stem;
},
{
place = (256, 64);
place = (256, 64);
type = Stem;
},
{
place = (0, 128);
place = (0, 128);
type = Stem;
},
{
place = (256, 128);
place = (256, 128);
type = Stem;
}
);
layerId = m01;
shapes = (
{
closed = 1;
nodes = (
(64,576,l),
(64,512,l),
(128,512,l),
(128,576,l)
);
},
{
closed = 1;
nodes = (
(256,576,l),
(256,512,l),
(320,512,l),
(320,576,l)
);
},
{
closed = 1;
nodes = (
(320,448,l),
(64,448,l),
(64,384,l),
(0,384,l),
(0,64,l),
(64,64,l),
(64,0,l),
(320,0,l),
(320,64,l),
(384,64,l),
(384,384,l),
(320,384,l)
);
},
{
closed = 1;
nodes = (
(256,384,l),
(256,64,l),
(128,64,l),
(128,384,l)
);
}
);
width = 512;
}
);
note = odieresis;
unicode = 246;
},
{
glyphname = ograve;
layers = (
{
hints = (
{
horizontal = 1;
place = (0, 64);
place = (0, 64);
type = Stem;
},
{
horizontal = 1;
place = (384, 64);
place = (384, 64);
type = Stem;
},
{
horizontal = 1;
place = (576, 64);
place = (576, 64);
type = Stem;
},
{
place = (131, 64);
place = (131, 64);
type = Stem;
},
{
place = (256, 128);
place = (256, 128);
type = Stem;
},
{
horizontal = 1;
place = (512, 64);
place = (512, 64);
type = Stem;
},
{
place = (0, 128);
place = (0, 128);
type = Stem;
},
{
place = (195, 64);
place = (195, 64);
type = Stem;
},
{
place = (256, 64);
place = (256, 64);
type = Stem;
},
{
place = (64, 64);
place = (64, 64);
type = Stem;
}
);
layerId = m01;
shapes = (
{
closed = 1;
nodes = (
(195,576,l),
(195,640,l),
(131,640,l),
(131,576,l)
);
},
{
closed = 1;
nodes = (
(259,512,l),
(259,576,l),
(195,576,l),
(195,512,l)
);
},
{
closed = 1;
nodes = (
(320,0,l),
(320,64,l),
(384,64,l),
(384,384,l),
(320,384,l),
(320,448,l),
(64,448,l),
(64,384,l),
(0,384,l),
(0,64,l),
(64,64,l),
(64,0,l)
);
},
{
closed = 1;
nodes = (
(128,64,l),
(128,384,l),
(256,384,l),
(256,64,l)
);
}
);
width = 512;
}
);
note = ograve;
unicode = 242;
},
{
glyphname = oslash;
layers = (
{
hints = (
{
horizontal = 1;
place = (0, 64);
place = (0, 64);
type = Stem;
},
{
horizontal = 1;
place = (192, 64);
place = (192, 64);
type = Stem;
},
{
horizontal = 1;
place = (384, 64);
place = (384, 64);
type = Stem;
},
{
place = (64, 128);
place = (64, 128);
type = Stem;
},
{
place = (320, 64);
place = (320, 64);
type = Stem;
},
{
place = (320, 128);
place = (320, 128);
type = Stem;
},
{
place = (128, 64);
place = (128, 64);
type = Stem;
},
{
place = (448, 64);
place = (448, 64);
type = Stem;
},
{
horizontal = 1;
place = (128, 64);
place = (128, 64);
type = Stem;
},
{
place = (0, 64);
place = (0, 64);
type = Stem;
}
);
layerId = m01;
shapes = (
{
closed = 1;
nodes = (
(384,0,l),
(384,64,l),
(448,64,l),
(448,384,l),
(384,384,l),
(384,448,l),
(128,448,l),
(128,384,l),
(64,384,l),
(64,64,l),
(128,64,l),
(128,0,l)
);
},
{
closed = 1;
nodes = (
(512,384,l),
(512,448,l),
(448,448,l),
(448,384,l)
);
},
{
closed = 1;
nodes = (
(192,64,l),
(192,128,l),
(256,128,l),
(256,192,l),
(192,192,l),
(192,384,l),
(320,384,l),
(320,256,l),
(256,256,l),
(256,192,l),
(320,192,l),
(320,64,l)
);
},
{
closed = 1;
nodes = (
(64,0,l),
(64,64,l),
(0,64,l),
(0,0,l)
);
}
);
width = 640;
}
);
note = oslash;
unicode = 248;
},
{
glyphname = otilde;
layers = (
{
hints = (
{
horizontal = 1;
place = (576, 64);
place = (576, 64);
type = Stem;
},
{
place = (64, 128);
place = (64, 128);
type = Stem;
},
{
place = (320, 64);
place = (320, 64);
type = Stem;
},
{
horizontal = 1;
place = (512, 64);
place = (512, 64);
type = Stem;
},
{
place = (0, 64);
place = (0, 64);
type = Stem;
},
{
place = (0, 128);
place = (0, 128);
type = Stem;
},
{
place = (192, 128);
place = (192, 128);
type = Stem;
},
{
horizontal = 1;
place = (0, 64);
place = (0, 64);
type = Stem;
},
{
place = (256, 64);
place = (256, 64);
type = Stem;
},
{
horizontal = 1;
place = (384, 64);
place = (384, 64);
type = Stem;
},
{
place = (256, 128);
place = (256, 128);
type = Stem;
},
{
place = (64, 64);
place = (64, 64);
type = Stem;
}
);
layerId = m01;
shapes = (
{
closed = 1;
nodes = (
(192,640,l),
(64,640,l),
(64,576,l),
(192,576,l)
);
},
{
closed = 1;
nodes = (
(384,576,l),
(384,640,l),
(320,640,l),
(320,576,l)
);
},
{
closed = 1;
nodes = (
(64,512,l),
(64,576,l),
(0,576,l),
(0,512,l)
);
},
{
closed = 1;
nodes = (
(192,576,l),
(192,512,l),
(320,512,l),
(320,576,l)
);
},
{
closed = 1;
nodes = (
(320,0,l),
(320,64,l),
(384,64,l),
(384,384,l),
(320,384,l),
(320,448,l),
(64,448,l),
(64,384,l),
(0,384,l),
(0,64,l),
(64,64,l),
(64,0,l)
);
},
{
closed = 1;
nodes = (
(128,64,l),
(128,384,l),
(256,384,l),
(256,64,l)
);
}
);
width = 512;
}
);
note = otilde;
unicode = 245;
},
{
glyphname = p;
layers = (
{
hints = (
{
horizontal = 1;
place = (0, 64);
place = (0, 64);
type = Stem;
},
{
horizontal = 1;
place = (384, 64);
place = (384, 64);
type = Stem;
},
{
place = (0, 128);
place = (0, 128);
type = Stem;
},
{
place = (256, 128);
place = (256, 128);
type = Stem;
},
{
place = (256, 64);
place = (256, 64);
type = Stem;
}
);
layerId = m01;
shapes = (
{
closed = 1;
nodes = (
(128,-128,l),
(128,0,l),
(320,0,l),
(320,64,l),
(384,64,l),
(384,384,l),
(320,384,l),
(320,448,l),
(0,448,l),
(0,-128,l)
);
},
{
closed = 1;
nodes = (
(128,64,l),
(128,384,l),
(256,384,l),
(256,64,l)
);
}
);
width = 512;
}
);
note = p;
unicode = 112;
},
{
glyphname = q;
layers = (
{
hints = (
{
horizontal = 1;
place = (0, 64);
place = (0, 64);
type = Stem;
},
{
horizontal = 1;
place = (384, 64);
place = (384, 64);
type = Stem;
},
{
place = (0, 128);
place = (0, 128);
type = Stem;
},
{
place = (256, 128);
place = (256, 128);
type = Stem;
},
{
place = (64, 64);
place = (64, 64);
type = Stem;
}
);
layerId = m01;
shapes = (
{
closed = 1;
nodes = (
(384,-128,l),
(384,448,l),
(64,448,l),
(64,384,l),
(0,384,l),
(0,64,l),
(64,64,l),
(64,0,l),
(256,0,l),
(256,-128,l)
);
},
{
closed = 1;
nodes = (
(128,64,l),
(128,384,l),
(256,384,l),
(256,64,l)
);
}
);
width = 512;
}
);
note = q;
unicode = 113;
},
{
glyphname = r;
layers = (
{
hints = (
{
horizontal = 1;
place = (384, 64);
place = (384, 64);
type = Stem;
},
{
place = (0, 128);
place = (0, 128);
type = Stem;
},
{
place = (192, 128);
place = (192, 128);
type = Stem;
},
{
horizontal = 1;
place = (320, 64);
place = (320, 64);
type = Stem;
}
);
layerId = m01;
shapes = (
{
closed = 1;
nodes = (
(128,448,l),
(0,448,l),
(0,0,l),
(128,0,l),
(128,320,l),
(192,320,l),
(192,384,l),
(128,384,l)
);
},
{
closed = 1;
nodes = (
(192,448,l),
(192,384,l),
(320,384,l),
(320,448,l)
);
}
);
width = 448;
}
);
note = r;
unicode = 114;
},
{
glyphname = s;
layers = (
{
hints = (
{
horizontal = 1;
place = (0, 64);
place = (0, 64);
type = Stem;
},
{
horizontal = 1;
place = (384, 64);
place = (384, 64);
type = Stem;
},
{
place = (0, 64);
place = (0, 64);
type = Stem;
},
{
place = (192, 64);
place = (192, 64);
type = Stem;
},
{
horizontal = 1;
place = (64, 128);
place = (64, 128);
type = Stem;
},
{
place = (256, 64);
place = (256, 64);
type = Stem;
},
{
horizontal = 1;
place = (192, 64);
place = (192, 64);
type = Stem;
},
{
place = (64, 128);
place = (64, 128);
type = Stem;
},
{
horizontal = 1;
place = (256, 64);
place = (256, 64);
type = Stem;
},
{
place = (64, 64);
place = (64, 64);
type = Stem;
},
{
place = (64, 192);
place = (64, 192);
type = Stem;
},
{
horizontal = 1;
place = (256, 128);
place = (256, 128);
type = Stem;
},
{
place = (128, 128);
place = (128, 128);
type = Stem;
},
{
horizontal = 1;
place = (128, 64);
place = (128, 64);
type = Stem;
},
{
horizontal = 1;
place = (64, 64);
place = (64, 64);
type = Stem;
},
{
horizontal = 1;
place = (320, 64);
place = (320, 64);
type = Stem;
}
);
layerId = m01;
shapes = (
{
closed = 1;
nodes = (
(256,0,l),
(256,64,l),
(320,64,l),
(320,192,l),
(256,192,l),
(256,256,l),
(192,256,l),
(192,320,l),
(128,320,l),
(128,384,l),
(256,384,l),
(256,448,l),
(64,448,l),
(64,384,l),
(0,384,l),
(0,256,l),
(64,256,l),
(64,192,l),
(128,192,l),
(128,128,l),
(192,128,l),
(192,64,l),
(64,64,l),
(64,0,l)
);
},
{
closed = 1;
nodes = (
(320,320,l),
(320,384,l),
(256,384,l),
(256,320,l)
);
},
{
closed = 1;
nodes = (
(64,128,l),
(0,128,l),
(0,64,l),
(64,64,l)
);
}
);
width = 448;
}
);
note = s;
unicode = 115;
},
{
glyphname = germandbls;
layers = (
{
hints = (
{
horizontal = 1;
place = (0, 64);
place = (0, 64);
type = Stem;
},
{
horizontal = 1;
place = (320, 64);
place = (320, 64);
type = Stem;
},
{
horizontal = 1;
place = (512, 64);
place = (512, 64);
type = Stem;
},
{
place = (64, 128);
place = (64, 128);
type = Stem;
},
{
place = (320, 64);
place = (320, 64);
type = Stem;
},
{
horizontal = 1;
place = (64, 256);
place = (64, 256);
type = Stem;
},
{
place = (320, 128);
place = (320, 128);
type = Stem;
},
{
horizontal = 1;
place = (384, 128);
place = (384, 128);
type = Stem;
},
{
place = (128, 64);
place = (128, 64);
type = Stem;
}
);
layerId = m01;
shapes = (
{
closed = 1;
nodes = (
(384,0,l),
(384,64,l),
(448,64,l),
(448,320,l),
(384,320,l),
(384,384,l),
(448,384,l),
(448,512,l),
(384,512,l),
(384,576,l),
(128,576,l),
(128,512,l),
(64,512,l),
(64,64,l),
(0,64,l),
(0,0,l),
(192,0,l),
(192,512,l),
(320,512,l),
(320,384,l),
(256,384,l),
(256,320,l),
(320,320,l),
(320,64,l),
(256,64,l),
(256,0,l)
);
}
);
width = 576;
}
);
note = germandbls;
unicode = 223;
},
{
glyphname = t;
layers = (
{
hints = (
{
horizontal = 1;
place = (0, 64);
place = (0, 64);
type = Stem;
},
{
horizontal = 1;
place = (384, 64);
place = (384, 64);
type = Stem;
},
{
place = (64, 128);
place = (64, 128);
type = Stem;
},
{
place = (128, 64);
place = (128, 64);
type = Stem;
}
);
layerId = m01;
shapes = (
{
closed = 1;
nodes = (
(256,0,l),
(256,64,l),
(192,64,l),
(192,384,l),
(256,384,l),
(256,448,l),
(192,448,l),
(192,576,l),
(64,576,l),
(64,448,l),
(0,448,l),
(0,384,l),
(64,384,l),
(64,64,l),
(128,64,l),
(128,0,l)
);
}
);
width = 384;
}
);
note = t;
unicode = 116;
},
{
glyphname = u;
layers = (
{
hints = (
{
horizontal = 1;
place = (0, 64);
place = (0, 64);
type = Stem;
},
{
place = (0, 128);
place = (0, 128);
type = Stem;
},
{
place = (256, 128);
place = (256, 128);
type = Stem;
},
{
place = (64, 64);
place = (64, 64);
type = Stem;
}
);
layerId = m01;
shapes = (
{
closed = 1;
nodes = (
(384,0,l),
(384,448,l),
(256,448,l),
(256,64,l),
(128,64,l),
(128,448,l),
(0,448,l),
(0,64,l),
(64,64,l),
(64,0,l)
);
}
);
width = 512;
}
);
note = u;
unicode = 117;
},
{
glyphname = ucircumflex;
layers = (
{
hints = (
{
horizontal = 1;
place = (0, 64);
place = (0, 64);
type = Stem;
},
{
horizontal = 1;
place = (576, 64);
place = (576, 64);
type = Stem;
},
{
place = (128, 128);
place = (128, 128);
type = Stem;
},
{
horizontal = 1;
place = (512, 64);
place = (512, 64);
type = Stem;
},
{
place = (64, 64);
place = (64, 64);
type = Stem;
},
{
place = (256, 128);
place = (256, 128);
type = Stem;
},
{
place = (0, 128);
place = (0, 128);
type = Stem;
},
{
place = (256, 64);
place = (256, 64);
type = Stem;
}
);
layerId = m01;
shapes = (
{
closed = 1;
nodes = (
(256,640,l),
(128,640,l),
(128,576,l),
(256,576,l)
);
},
{
closed = 1;
nodes = (
(64,576,l),
(64,512,l),
(128,512,l),
(128,576,l)
);
},
{
closed = 1;
nodes = (
(320,576,l),
(256,576,l),
(256,512,l),
(320,512,l)
);
},
{
closed = 1;
nodes = (
(256,448,l),
(256,64,l),
(128,64,l),
(128,448,l),
(0,448,l),
(0,64,l),
(64,64,l),
(64,0,l),
(384,0,l),
(384,448,l)
);
}
);
width = 512;
}
);
note = ucircumflex;
unicode = 251;
},
{
glyphname = v;
layers = (
{
hints = (
{
horizontal = 1;
place = (0, 64);
place = (0, 64);
type = Stem;
},
{
place = (0, 128);
place = (0, 128);
type = Stem;
},
{
place = (256, 128);
place = (256, 128);
type = Stem;
},
{
place = (256, 64);
place = (256, 64);
type = Stem;
}
);
layerId = m01;
shapes = (
{
closed = 1;
nodes = (
(128,64,l),
(128,448,l),
(0,448,l),
(0,0,l),
(256,0,l),
(256,64,l)
);
},
{
closed = 1;
nodes = (
(320,64,l),
(320,128,l),
(384,128,l),
(384,448,l),
(256,448,l),
(256,64,l)
);
}
);
width = 512;
}
);
note = v;
unicode = 118;
},
{
glyphname = w;
layers = (
{
hints = (
{
horizontal = 1;
place = (0, 64);
place = (0, 64);
type = Stem;
},
{
place = (0, 128);
place = (0, 128);
type = Stem;
},
{
place = (256, 128);
place = (256, 128);
type = Stem;
},
{
place = (512, 128);
place = (512, 128);
type = Stem;
},
{
place = (512, 64);
place = (512, 64);
type = Stem;
}
);
layerId = m01;
shapes = (
{
closed = 1;
nodes = (
(384,64,l),
(384,448,l),
(256,448,l),
(256,64,l),
(128,64,l),
(128,448,l),
(0,448,l),
(0,0,l),
(512,0,l),
(512,64,l)
);
},
{
closed = 1;
nodes = (
(576,64,l),
(576,128,l),
(640,128,l),
(640,448,l),
(512,448,l),
(512,64,l)
);
}
);
width = 768;
}
);
note = w;
unicode = 119;
},
{
glyphname = x;
layers = (
{
hints = (
{
horizontal = 1;
place = (256, 192);
place = (256, 192);
type = Stem;
},
{
place = (0, 128);
place = (0, 128);
type = Stem;
},
{
place = (256, 128);
place = (256, 128);
type = Stem;
},
{
horizontal = 1;
place = (192, 64);
place = (192, 64);
type = Stem;
},
{
horizontal = 1;
place = (0, 192);
place = (0, 192);
type = Stem;
},
{
place = (64, 64);
place = (64, 64);
type = Stem;
},
{
place = (256, 64);
place = (256, 64);
type = Stem;
}
);
layerId = m01;
shapes = (
{
closed = 1;
nodes = (
(256,448,l),
(256,256,l),
(128,256,l),
(128,448,l),
(0,448,l),
(0,256,l),
(64,256,l),
(64,192,l),
(0,192,l),
(0,0,l),
(128,0,l),
(128,192,l),
(256,192,l),
(256,0,l),
(384,0,l),
(384,192,l),
(320,192,l),
(320,256,l),
(384,256,l),
(384,448,l)
);
}
);
width = 512;
}
);
note = x;
unicode = 120;
},
{
glyphname = y;
layers = (
{
hints = (
{
horizontal = 1;
place = (-192, 64);
place = (-192, 64);
type = Stem;
},
{
horizontal = 1;
place = (0, 64);
place = (0, 64);
type = Stem;
},
{
place = (0, 128);
place = (0, 128);
type = Stem;
},
{
place = (256, 64);
place = (256, 64);
type = Stem;
},
{
place = (256, 128);
place = (256, 128);
type = Stem;
},
{
place = (64, 64);
place = (64, 64);
type = Stem;
},
{
horizontal = 1;
place = (-128, 64);
place = (-128, 64);
type = Stem;
},
{
place = (0, 64);
place = (0, 64);
type = Stem;
}
);
layerId = m01;
shapes = (
{
closed = 1;
nodes = (
(320,-192,l),
(320,-128,l),
(384,-128,l),
(384,448,l),
(256,448,l),
(256,64,l),
(128,64,l),
(128,448,l),
(0,448,l),
(0,64,l),
(64,64,l),
(64,0,l),
(256,0,l),
(256,-128,l),
(64,-128,l),
(64,-192,l)
);
},
{
closed = 1;
nodes = (
(64,-64,l),
(0,-64,l),
(0,-128,l),
(64,-128,l)
);
}
);
width = 512;
}
);
note = y;
unicode = 121;
},
{
glyphname = z;
layers = (
{
hints = (
{
horizontal = 1;
place = (0, 64);
place = (0, 64);
type = Stem;
},
{
horizontal = 1;
place = (128, 64);
place = (128, 64);
type = Stem;
},
{
horizontal = 1;
place = (256, 64);
place = (256, 64);
type = Stem;
},
{
horizontal = 1;
place = (384, 64);
place = (384, 64);
type = Stem;
},
{
place = (64, 64);
place = (64, 64);
type = Stem;
},
{
place = (256, 128);
place = (256, 128);
type = Stem;
},
{
place = (256, 64);
place = (256, 64);
type = Stem;
},
{
place = (192, 64);
place = (192, 64);
type = Stem;
},
{
horizontal = 1;
place = (192, 64);
place = (192, 64);
type = Stem;
},
{
place = (128, 64);
place = (128, 64);
type = Stem;
},
{
horizontal = 1;
place = (0, 128);
place = (0, 128);
type = Stem;
},
{
place = (0, 128);
place = (0, 128);
type = Stem;
},
{
horizontal = 1;
place = (320, 128);
place = (320, 128);
type = Stem;
}
);
layerId = m01;
shapes = (
{
closed = 1;
nodes = (
(384,448,l),
(0,448,l),
(0,384,l),
(256,384,l),
(256,320,l),
(192,320,l),
(192,256,l),
(128,256,l),
(128,192,l),
(64,192,l),
(64,128,l),
(0,128,l),
(0,0,l),
(384,0,l),
(384,64,l),
(128,64,l),
(128,128,l),
(192,128,l),
(192,192,l),
(256,192,l),
(256,256,l),
(320,256,l),
(320,320,l),
(384,320,l)
);
}
);
width = 512;
}
);
note = z;
unicode = 122;
},
{
glyphname = oe;
layers = (
{
hints = (
{
horizontal = 1;
place = (0, 64);
place = (0, 64);
type = Stem;
},
{
horizontal = 1;
place = (192, 64);
place = (192, 64);
type = Stem;
},
{
horizontal = 1;
place = (384, 64);
place = (384, 64);
type = Stem;
},
{
place = (0, 128);
place = (0, 128);
type = Stem;
},
{
place = (256, 128);
place = (256, 128);
type = Stem;
},
{
place = (512, 128);
place = (512, 128);
type = Stem;
},
{
place = (64, 64);
place = (64, 64);
type = Stem;
},
{
place = (512, 64);
place = (512, 64);
type = Stem;
},
{
horizontal = 1;
place = (64, 64);
place = (64, 64);
type = Stem;
},
{
place = (576, 64);
place = (576, 64);
type = Stem;
}
);
layerId = m01;
shapes = (
{
closed = 1;
nodes = (
(640,192,l),
(640,384,l),
(576,384,l),
(576,448,l),
(64,448,l),
(64,384,l),
(0,384,l),
(0,64,l),
(64,64,l),
(64,0,l),
(576,0,l),
(576,64,l),
(384,64,l),
(384,192,l)
);
},
{
closed = 1;
nodes = (
(128,384,l),
(256,384,l),
(256,64,l),
(128,64,l)
);
},
{
closed = 1;
nodes = (
(512,256,l),
(384,256,l),
(384,384,l),
(512,384,l)
);
},
{
closed = 1;
nodes = (
(576,128,l),
(576,64,l),
(640,64,l),
(640,128,l)
);
}
);
width = 768;
}
);
note = oe;
unicode = 339;
},
{
glyphname = uacute;
layers = (
{
hints = (
{
horizontal = 1;
place = (0, 64);
place = (0, 64);
type = Stem;
},
{
horizontal = 1;
place = (576, 64);
place = (576, 64);
type = Stem;
},
{
place = (0, 128);
place = (0, 128);
type = Stem;
},
{
place = (192, 64);
place = (192, 64);
type = Stem;
},
{
horizontal = 1;
place = (512, 64);
place = (512, 64);
type = Stem;
},
{
place = (128, 64);
place = (128, 64);
type = Stem;
},
{
place = (256, 128);
place = (256, 128);
type = Stem;
},
{
place = (64, 64);
place = (64, 64);
type = Stem;
}
);
layerId = m01;
shapes = (
{
closed = 1;
nodes = (
(256,640,l),
(192,640,l),
(192,576,l),
(256,576,l)
);
},
{
closed = 1;
nodes = (
(192,576,l),
(128,576,l),
(128,512,l),
(192,512,l)
);
},
{
closed = 1;
nodes = (
(256,448,l),
(256,64,l),
(128,64,l),
(128,448,l),
(0,448,l),
(0,64,l),
(64,64,l),
(64,0,l),
(384,0,l),
(384,448,l)
);
}
);
width = 512;
}
);
note = uacute;
unicode = 250;
},
{
glyphname = udieresis;
layers = (
{
hints = (
{
horizontal = 1;
place = (0, 64);
place = (0, 64);
type = Stem;
},
{
horizontal = 1;
place = (512, 64);
place = (512, 64);
type = Stem;
},
{
place = (64, 64);
place = (64, 64);
type = Stem;
},
{
place = (256, 128);
place = (256, 128);
type = Stem;
},
{
place = (0, 128);
place = (0, 128);
type = Stem;
},
{
place = (256, 64);
place = (256, 64);
type = Stem;
}
);
layerId = m01;
shapes = (
{
closed = 1;
nodes = (
(64,576,l),
(64,512,l),
(128,512,l),
(128,576,l)
);
},
{
closed = 1;
nodes = (
(256,576,l),
(256,512,l),
(320,512,l),
(320,576,l)
);
},
{
closed = 1;
nodes = (
(256,448,l),
(256,64,l),
(128,64,l),
(128,448,l),
(0,448,l),
(0,64,l),
(64,64,l),
(64,0,l),
(384,0,l),
(384,448,l)
);
}
);
width = 512;
}
);
note = udieresis;
unicode = 252;
},
{
glyphname = ugrave;
layers = (
{
hints = (
{
horizontal = 1;
place = (0, 64);
place = (0, 64);
type = Stem;
},
{
horizontal = 1;
place = (576, 64);
place = (576, 64);
type = Stem;
},
{
place = (128, 64);
place = (128, 64);
type = Stem;
},
{
place = (256, 128);
place = (256, 128);
type = Stem;
},
{
horizontal = 1;
place = (512, 64);
place = (512, 64);
type = Stem;
},
{
place = (0, 128);
place = (0, 128);
type = Stem;
},
{
place = (192, 64);
place = (192, 64);
type = Stem;
},
{
place = (64, 64);
place = (64, 64);
type = Stem;
}
);
layerId = m01;
shapes = (
{
closed = 1;
nodes = (
(192,576,l),
(192,640,l),
(128,640,l),
(128,576,l)
);
},
{
closed = 1;
nodes = (
(256,512,l),
(256,576,l),
(192,576,l),
(192,512,l)
);
},
{
closed = 1;
nodes = (
(256,448,l),
(256,64,l),
(128,64,l),
(128,448,l),
(0,448,l),
(0,64,l),
(64,64,l),
(64,0,l),
(384,0,l),
(384,448,l)
);
}
);
width = 512;
}
);
note = ugrave;
unicode = 249;
},
{
glyphname = ydieresis;
layers = (
{
hints = (
{
horizontal = 1;
place = (-192, 64);
place = (-192, 64);
type = Stem;
},
{
horizontal = 1;
place = (0, 64);
place = (0, 64);
type = Stem;
},
{
horizontal = 1;
place = (512, 64);
place = (512, 64);
type = Stem;
},
{
place = (0, 128);
place = (0, 128);
type = Stem;
},
{
place = (256, 128);
place = (256, 128);
type = Stem;
},
{
place = (64, 64);
place = (64, 64);
type = Stem;
},
{
place = (256, 64);
place = (256, 64);
type = Stem;
},
{
horizontal = 1;
place = (-128, 64);
place = (-128, 64);
type = Stem;
},
{
place = (0, 64);
place = (0, 64);
type = Stem;
}
);
layerId = m01;
shapes = (
{
closed = 1;
nodes = (
(128,512,l),
(128,576,l),
(64,576,l),
(64,512,l)
);
},
{
closed = 1;
nodes = (
(256,512,l),
(320,512,l),
(320,576,l),
(256,576,l)
);
},
{
closed = 1;
nodes = (
(320,-192,l),
(320,-128,l),
(384,-128,l),
(384,448,l),
(256,448,l),
(256,64,l),
(128,64,l),
(128,448,l),
(0,448,l),
(0,64,l),
(64,64,l),
(64,0,l),
(256,0,l),
(256,-128,l),
(64,-128,l),
(64,-192,l)
);
},
{
closed = 1;
nodes = (
(64,-128,l),
(64,-64,l),
(0,-64,l),
(0,-128,l)
);
}
);
width = 512;
}
);
note = ydieresis;
unicode = 255;
},
{
glyphname = ordfeminine;
layers = (
{
hints = (
{
horizontal = 1;
place = (0, 66);
place = (0, 66);
type = Stem;
},
{
horizontal = 1;
place = (131, 66);
place = (131, 66);
type = Stem;
},
{
horizontal = 1;
place = (328, 66);
place = (328, 66);
type = Stem;
},
{
horizontal = 1;
place = (459, 66);
place = (459, 66);
type = Stem;
},
{
place = (66, 65);
place = (66, 65);
type = Stem;
},
{
place = (197, 66);
place = (197, 66);
type = Stem;
},
{
place = (197, 131);
place = (197, 131);
type = Stem;
},
{
horizontal = 1;
place = (197, 131);
place = (197, 131);
type = Stem;
},
{
place = (0, 66);
place = (0, 66);
type = Stem;
},
{
horizontal = 1;
place = (394, 65);
place = (394, 65);
type = Stem;
}
);
layerId = m01;
shapes = (
{
closed = 1;
nodes = (
(263,525,l),
(66,525,l),
(66,459,l),
(197,459,l),
(197,394,l),
(66,394,l),
(66,328,l),
(0,328,l),
(0,197,l),
(66,197,l),
(66,131,l),
(328,131,l),
(328,459,l),
(263,459,l)
);
},
{
closed = 1;
nodes = (
(0,394,l),
(66,394,l),
(66,459,l),
(0,459,l)
);
},
{
closed = 1;
nodes = (
(197,197,l),
(131,197,l),
(131,328,l),
(197,328,l)
);
},
{
closed = 1;
nodes = (
(328,0,l),
(328,66,l),
(0,66,l),
(0,0,l)
);
}
);
width = 456;
}
);
note = ordfeminine;
unicode = 170;
},
{
glyphname = ordmasculine;
layers = (
{
hints = (
{
horizontal = 1;
place = (0, 66);
place = (0, 66);
type = Stem;
},
{
horizontal = 1;
place = (131, 66);
place = (131, 66);
type = Stem;
},
{
horizontal = 1;
place = (459, 66);
place = (459, 66);
type = Stem;
},
{
place = (66, 65);
place = (66, 65);
type = Stem;
},
{
place = (197, 66);
place = (197, 66);
type = Stem;
},
{
horizontal = 1;
place = (197, 262);
place = (197, 262);
type = Stem;
},
{
place = (0, 131);
place = (0, 131);
type = Stem;
},
{
place = (197, 131);
place = (197, 131);
type = Stem;
}
);
layerId = m01;
shapes = (
{
closed = 1;
nodes = (
(263,525,l),
(66,525,l),
(66,459,l),
(0,459,l),
(0,197,l),
(66,197,l),
(66,131,l),
(263,131,l),
(263,197,l),
(328,197,l),
(328,459,l),
(263,459,l)
);
},
{
closed = 1;
nodes = (
(131,459,l),
(197,459,l),
(197,197,l),
(131,197,l)
);
},
{
closed = 1;
nodes = (
(328,0,l),
(328,66,l),
(0,66,l),
(0,0,l)
);
}
);
width = 456;
}
);
note = ordmasculine;
unicode = 186;
},
{
glyphname = pi;
layers = (
{
hints = (
{
horizontal = 1;
place = (451, 64);
place = (451, 64);
type = Stem;
},
{
place = (0, 64);
place = (0, 64);
type = Stem;
},
{
place = (129, 128);
place = (129, 128);
type = Stem;
},
{
place = (515, 64);
place = (515, 64);
type = Stem;
},
{
horizontal = 1;
place = (386, 65);
place = (386, 65);
type = Stem;
},
{
place = (386, 129);
place = (386, 129);
type = Stem;
},
{
place = (129, 64);
place = (129, 64);
type = Stem;
},
{
place = (386, 65);
place = (386, 65);
type = Stem;
},
{
horizontal = 1;
place = (322, 64);
place = (322, 64);
type = Stem;
}
);
layerId = m01;
shapes = (
{
closed = 1;
nodes = (
(515,451,l),
(579,451,l),
(579,515,l),
(515,515,l)
);
},
{
closed = 1;
nodes = (
(129,386,l),
(129,0,l),
(193,0,l),
(193,64,l),
(257,64,l),
(257,386,l),
(386,386,l),
(386,0,l),
(451,0,l),
(451,64,l),
(515,64,l),
(515,451,l),
(64,451,l),
(64,386,l)
);
},
{
closed = 1;
nodes = (
(64,322,l),
(64,386,l),
(0,386,l),
(0,322,l)
);
}
);
width = 707;
}
);
note = pi;
unicode = 960;
},
{
glyphname = zero;
layers = (
{
hints = (
{
horizontal = 1;
place = (0, 64);
place = (0, 64);
type = Stem;
},
{
horizontal = 1;
place = (512, 64);
place = (512, 64);
type = Stem;
},
{
place = (0, 128);
place = (0, 128);
type = Stem;
},
{
place = (256, 64);
place = (256, 64);
type = Stem;
},
{
place = (256, 128);
place = (256, 128);
type = Stem;
},
{
place = (64, 64);
place = (64, 64);
type = Stem;
}
);
layerId = m01;
shapes = (
{
closed = 1;
nodes = (
(320,0,l),
(320,64,l),
(384,64,l),
(384,512,l),
(320,512,l),
(320,576,l),
(64,576,l),
(64,512,l),
(0,512,l),
(0,64,l),
(64,64,l),
(64,0,l)
);
},
{
closed = 1;
nodes = (
(128,64,l),
(128,512,l),
(256,512,l),
(256,64,l)
);
}
);
width = 512;
}
);
note = zero;
unicode = 48;
},
{
glyphname = one;
layers = (
{
hints = (
{
horizontal = 1;
place = (448, 64);
place = (448, 64);
type = Stem;
},
{
place = (64, 128);
place = (64, 128);
type = Stem;
}
);
layerId = m01;
shapes = (
{
closed = 1;
nodes = (
(192,0,l),
(192,576,l),
(64,576,l),
(64,512,l),
(0,512,l),
(0,448,l),
(64,448,l),
(64,0,l)
);
}
);
width = 320;
}
);
note = one;
unicode = 49;
},
{
glyphname = two;
layers = (
{
hints = (
{
horizontal = 1;
place = (0, 64);
place = (0, 64);
type = Stem;
},
{
horizontal = 1;
place = (128, 64);
place = (128, 64);
type = Stem;
},
{
horizontal = 1;
place = (256, 64);
place = (256, 64);
type = Stem;
},
{
horizontal = 1;
place = (512, 64);
place = (512, 64);
type = Stem;
},
{
place = (64, 64);
place = (64, 64);
type = Stem;
},
{
place = (256, 128);
place = (256, 128);
type = Stem;
},
{
place = (0, 64);
place = (0, 64);
type = Stem;
},
{
place = (128, 64);
place = (128, 64);
type = Stem;
},
{
place = (256, 64);
place = (256, 64);
type = Stem;
},
{
horizontal = 1;
place = (192, 64);
place = (192, 64);
type = Stem;
},
{
place = (192, 64);
place = (192, 64);
type = Stem;
},
{
horizontal = 1;
place = (320, 192);
place = (320, 192);
type = Stem;
},
{
horizontal = 1;
place = (0, 128);
place = (0, 128);
type = Stem;
},
{
place = (0, 128);
place = (0, 128);
type = Stem;
},
{
horizontal = 1;
place = (448, 64);
place = (448, 64);
type = Stem;
}
);
layerId = m01;
shapes = (
{
closed = 1;
nodes = (
(384,64,l),
(128,64,l),
(128,128,l),
(192,128,l),
(192,192,l),
(256,192,l),
(256,256,l),
(320,256,l),
(320,320,l),
(384,320,l),
(384,512,l),
(320,512,l),
(320,576,l),
(64,576,l),
(64,512,l),
(256,512,l),
(256,320,l),
(192,320,l),
(192,256,l),
(128,256,l),
(128,192,l),
(64,192,l),
(64,128,l),
(0,128,l),
(0,0,l),
(384,0,l)
);
},
{
closed = 1;
nodes = (
(64,448,l),
(64,512,l),
(0,512,l),
(0,448,l)
);
}
);
width = 512;
}
);
note = two;
unicode = 50;
},
{
glyphname = three;
layers = (
{
hints = (
{
horizontal = 1;
place = (0, 64);
place = (0, 64);
type = Stem;
},
{
horizontal = 1;
place = (320, 64);
place = (320, 64);
type = Stem;
},
{
horizontal = 1;
place = (512, 64);
place = (512, 64);
type = Stem;
},
{
place = (0, 64);
place = (0, 64);
type = Stem;
},
{
place = (256, 64);
place = (256, 64);
type = Stem;
},
{
horizontal = 1;
place = (64, 256);
place = (64, 256);
type = Stem;
},
{
place = (256, 128);
place = (256, 128);
type = Stem;
},
{
place = (192, 64);
place = (192, 64);
type = Stem;
},
{
horizontal = 1;
place = (64, 64);
place = (64, 64);
type = Stem;
}
);
layerId = m01;
shapes = (
{
closed = 1;
nodes = (
(320,0,l),
(320,64,l),
(384,64,l),
(384,320,l),
(320,320,l),
(320,384,l),
(256,384,l),
(256,448,l),
(320,448,l),
(320,512,l),
(384,512,l),
(384,576,l),
(0,576,l),
(0,512,l),
(192,512,l),
(192,448,l),
(128,448,l),
(128,384,l),
(64,384,l),
(64,320,l),
(256,320,l),
(256,64,l),
(64,64,l),
(64,0,l)
);
},
{
closed = 1;
nodes = (
(64,128,l),
(0,128,l),
(0,64,l),
(64,64,l)
);
}
);
width = 512;
}
);
note = three;
unicode = 51;
},
{
glyphname = four;
layers = (
{
hints = (
{
horizontal = 1;
place = (192, 64);
place = (192, 64);
type = Stem;
},
{
horizontal = 1;
place = (320, 64);
place = (320, 64);
type = Stem;
},
{
horizontal = 1;
place = (448, 64);
place = (448, 64);
type = Stem;
},
{
place = (0, 64);
place = (0, 64);
type = Stem;
},
{
place = (128, 64);
place = (128, 64);
type = Stem;
},
{
place = (256, 128);
place = (256, 128);
type = Stem;
},
{
horizontal = 1;
place = (384, 64);
place = (384, 64);
type = Stem;
},
{
place = (64, 64);
place = (64, 64);
type = Stem;
}
);
layerId = m01;
shapes = (
{
closed = 1;
nodes = (
(384,256,l),
(384,576,l),
(256,576,l),
(256,512,l),
(192,512,l),
(192,448,l),
(256,448,l),
(256,256,l),
(64,256,l),
(64,320,l),
(0,320,l),
(0,192,l),
(256,192,l),
(256,0,l),
(384,0,l),
(384,192,l),
(448,192,l),
(448,256,l)
);
},
{
closed = 1;
nodes = (
(128,448,l),
(128,384,l),
(192,384,l),
(192,448,l)
);
},
{
closed = 1;
nodes = (
(64,384,l),
(64,320,l),
(128,320,l),
(128,384,l)
);
}
);
width = 576;
}
);
note = four;
unicode = 52;
},
{
glyphname = five;
layers = (
{
hints = (
{
horizontal = 1;
place = (0, 64);
place = (0, 64);
type = Stem;
},
{
horizontal = 1;
place = (320, 64);
place = (320, 64);
type = Stem;
},
{
horizontal = 1;
place = (512, 64);
place = (512, 64);
type = Stem;
},
{
place = (0, 128);
place = (0, 128);
type = Stem;
},
{
place = (256, 64);
place = (256, 64);
type = Stem;
},
{
horizontal = 1;
place = (64, 256);
place = (64, 256);
type = Stem;
},
{
place = (256, 128);
place = (256, 128);
type = Stem;
},
{
horizontal = 1;
place = (64, 64);
place = (64, 64);
type = Stem;
},
{
place = (0, 64);
place = (0, 64);
type = Stem;
}
);
layerId = m01;
shapes = (
{
closed = 1;
nodes = (
(320,0,l),
(320,64,l),
(384,64,l),
(384,320,l),
(320,320,l),
(320,384,l),
(128,384,l),
(128,512,l),
(384,512,l),
(384,576,l),
(0,576,l),
(0,320,l),
(256,320,l),
(256,64,l),
(64,64,l),
(64,0,l)
);
},
{
closed = 1;
nodes = (
(64,128,l),
(0,128,l),
(0,64,l),
(64,64,l)
);
}
);
width = 512;
}
);
note = five;
unicode = 53;
},
{
glyphname = six;
layers = (
{
hints = (
{
horizontal = 1;
place = (0, 64);
place = (0, 64);
type = Stem;
},
{
horizontal = 1;
place = (320, 64);
place = (320, 64);
type = Stem;
},
{
horizontal = 1;
place = (512, 64);
place = (512, 64);
type = Stem;
},
{
place = (0, 128);
place = (0, 128);
type = Stem;
},
{
place = (256, 64);
place = (256, 64);
type = Stem;
},
{
horizontal = 1;
place = (64, 256);
place = (64, 256);
type = Stem;
},
{
place = (256, 128);
place = (256, 128);
type = Stem;
},
{
horizontal = 1;
place = (448, 64);
place = (448, 64);
type = Stem;
},
{
place = (128, 64);
place = (128, 64);
type = Stem;
},
{
place = (64, 64);
place = (64, 64);
type = Stem;
}
);
layerId = m01;
shapes = (
{
closed = 1;
nodes = (
(320,0,l),
(320,64,l),
(384,64,l),
(384,320,l),
(320,320,l),
(320,384,l),
(128,384,l),
(128,448,l),
(192,448,l),
(192,512,l),
(320,512,l),
(320,576,l),
(128,576,l),
(128,512,l),
(64,512,l),
(64,448,l),
(0,448,l),
(0,64,l),
(64,64,l),
(64,0,l)
);
},
{
closed = 1;
nodes = (
(128,64,l),
(128,320,l),
(256,320,l),
(256,64,l)
);
}
);
width = 512;
}
);
note = six;
unicode = 54;
},
{
glyphname = seven;
layers = (
{
hints = (
{
horizontal = 1;
place = (0, 256);
place = (0, 256);
type = Stem;
},
{
horizontal = 1;
place = (512, 64);
place = (512, 64);
type = Stem;
},
{
place = (128, 128);
place = (128, 128);
type = Stem;
},
{
horizontal = 1;
place = (256, 64);
place = (256, 64);
type = Stem;
},
{
place = (256, 64);
place = (256, 64);
type = Stem;
},
{
place = (256, 128);
place = (256, 128);
type = Stem;
},
{
place = (192, 64);
place = (192, 64);
type = Stem;
}
);
layerId = m01;
shapes = (
{
closed = 1;
nodes = (
(256,0,l),
(256,256,l),
(320,256,l),
(320,320,l),
(384,320,l),
(384,576,l),
(0,576,l),
(0,512,l),
(256,512,l),
(256,320,l),
(192,320,l),
(192,256,l),
(128,256,l),
(128,0,l)
);
}
);
width = 512;
}
);
note = seven;
unicode = 55;
},
{
glyphname = eight;
layers = (
{
hints = (
{
horizontal = 1;
place = (0, 64);
place = (0, 64);
type = Stem;
},
{
horizontal = 1;
place = (320, 64);
place = (320, 64);
type = Stem;
},
{
horizontal = 1;
place = (512, 64);
place = (512, 64);
type = Stem;
},
{
place = (64, 64);
place = (64, 64);
type = Stem;
},
{
place = (256, 64);
place = (256, 64);
type = Stem;
},
{
horizontal = 1;
place = (64, 256);
place = (64, 256);
type = Stem;
},
{
place = (256, 128);
place = (256, 128);
type = Stem;
},
{
horizontal = 1;
place = (384, 128);
place = (384, 128);
type = Stem;
},
{
place = (0, 128);
place = (0, 128);
type = Stem;
}
);
layerId = m01;
shapes = (
{
closed = 1;
nodes = (
(320,0,l),
(320,64,l),
(384,64,l),
(384,320,l),
(320,320,l),
(320,384,l),
(384,384,l),
(384,512,l),
(320,512,l),
(320,576,l),
(64,576,l),
(64,512,l),
(0,512,l),
(0,384,l),
(64,384,l),
(64,320,l),
(0,320,l),
(0,64,l),
(64,64,l),
(64,0,l)
);
},
{
closed = 1;
nodes = (
(128,384,l),
(128,512,l),
(256,512,l),
(256,384,l)
);
},
{
closed = 1;
nodes = (
(128,64,l),
(128,320,l),
(256,320,l),
(256,64,l)
);
}
);
width = 512;
}
);
note = eight;
unicode = 56;
},
{
glyphname = nine;
layers = (
{
hints = (
{
horizontal = 1;
place = (0, 64);
place = (0, 64);
type = Stem;
},
{
horizontal = 1;
place = (192, 64);
place = (192, 64);
type = Stem;
},
{
horizontal = 1;
place = (512, 64);
place = (512, 64);
type = Stem;
},
{
place = (64, 64);
place = (64, 64);
type = Stem;
},
{
place = (192, 64);
place = (192, 64);
type = Stem;
},
{
horizontal = 1;
place = (64, 64);
place = (64, 64);
type = Stem;
},
{
place = (256, 64);
place = (256, 64);
type = Stem;
},
{
place = (256, 128);
place = (256, 128);
type = Stem;
},
{
horizontal = 1;
place = (256, 256);
place = (256, 256);
type = Stem;
},
{
place = (0, 128);
place = (0, 128);
type = Stem;
}
);
layerId = m01;
shapes = (
{
closed = 1;
nodes = (
(256,0,l),
(256,64,l),
(320,64,l),
(320,128,l),
(384,128,l),
(384,512,l),
(320,512,l),
(320,576,l),
(64,576,l),
(64,512,l),
(0,512,l),
(0,256,l),
(64,256,l),
(64,192,l),
(256,192,l),
(256,128,l),
(192,128,l),
(192,64,l),
(64,64,l),
(64,0,l)
);
},
{
closed = 1;
nodes = (
(128,256,l),
(128,512,l),
(256,512,l),
(256,256,l)
);
}
);
width = 512;
}
);
note = nine;
unicode = 57;
},
{
glyphname = uni00B9;
layers = (
{
hints = (
{
horizontal = 1;
place = (-64, 64);
place = (-64, 64);
type = Stem;
},
{
horizontal = 1;
place = (64, 64);
place = (64, 64);
type = Stem;
},
{
horizontal = 1;
place = (192, 64);
place = (192, 64);
type = Stem;
},
{
horizontal = 1;
place = (320, 64);
place = (320, 64);
type = Stem;
},
{
horizontal = 1;
place = (448, 64);
place = (448, 64);
type = Stem;
},
{
horizontal = 1;
place = (576, 64);
place = (576, 64);
type = Stem;
},
{
place = (0, 64);
place = (0, 64);
type = Stem;
},
{
place = (128, 64);
place = (128, 64);
type = Stem;
},
{
place = (256, 64);
place = (256, 64);
type = Stem;
},
{
place = (384, 64);
place = (384, 64);
type = Stem;
},
{
place = (512, 64);
place = (512, 64);
type = Stem;
},
{
place = (640, 64);
place = (640, 64);
type = Stem;
},
{
horizontal = 1;
place = (512, 64);
place = (512, 64);
type = Stem;
},
{
horizontal = 1;
place = (384, 64);
place = (384, 64);
type = Stem;
},
{
horizontal = 1;
place = (256, 64);
place = (256, 64);
type = Stem;
},
{
horizontal = 1;
place = (128, 64);
place = (128, 64);
type = Stem;
},
{
horizontal = 1;
place = (0, 64);
place = (0, 64);
type = Stem;
}
);
layerId = m01;
shapes = (
{
closed = 1;
nodes = (
(64,576,l),
(64,640,l),
(0,640,l),
(0,576,l)
);
},
{
closed = 1;
nodes = (
(320,576,l),
(320,640,l),
(256,640,l),
(256,576,l)
);
},
{
closed = 1;
nodes = (
(576,576,l),
(576,640,l),
(512,640,l),
(512,576,l)
);
},
{
closed = 1;
nodes = (
(192,512,l),
(192,576,l),
(128,576,l),
(128,512,l)
);
},
{
closed = 1;
nodes = (
(448,512,l),
(448,576,l),
(384,576,l),
(384,512,l)
);
},
{
closed = 1;
nodes = (
(704,512,l),
(704,576,l),
(640,576,l),
(640,512,l)
);
},
{
closed = 1;
nodes = (
(64,448,l),
(64,512,l),
(0,512,l),
(0,448,l)
);
},
{
closed = 1;
nodes = (
(320,448,l),
(320,512,l),
(256,512,l),
(256,448,l)
);
},
{
closed = 1;
nodes = (
(576,448,l),
(576,512,l),
(512,512,l),
(512,448,l)
);
},
{
closed = 1;
nodes = (
(192,384,l),
(192,448,l),
(128,448,l),
(128,384,l)
);
},
{
closed = 1;
nodes = (
(448,384,l),
(448,448,l),
(384,448,l),
(384,384,l)
);
},
{
closed = 1;
nodes = (
(704,384,l),
(704,448,l),
(640,448,l),
(640,384,l)
);
},
{
closed = 1;
nodes = (
(64,320,l),
(64,384,l),
(0,384,l),
(0,320,l)
);
},
{
closed = 1;
nodes = (
(320,320,l),
(320,384,l),
(256,384,l),
(256,320,l)
);
},
{
closed = 1;
nodes = (
(576,320,l),
(576,384,l),
(512,384,l),
(512,320,l)
);
},
{
closed = 1;
nodes = (
(192,256,l),
(192,320,l),
(128,320,l),
(128,256,l)
);
},
{
closed = 1;
nodes = (
(448,256,l),
(448,320,l),
(384,320,l),
(384,256,l)
);
},
{
closed = 1;
nodes = (
(704,256,l),
(704,320,l),
(640,320,l),
(640,256,l)
);
},
{
closed = 1;
nodes = (
(64,192,l),
(64,256,l),
(0,256,l),
(0,192,l)
);
},
{
closed = 1;
nodes = (
(320,192,l),
(320,256,l),
(256,256,l),
(256,192,l)
);
},
{
closed = 1;
nodes = (
(576,192,l),
(576,256,l),
(512,256,l),
(512,192,l)
);
},
{
closed = 1;
nodes = (
(192,128,l),
(192,192,l),
(128,192,l),
(128,128,l)
);
},
{
closed = 1;
nodes = (
(448,128,l),
(448,192,l),
(384,192,l),
(384,128,l)
);
},
{
closed = 1;
nodes = (
(704,128,l),
(704,192,l),
(640,192,l),
(640,128,l)
);
},
{
closed = 1;
nodes = (
(64,64,l),
(64,128,l),
(0,128,l),
(0,64,l)
);
},
{
closed = 1;
nodes = (
(320,64,l),
(320,128,l),
(256,128,l),
(256,64,l)
);
},
{
closed = 1;
nodes = (
(576,64,l),
(576,128,l),
(512,128,l),
(512,64,l)
);
},
{
closed = 1;
nodes = (
(192,0,l),
(192,64,l),
(128,64,l),
(128,0,l)
);
},
{
closed = 1;
nodes = (
(448,0,l),
(448,64,l),
(384,64,l),
(384,0,l)
);
},
{
closed = 1;
nodes = (
(704,0,l),
(704,64,l),
(640,64,l),
(640,0,l)
);
},
{
closed = 1;
nodes = (
(64,-64,l),
(64,0,l),
(0,0,l),
(0,-64,l)
);
},
{
closed = 1;
nodes = (
(320,-64,l),
(320,0,l),
(256,0,l),
(256,-64,l)
);
},
{
closed = 1;
nodes = (
(576,-64,l),
(576,0,l),
(512,0,l),
(512,-64,l)
);
}
);
width = 832;
}
);
note = uni00B9;
unicode = 185;
},
{
glyphname = uni00B2;
layers = (
{
hints = (
{
horizontal = 1;
place = (320, 128);
place = (320, 128);
type = Stem;
},
{
horizontal = 1;
place = (512, 64);
place = (512, 64);
type = Stem;
},
{
place = (0, 128);
place = (0, 128);
type = Stem;
},
{
place = (192, 64);
place = (192, 64);
type = Stem;
},
{
place = (64, 64);
place = (64, 64);
type = Stem;
},
{
place = (192, 128);
place = (192, 128);
type = Stem;
},
{
place = (256, 64);
place = (256, 64);
type = Stem;
},
{
place = (0, 64);
place = (0, 64);
type = Stem;
},
{
horizontal = 1;
place = (320, 192);
place = (320, 192);
type = Stem;
}
);
layerId = m01;
shapes = (
{
closed = 1;
nodes = (
(128,512,l),
(128,576,l),
(64,576,l),
(64,512,l)
);
},
{
closed = 1;
nodes = (
(320,512,l),
(320,576,l),
(256,576,l),
(256,512,l)
);
},
{
closed = 1;
nodes = (
(128,320,l),
(128,448,l),
(64,448,l),
(64,512,l),
(0,512,l),
(0,320,l)
);
},
{
closed = 1;
nodes = (
(320,320,l),
(320,448,l),
(256,448,l),
(256,512,l),
(192,512,l),
(192,320,l)
);
}
);
width = 448;
}
);
note = uni00B2;
unicode = 178;
},
{
glyphname = uni00B3;
layers = (
{
hints = (
{
horizontal = 1;
place = (320, 64);
place = (320, 64);
type = Stem;
},
{
horizontal = 1;
place = (448, 128);
place = (448, 128);
type = Stem;
},
{
place = (64, 64);
place = (64, 64);
type = Stem;
},
{
place = (0, 128);
place = (0, 128);
type = Stem;
},
{
place = (0, 64);
place = (0, 64);
type = Stem;
}
);
layerId = m01;
shapes = (
{
closed = 1;
nodes = (
(128,384,l),
(128,576,l),
(0,576,l),
(0,448,l),
(64,448,l),
(64,384,l)
);
},
{
closed = 1;
nodes = (
(64,320,l),
(64,384,l),
(0,384,l),
(0,320,l)
);
}
);
width = 256;
}
);
note = uni00B3;
unicode = 179;
},
{
glyphname = period;
layers = (
{
hints = (
{
horizontal = 1;
place = (0, 128);
place = (0, 128);
type = Stem;
},
{
place = (0, 128);
place = (0, 128);
type = Stem;
}
);
layerId = m01;
shapes = (
{
closed = 1;
nodes = (
(128,0,l),
(128,128,l),
(0,128,l),
(0,0,l)
);
}
);
width = 256;
}
);
note = period;
unicode = 46;
},
{
glyphname = comma;
layers = (
{
hints = (
{
horizontal = 1;
place = (-128, 64);
place = (-128, 64);
type = Stem;
},
{
horizontal = 1;
place = (0, 128);
place = (0, 128);
type = Stem;
},
{
place = (64, 64);
place = (64, 64);
type = Stem;
},
{
place = (0, 128);
place = (0, 128);
type = Stem;
},
{
place = (0, 64);
place = (0, 64);
type = Stem;
}
);
layerId = m01;
shapes = (
{
closed = 1;
nodes = (
(128,-64,l),
(128,128,l),
(0,128,l),
(0,0,l),
(64,0,l),
(64,-64,l)
);
},
{
closed = 1;
nodes = (
(64,-128,l),
(64,-64,l),
(0,-64,l),
(0,-128,l)
);
}
);
width = 256;
}
);
note = comma;
unicode = 44;
},
{
glyphname = colon;
layers = (
{
hints = (
{
horizontal = 1;
place = (0, 128);
place = (0, 128);
type = Stem;
},
{
horizontal = 1;
place = (320, 128);
place = (320, 128);
type = Stem;
},
{
place = (0, 128);
place = (0, 128);
type = Stem;
}
);
layerId = m01;
shapes = (
{
closed = 1;
nodes = (
(128,320,l),
(128,448,l),
(0,448,l),
(0,320,l)
);
},
{
closed = 1;
nodes = (
(128,0,l),
(128,128,l),
(0,128,l),
(0,0,l)
);
}
);
width = 256;
}
);
note = colon;
unicode = 58;
},
{
glyphname = semicolon;
layers = (
{
hints = (
{
horizontal = 1;
place = (-128, 64);
place = (-128, 64);
type = Stem;
},
{
horizontal = 1;
place = (0, 128);
place = (0, 128);
type = Stem;
},
{
horizontal = 1;
place = (320, 128);
place = (320, 128);
type = Stem;
},
{
place = (0, 128);
place = (0, 128);
type = Stem;
},
{
place = (64, 64);
place = (64, 64);
type = Stem;
},
{
place = (0, 64);
place = (0, 64);
type = Stem;
}
);
layerId = m01;
shapes = (
{
closed = 1;
nodes = (
(128,320,l),
(128,448,l),
(0,448,l),
(0,320,l)
);
},
{
closed = 1;
nodes = (
(128,-64,l),
(128,128,l),
(0,128,l),
(0,0,l),
(64,0,l),
(64,-64,l)
);
},
{
closed = 1;
nodes = (
(64,-128,l),
(64,-64,l),
(0,-64,l),
(0,-128,l)
);
}
);
width = 256;
}
);
note = semicolon;
unicode = 59;
},
{
glyphname = ellipsis;
layers = (
{
hints = (
{
horizontal = 1;
place = (0, 128);
place = (0, 128);
type = Stem;
},
{
place = (0, 128);
place = (0, 128);
type = Stem;
},
{
place = (256, 128);
place = (256, 128);
type = Stem;
},
{
place = (512, 128);
place = (512, 128);
type = Stem;
}
);
layerId = m01;
shapes = (
{
closed = 1;
nodes = (
(128,0,l),
(128,128,l),
(0,128,l),
(0,0,l)
);
},
{
closed = 1;
nodes = (
(384,0,l),
(384,128,l),
(256,128,l),
(256,0,l)
);
},
{
closed = 1;
nodes = (
(640,0,l),
(640,128,l),
(512,128,l),
(512,0,l)
);
}
);
width = 768;
}
);
note = ellipsis;
unicode = 8230;
},
{
glyphname = exclam;
layers = (
{
hints = (
{
horizontal = 1;
place = (0, 128);
place = (0, 128);
type = Stem;
},
{
place = (0, 128);
place = (0, 128);
type = Stem;
}
);
layerId = m01;
shapes = (
{
closed = 1;
nodes = (
(128,192,l),
(128,576,l),
(0,576,l),
(0,192,l)
);
},
{
closed = 1;
nodes = (
(128,0,l),
(128,128,l),
(0,128,l),
(0,0,l)
);
}
);
width = 256;
}
);
note = exclam;
unicode = 33;
},
{
glyphname = exclamdown;
layers = (
{
hints = (
{
horizontal = 1;
place = (448, 128);
place = (448, 128);
type = Stem;
},
{
place = (0, 128);
place = (0, 128);
type = Stem;
}
);
layerId = m01;
shapes = (
{
closed = 1;
nodes = (
(128,448,l),
(128,576,l),
(0,576,l),
(0,448,l)
);
},
{
closed = 1;
nodes = (
(128,0,l),
(128,384,l),
(0,384,l),
(0,0,l)
);
}
);
width = 256;
}
);
note = exclamdown;
unicode = 161;
},
{
glyphname = question;
layers = (
{
hints = (
{
horizontal = 1;
place = (0, 128);
place = (0, 128);
type = Stem;
},
{
horizontal = 1;
place = (192, 128);
place = (192, 128);
type = Stem;
},
{
horizontal = 1;
place = (512, 64);
place = (512, 64);
type = Stem;
},
{
place = (0, 64);
place = (0, 64);
type = Stem;
},
{
place = (128, 128);
place = (128, 128);
type = Stem;
},
{
horizontal = 1;
place = (320, 64);
place = (320, 64);
type = Stem;
},
{
place = (256, 64);
place = (256, 64);
type = Stem;
},
{
horizontal = 1;
place = (384, 128);
place = (384, 128);
type = Stem;
},
{
place = (192, 64);
place = (192, 64);
type = Stem;
},
{
horizontal = 1;
place = (448, 64);
place = (448, 64);
type = Stem;
}
);
layerId = m01;
shapes = (
{
closed = 1;
nodes = (
(256,192,l),
(256,320,l),
(320,320,l),
(320,384,l),
(384,384,l),
(384,512,l),
(320,512,l),
(320,576,l),
(64,576,l),
(64,512,l),
(256,512,l),
(256,384,l),
(192,384,l),
(192,320,l),
(128,320,l),
(128,192,l)
);
},
{
closed = 1;
nodes = (
(64,448,l),
(64,512,l),
(0,512,l),
(0,448,l)
);
},
{
closed = 1;
nodes = (
(256,0,l),
(256,128,l),
(128,128,l),
(128,0,l)
);
}
);
width = 512;
}
);
note = question;
unicode = 63;
},
{
glyphname = questiondown;
layers = (
{
hints = (
{
horizontal = 1;
place = (0, 64);
place = (0, 64);
type = Stem;
},
{
horizontal = 1;
place = (192, 64);
place = (192, 64);
type = Stem;
},
{
horizontal = 1;
place = (448, 128);
place = (448, 128);
type = Stem;
},
{
place = (128, 128);
place = (128, 128);
type = Stem;
},
{
place = (320, 64);
place = (320, 64);
type = Stem;
},
{
place = (64, 64);
place = (64, 64);
type = Stem;
},
{
place = (128, 64);
place = (128, 64);
type = Stem;
},
{
horizontal = 1;
place = (256, 128);
place = (256, 128);
type = Stem;
},
{
horizontal = 1;
place = (64, 128);
place = (64, 128);
type = Stem;
},
{
horizontal = 1;
place = (64, 64);
place = (64, 64);
type = Stem;
}
);
layerId = m01;
shapes = (
{
closed = 1;
nodes = (
(256,448,l),
(256,576,l),
(128,576,l),
(128,448,l)
);
},
{
closed = 1;
nodes = (
(320,64,l),
(128,64,l),
(128,192,l),
(192,192,l),
(192,256,l),
(256,256,l),
(256,384,l),
(128,384,l),
(128,256,l),
(64,256,l),
(64,192,l),
(0,192,l),
(0,64,l),
(64,64,l),
(64,0,l),
(320,0,l)
);
},
{
closed = 1;
nodes = (
(384,64,l),
(384,128,l),
(320,128,l),
(320,64,l)
);
}
);
width = 512;
}
);
note = questiondown;
unicode = 191;
},
{
glyphname = bullet;
layers = (
{
hints = (
{
horizontal = 1;
place = (260, 192);
place = (260, 192);
type = Stem;
},
{
place = (64, 192);
place = (64, 192);
type = Stem;
}
);
layerId = m01;
shapes = (
{
closed = 1;
nodes = (
(256,516,l),
(64,516,l),
(64,452,l),
(0,452,l),
(0,260,l),
(64,260,l),
(64,196,l),
(256,196,l),
(256,260,l),
(320,260,l),
(320,452,l),
(256,452,l)
);
}
);
width = 448;
}
);
note = bullet;
unicode = 8226;
},
{
glyphname = asterisk;
layers = (
{
hints = (
{
horizontal = 1;
place = (384, 64);
place = (384, 64);
type = Stem;
},
{
place = (0, 64);
place = (0, 64);
type = Stem;
},
{
place = (128, 64);
place = (128, 64);
type = Stem;
},
{
place = (256, 64);
place = (256, 64);
type = Stem;
},
{
horizontal = 1;
place = (320, 64);
place = (320, 64);
type = Stem;
},
{
horizontal = 1;
place = (448, 64);
place = (448, 64);
type = Stem;
}
);
layerId = m01;
shapes = (
{
closed = 1;
nodes = (
(192,448,l),
(192,576,l),
(128,576,l),
(128,448,l),
(64,448,l),
(64,384,l),
(128,384,l),
(128,256,l),
(192,256,l),
(192,384,l),
(256,384,l),
(256,448,l)
);
},
{
closed = 1;
nodes = (
(0,448,l),
(64,448,l),
(64,512,l),
(0,512,l)
);
},
{
closed = 1;
nodes = (
(256,512,l),
(256,448,l),
(320,448,l),
(320,512,l)
);
},
{
closed = 1;
nodes = (
(64,320,l),
(64,384,l),
(0,384,l),
(0,320,l)
);
},
{
closed = 1;
nodes = (
(320,384,l),
(256,384,l),
(256,320,l),
(320,320,l)
);
}
);
width = 448;
}
);
note = asterisk;
unicode = 42;
},
{
glyphname = numbersign;
layers = (
{
hints = (
{
horizontal = 1;
place = (128, 192);
place = (128, 192);
type = Stem;
},
{
horizontal = 1;
place = (448, 64);
place = (448, 64);
type = Stem;
},
{
place = (64, 64);
place = (64, 64);
type = Stem;
},
{
place = (256, 64);
place = (256, 64);
type = Stem;
},
{
horizontal = 1;
place = (256, 64);
place = (256, 64);
type = Stem;
},
{
place = (192, 64);
place = (192, 64);
type = Stem;
},
{
place = (320, 64);
place = (320, 64);
type = Stem;
},
{
place = (384, 64);
place = (384, 64);
type = Stem;
},
{
horizontal = 1;
place = (448, 192);
place = (448, 192);
type = Stem;
},
{
place = (128, 64);
place = (128, 64);
type = Stem;
}
);
layerId = m01;
shapes = (
{
closed = 1;
nodes = (
(320,128,l),
(320,256,l),
(448,256,l),
(448,320,l),
(384,320,l),
(384,448,l),
(512,448,l),
(512,512,l),
(448,512,l),
(448,640,l),
(384,640,l),
(384,512,l),
(256,512,l),
(256,640,l),
(192,640,l),
(192,512,l),
(64,512,l),
(64,448,l),
(128,448,l),
(128,320,l),
(0,320,l),
(0,256,l),
(64,256,l),
(64,128,l),
(128,128,l),
(128,256,l),
(256,256,l),
(256,128,l)
);
},
{
closed = 1;
nodes = (
(192,320,l),
(192,448,l),
(320,448,l),
(320,320,l)
);
}
);
width = 640;
}
);
note = numbersign;
unicode = 35;
},
{
glyphname = slash;
layers = (
{
hints = (
{
horizontal = 1;
place = (0, 128);
place = (0, 128);
type = Stem;
},
{
horizontal = 1;
place = (256, 128);
place = (256, 128);
type = Stem;
},
{
horizontal = 1;
place = (512, 128);
place = (512, 128);
type = Stem;
},
{
place = (0, 64);
place = (0, 64);
type = Stem;
},
{
place = (128, 64);
place = (128, 64);
type = Stem;
},
{
place = (256, 64);
place = (256, 64);
type = Stem;
},
{
horizontal = 1;
place = (384, 128);
place = (384, 128);
type = Stem;
},
{
place = (192, 64);
place = (192, 64);
type = Stem;
},
{
horizontal = 1;
place = (128, 128);
place = (128, 128);
type = Stem;
},
{
place = (64, 64);
place = (64, 64);
type = Stem;
}
);
layerId = m01;
shapes = (
{
closed = 1;
nodes = (
(320,512,l),
(320,640,l),
(256,640,l),
(256,512,l)
);
},
{
closed = 1;
nodes = (
(256,384,l),
(256,512,l),
(192,512,l),
(192,384,l)
);
},
{
closed = 1;
nodes = (
(192,256,l),
(192,384,l),
(128,384,l),
(128,256,l)
);
},
{
closed = 1;
nodes = (
(128,128,l),
(128,256,l),
(64,256,l),
(64,128,l)
);
},
{
closed = 1;
nodes = (
(64,0,l),
(64,128,l),
(0,128,l),
(0,0,l)
);
}
);
width = 448;
}
);
note = slash;
unicode = 47;
},
{
glyphname = backslash;
layers = (
{
hints = (
{
horizontal = 1;
place = (0, 128);
place = (0, 128);
type = Stem;
},
{
horizontal = 1;
place = (256, 128);
place = (256, 128);
type = Stem;
},
{
horizontal = 1;
place = (512, 128);
place = (512, 128);
type = Stem;
},
{
place = (0, 64);
place = (0, 64);
type = Stem;
},
{
place = (128, 64);
place = (128, 64);
type = Stem;
},
{
place = (256, 64);
place = (256, 64);
type = Stem;
},
{
horizontal = 1;
place = (384, 128);
place = (384, 128);
type = Stem;
},
{
place = (64, 64);
place = (64, 64);
type = Stem;
},
{
horizontal = 1;
place = (128, 128);
place = (128, 128);
type = Stem;
},
{
place = (192, 64);
place = (192, 64);
type = Stem;
}
);
layerId = m01;
shapes = (
{
closed = 1;
nodes = (
(64,512,l),
(64,640,l),
(0,640,l),
(0,512,l)
);
},
{
closed = 1;
nodes = (
(128,384,l),
(128,512,l),
(64,512,l),
(64,384,l)
);
},
{
closed = 1;
nodes = (
(192,256,l),
(192,384,l),
(128,384,l),
(128,256,l)
);
},
{
closed = 1;
nodes = (
(256,128,l),
(256,256,l),
(192,256,l),
(192,128,l)
);
},
{
closed = 1;
nodes = (
(320,0,l),
(320,128,l),
(256,128,l),
(256,0,l)
);
}
);
width = 448;
}
);
note = backslash;
unicode = 92;
},
{
glyphname = parenleft;
layers = (
{
hints = (
{
horizontal = 1;
place = (-64, 64);
place = (-64, 64);
type = Stem;
},
{
horizontal = 1;
place = (576, 64);
place = (576, 64);
type = Stem;
},
{
place = (128, 64);
place = (128, 64);
type = Stem;
},
{
place = (64, 64);
place = (64, 64);
type = Stem;
},
{
place = (0, 128);
place = (0, 128);
type = Stem;
}
);
layerId = m01;
shapes = (
{
closed = 1;
nodes = (
(192,576,l),
(192,640,l),
(128,640,l),
(128,576,l)
);
},
{
closed = 1;
nodes = (
(128,0,l),
(128,576,l),
(64,576,l),
(64,512,l),
(0,512,l),
(0,64,l),
(64,64,l),
(64,0,l)
);
},
{
closed = 1;
nodes = (
(192,-64,l),
(192,0,l),
(128,0,l),
(128,-64,l)
);
}
);
width = 320;
}
);
note = parenleft;
unicode = 40;
},
{
glyphname = parenright;
layers = (
{
hints = (
{
horizontal = 1;
place = (-64, 64);
place = (-64, 64);
type = Stem;
},
{
horizontal = 1;
place = (576, 64);
place = (576, 64);
type = Stem;
},
{
place = (0, 64);
place = (0, 64);
type = Stem;
},
{
place = (64, 64);
place = (64, 64);
type = Stem;
},
{
place = (64, 128);
place = (64, 128);
type = Stem;
}
);
layerId = m01;
shapes = (
{
closed = 1;
nodes = (
(64,640,l),
(0,640,l),
(0,576,l),
(64,576,l)
);
},
{
closed = 1;
nodes = (
(128,0,l),
(128,64,l),
(192,64,l),
(192,512,l),
(128,512,l),
(128,576,l),
(64,576,l),
(64,0,l)
);
},
{
closed = 1;
nodes = (
(64,-64,l),
(64,0,l),
(0,0,l),
(0,-64,l)
);
}
);
width = 320;
}
);
note = parenright;
unicode = 41;
},
{
glyphname = braceleft;
layers = (
{
hints = (
{
horizontal = 1;
place = (-64, 64);
place = (-64, 64);
type = Stem;
},
{
horizontal = 1;
place = (256, 64);
place = (256, 64);
type = Stem;
},
{
horizontal = 1;
place = (576, 64);
place = (576, 64);
type = Stem;
},
{
place = (128, 64);
place = (128, 64);
type = Stem;
},
{
horizontal = 1;
place = (320, 256);
place = (320, 256);
type = Stem;
},
{
place = (64, 64);
place = (64, 64);
type = Stem;
},
{
place = (0, 64);
place = (0, 64);
type = Stem;
},
{
place = (0, 128);
place = (0, 128);
type = Stem;
},
{
horizontal = 1;
place = (0, 256);
place = (0, 256);
type = Stem;
}
);
layerId = m01;
shapes = (
{
closed = 1;
nodes = (
(192,576,l),
(192,640,l),
(128,640,l),
(128,576,l)
);
},
{
closed = 1;
nodes = (
(128,320,l),
(128,576,l),
(64,576,l),
(64,320,l)
);
},
{
closed = 1;
nodes = (
(64,320,l),
(0,320,l),
(0,256,l),
(64,256,l)
);
},
{
closed = 1;
nodes = (
(128,0,l),
(128,256,l),
(64,256,l),
(64,0,l)
);
},
{
closed = 1;
nodes = (
(192,-64,l),
(192,0,l),
(128,0,l),
(128,-64,l)
);
}
);
width = 320;
}
);
note = braceleft;
unicode = 123;
},
{
glyphname = braceright;
layers = (
{
hints = (
{
horizontal = 1;
place = (-64, 64);
place = (-64, 64);
type = Stem;
},
{
horizontal = 1;
place = (256, 64);
place = (256, 64);
type = Stem;
},
{
horizontal = 1;
place = (576, 64);
place = (576, 64);
type = Stem;
},
{
place = (0, 64);
place = (0, 64);
type = Stem;
},
{
horizontal = 1;
place = (320, 256);
place = (320, 256);
type = Stem;
},
{
place = (64, 64);
place = (64, 64);
type = Stem;
},
{
place = (64, 128);
place = (64, 128);
type = Stem;
},
{
place = (128, 64);
place = (128, 64);
type = Stem;
},
{
horizontal = 1;
place = (0, 256);
place = (0, 256);
type = Stem;
}
);
layerId = m01;
shapes = (
{
closed = 1;
nodes = (
(64,640,l),
(0,640,l),
(0,576,l),
(64,576,l)
);
},
{
closed = 1;
nodes = (
(128,320,l),
(128,576,l),
(64,576,l),
(64,320,l)
);
},
{
closed = 1;
nodes = (
(192,256,l),
(192,320,l),
(128,320,l),
(128,256,l)
);
},
{
closed = 1;
nodes = (
(128,0,l),
(128,256,l),
(64,256,l),
(64,0,l)
);
},
{
closed = 1;
nodes = (
(64,-64,l),
(64,0,l),
(0,0,l),
(0,-64,l)
);
}
);
width = 320;
}
);
note = braceright;
unicode = 125;
},
{
glyphname = bracketleft;
layers = (
{
hints = (
{
horizontal = 1;
place = (-64, 64);
place = (-64, 64);
type = Stem;
},
{
horizontal = 1;
place = (576, 64);
place = (576, 64);
type = Stem;
},
{
place = (0, 128);
place = (0, 128);
type = Stem;
}
);
layerId = m01;
shapes = (
{
closed = 1;
nodes = (
(192,-64,l),
(192,0,l),
(128,0,l),
(128,576,l),
(192,576,l),
(192,640,l),
(0,640,l),
(0,-64,l)
);
}
);
width = 320;
}
);
note = bracketleft;
unicode = 91;
},
{
glyphname = bracketright;
layers = (
{
hints = (
{
horizontal = 1;
place = (-64, 64);
place = (-64, 64);
type = Stem;
},
{
horizontal = 1;
place = (576, 64);
place = (576, 64);
type = Stem;
},
{
place = (64, 128);
place = (64, 128);
type = Stem;
}
);
layerId = m01;
shapes = (
{
closed = 1;
nodes = (
(192,-64,l),
(192,640,l),
(0,640,l),
(0,576,l),
(64,576,l),
(64,0,l),
(0,0,l),
(0,-64,l)
);
}
);
width = 320;
}
);
note = bracketright;
unicode = 93;
},
{
glyphname = hyphen;
layers = (
{
hints = (
{
horizontal = 1;
place = (256, 64);
place = (256, 64);
type = Stem;
},
{
place = (0, 256);
place = (0, 256);
type = Stem;
}
);
layerId = m01;
shapes = (
{
closed = 1;
nodes = (
(256,320,l),
(0,320,l),
(0,256,l),
(256,256,l)
);
}
);
width = 448;
}
);
note = hyphen;
unicode = 45;
},
{
glyphname = emdash;
layers = (
{
hints = (
{
horizontal = 1;
place = (256, 64);
place = (256, 64);
type = Stem;
},
{
place = (0, 512);
place = (0, 512);
type = Stem;
}
);
layerId = m01;
shapes = (
{
closed = 1;
nodes = (
(512,320,l),
(0,320,l),
(0,256,l),
(512,256,l)
);
}
);
width = 704;
}
);
note = emdash;
unicode = 8212;
},
{
glyphname = underscore;
layers = (
{
hints = (
{
horizontal = 1;
place = (0, 64);
place = (0, 64);
type = Stem;
},
{
place = (0, 512);
place = (0, 512);
type = Stem;
}
);
layerId = m01;
shapes = (
{
closed = 1;
nodes = (
(512,64,l),
(0,64,l),
(0,0,l),
(512,0,l)
);
}
);
width = 640;
}
);
note = underscore;
unicode = 95;
},
{
glyphname = quotedblleft;
layers = (
{
hints = (
{
horizontal = 1;
place = (320, 128);
place = (320, 128);
type = Stem;
},
{
horizontal = 1;
place = (512, 64);
place = (512, 64);
type = Stem;
},
{
place = (64, 64);
place = (64, 64);
type = Stem;
},
{
place = (192, 64);
place = (192, 64);
type = Stem;
},
{
place = (0, 128);
place = (0, 128);
type = Stem;
},
{
place = (256, 64);
place = (256, 64);
type = Stem;
},
{
place = (0, 64);
place = (0, 64);
type = Stem;
},
{
place = (192, 128);
place = (192, 128);
type = Stem;
},
{
horizontal = 1;
place = (320, 192);
place = (320, 192);
type = Stem;
}
);
layerId = m01;
shapes = (
{
closed = 1;
nodes = (
(64,576,l),
(64,512,l),
(128,512,l),
(128,576,l)
);
},
{
closed = 1;
nodes = (
(256,576,l),
(256,512,l),
(320,512,l),
(320,576,l)
);
},
{
closed = 1;
nodes = (
(64,512,l),
(0,512,l),
(0,320,l),
(128,320,l),
(128,448,l),
(64,448,l)
);
},
{
closed = 1;
nodes = (
(256,512,l),
(192,512,l),
(192,320,l),
(320,320,l),
(320,448,l),
(256,448,l)
);
}
);
width = 448;
}
);
note = quotedblleft;
unicode = 8220;
},
{
glyphname = quotedblright;
layers = (
{
hints = (
{
horizontal = 1;
place = (384, 192);
place = (384, 192);
type = Stem;
},
{
place = (64, 64);
place = (64, 64);
type = Stem;
},
{
place = (256, 64);
place = (256, 64);
type = Stem;
},
{
horizontal = 1;
place = (320, 64);
place = (320, 64);
type = Stem;
},
{
horizontal = 1;
place = (448, 128);
place = (448, 128);
type = Stem;
},
{
place = (0, 128);
place = (0, 128);
type = Stem;
},
{
place = (192, 128);
place = (192, 128);
type = Stem;
},
{
place = (0, 64);
place = (0, 64);
type = Stem;
},
{
place = (192, 64);
place = (192, 64);
type = Stem;
}
);
layerId = m01;
shapes = (
{
closed = 1;
nodes = (
(64,384,l),
(128,384,l),
(128,576,l),
(0,576,l),
(0,448,l),
(64,448,l)
);
},
{
closed = 1;
nodes = (
(256,384,l),
(320,384,l),
(320,576,l),
(192,576,l),
(192,448,l),
(256,448,l)
);
},
{
closed = 1;
nodes = (
(64,320,l),
(64,384,l),
(0,384,l),
(0,320,l)
);
},
{
closed = 1;
nodes = (
(256,320,l),
(256,384,l),
(192,384,l),
(192,320,l)
);
}
);
width = 448;
}
);
note = quotedblright;
unicode = 8221;
},
{
glyphname = quoteleft;
layers = (
{
hints = (
{
horizontal = 1;
place = (320, 128);
place = (320, 128);
type = Stem;
},
{
horizontal = 1;
place = (512, 64);
place = (512, 64);
type = Stem;
},
{
place = (64, 64);
place = (64, 64);
type = Stem;
},
{
place = (0, 128);
place = (0, 128);
type = Stem;
},
{
place = (0, 64);
place = (0, 64);
type = Stem;
}
);
layerId = m01;
shapes = (
{
closed = 1;
nodes = (
(64,576,l),
(64,512,l),
(128,512,l),
(128,576,l)
);
},
{
closed = 1;
nodes = (
(64,512,l),
(0,512,l),
(0,320,l),
(128,320,l),
(128,448,l),
(64,448,l)
);
}
);
width = 256;
}
);
note = quoteleft;
unicode = 8216;
},
{
glyphname = quoteright;
layers = (
{
hints = (
{
horizontal = 1;
place = (320, 64);
place = (320, 64);
type = Stem;
},
{
horizontal = 1;
place = (448, 128);
place = (448, 128);
type = Stem;
},
{
place = (64, 64);
place = (64, 64);
type = Stem;
},
{
place = (0, 128);
place = (0, 128);
type = Stem;
},
{
place = (0, 64);
place = (0, 64);
type = Stem;
}
);
layerId = m01;
shapes = (
{
closed = 1;
nodes = (
(64,384,l),
(128,384,l),
(128,576,l),
(0,576,l),
(0,448,l),
(64,448,l)
);
},
{
closed = 1;
nodes = (
(64,320,l),
(64,384,l),
(0,384,l),
(0,320,l)
);
}
);
width = 256;
}
);
note = quoteright;
unicode = 8217;
},
{
glyphname = guillemotleft;
layers = (
{
hints = (
{
horizontal = 1;
place = (64, 64);
place = (64, 64);
type = Stem;
},
{
horizontal = 1;
place = (192, 64);
place = (192, 64);
type = Stem;
},
{
horizontal = 1;
place = (384, 64);
place = (384, 64);
type = Stem;
},
{
place = (64, 64);
place = (64, 64);
type = Stem;
},
{
place = (192, 64);
place = (192, 64);
type = Stem;
},
{
place = (320, 64);
place = (320, 64);
type = Stem;
},
{
place = (384, 64);
place = (384, 64);
type = Stem;
},
{
horizontal = 1;
place = (320, 64);
place = (320, 64);
type = Stem;
},
{
place = (128, 64);
place = (128, 64);
type = Stem;
},
{
horizontal = 1;
place = (256, 64);
place = (256, 64);
type = Stem;
},
{
place = (256, 64);
place = (256, 64);
type = Stem;
},
{
place = (0, 64);
place = (0, 64);
type = Stem;
},
{
horizontal = 1;
place = (128, 64);
place = (128, 64);
type = Stem;
},
{
horizontal = 1;
place = (0, 64);
place = (0, 64);
type = Stem;
}
);
layerId = m01;
shapes = (
{
closed = 1;
nodes = (
(256,384,l),
(256,448,l),
(192,448,l),
(192,384,l)
);
},
{
closed = 1;
nodes = (
(448,384,l),
(448,448,l),
(384,448,l),
(384,384,l)
);
},
{
closed = 1;
nodes = (
(192,320,l),
(192,384,l),
(128,384,l),
(128,320,l)
);
},
{
closed = 1;
nodes = (
(384,320,l),
(384,384,l),
(320,384,l),
(320,320,l)
);
},
{
closed = 1;
nodes = (
(128,256,l),
(128,320,l),
(64,320,l),
(64,256,l)
);
},
{
closed = 1;
nodes = (
(320,256,l),
(320,320,l),
(256,320,l),
(256,256,l)
);
},
{
closed = 1;
nodes = (
(64,256,l),
(0,256,l),
(0,192,l),
(64,192,l)
);
},
{
closed = 1;
nodes = (
(256,256,l),
(192,256,l),
(192,192,l),
(256,192,l)
);
},
{
closed = 1;
nodes = (
(128,192,l),
(64,192,l),
(64,128,l),
(128,128,l)
);
},
{
closed = 1;
nodes = (
(320,192,l),
(256,192,l),
(256,128,l),
(320,128,l)
);
},
{
closed = 1;
nodes = (
(192,128,l),
(128,128,l),
(128,64,l),
(192,64,l)
);
},
{
closed = 1;
nodes = (
(384,128,l),
(320,128,l),
(320,64,l),
(384,64,l)
);
},
{
closed = 1;
nodes = (
(256,0,l),
(256,64,l),
(192,64,l),
(192,0,l)
);
},
{
closed = 1;
nodes = (
(448,0,l),
(448,64,l),
(384,64,l),
(384,0,l)
);
}
);
width = 576;
}
);
note = guillemotleft;
unicode = 171;
},
{
glyphname = guillemotright;
layers = (
{
hints = (
{
horizontal = 1;
place = (0, 64);
place = (0, 64);
type = Stem;
},
{
horizontal = 1;
place = (128, 64);
place = (128, 64);
type = Stem;
},
{
horizontal = 1;
place = (256, 64);
place = (256, 64);
type = Stem;
},
{
horizontal = 1;
place = (384, 64);
place = (384, 64);
type = Stem;
},
{
place = (0, 64);
place = (0, 64);
type = Stem;
},
{
place = (192, 64);
place = (192, 64);
type = Stem;
},
{
place = (320, 64);
place = (320, 64);
type = Stem;
},
{
horizontal = 1;
place = (320, 64);
place = (320, 64);
type = Stem;
},
{
place = (64, 64);
place = (64, 64);
type = Stem;
},
{
place = (256, 64);
place = (256, 64);
type = Stem;
},
{
place = (128, 64);
place = (128, 64);
type = Stem;
},
{
horizontal = 1;
place = (192, 64);
place = (192, 64);
type = Stem;
},
{
place = (384, 64);
place = (384, 64);
type = Stem;
},
{
horizontal = 1;
place = (64, 64);
place = (64, 64);
type = Stem;
}
);
layerId = m01;
shapes = (
{
closed = 1;
nodes = (
(64,448,l),
(0,448,l),
(0,384,l),
(64,384,l)
);
},
{
closed = 1;
nodes = (
(256,448,l),
(192,448,l),
(192,384,l),
(256,384,l)
);
},
{
closed = 1;
nodes = (
(128,384,l),
(64,384,l),
(64,320,l),
(128,320,l)
);
},
{
closed = 1;
nodes = (
(320,384,l),
(256,384,l),
(256,320,l),
(320,320,l)
);
},
{
closed = 1;
nodes = (
(192,320,l),
(128,320,l),
(128,256,l),
(192,256,l)
);
},
{
closed = 1;
nodes = (
(384,320,l),
(320,320,l),
(320,256,l),
(384,256,l)
);
},
{
closed = 1;
nodes = (
(256,192,l),
(256,256,l),
(192,256,l),
(192,192,l)
);
},
{
closed = 1;
nodes = (
(448,192,l),
(448,256,l),
(384,256,l),
(384,192,l)
);
},
{
closed = 1;
nodes = (
(192,128,l),
(192,192,l),
(128,192,l),
(128,128,l)
);
},
{
closed = 1;
nodes = (
(384,128,l),
(384,192,l),
(320,192,l),
(320,128,l)
);
},
{
closed = 1;
nodes = (
(128,64,l),
(128,128,l),
(64,128,l),
(64,64,l)
);
},
{
closed = 1;
nodes = (
(320,64,l),
(320,128,l),
(256,128,l),
(256,64,l)
);
},
{
closed = 1;
nodes = (
(64,0,l),
(64,64,l),
(0,64,l),
(0,0,l)
);
},
{
closed = 1;
nodes = (
(256,0,l),
(256,64,l),
(192,64,l),
(192,0,l)
);
}
);
width = 576;
}
);
note = guillemotright;
unicode = 187;
},
{
glyphname = quotedbl;
layers = (
{
hints = (
{
horizontal = 1;
place = (382, 192);
place = (382, 192);
type = Stem;
},
{
place = (0, 64);
place = (0, 64);
type = Stem;
},
{
place = (128, 64);
place = (128, 64);
type = Stem;
}
);
layerId = m01;
shapes = (
{
closed = 1;
nodes = (
(0,382,l),
(64,382,l),
(64,574,l),
(0,574,l)
);
},
{
closed = 1;
nodes = (
(128,574,l),
(128,382,l),
(192,382,l),
(192,574,l)
);
}
);
width = 320;
}
);
note = quotedbl;
unicode = 34;
},
{
glyphname = quotesingle;
layers = (
{
hints = (
{
horizontal = 1;
place = (382, 192);
place = (382, 192);
type = Stem;
},
{
place = (0, 64);
place = (0, 64);
type = Stem;
}
);
layerId = m01;
shapes = (
{
closed = 1;
nodes = (
(0,382,l),
(64,382,l),
(64,574,l),
(0,574,l)
);
}
);
width = 192;
}
);
note = quotesingle;
unicode = 39;
},
{
glyphname = checkmark;
layers = (
{
hints = (
{
horizontal = 1;
place = (130, 64);
place = (130, 64);
type = Stem;
},
{
horizontal = 1;
place = (259, 65);
place = (259, 65);
type = Stem;
},
{
horizontal = 1;
place = (389, 65);
place = (389, 65);
type = Stem;
},
{
place = (0, 65);
place = (0, 65);
type = Stem;
},
{
place = (130, 64);
place = (130, 64);
type = Stem;
},
{
place = (324, 65);
place = (324, 65);
type = Stem;
},
{
place = (518, 65);
place = (518, 65);
type = Stem;
},
{
place = (454, 64);
place = (454, 64);
type = Stem;
},
{
horizontal = 1;
place = (324, 65);
place = (324, 65);
type = Stem;
},
{
place = (389, 65);
place = (389, 65);
type = Stem;
},
{
horizontal = 1;
place = (194, 65);
place = (194, 65);
type = Stem;
},
{
place = (259, 65);
place = (259, 65);
type = Stem;
},
{
place = (194, 65);
place = (194, 65);
type = Stem;
},
{
horizontal = 1;
place = (65, 65);
place = (65, 65);
type = Stem;
},
{
place = (65, 65);
place = (65, 65);
type = Stem;
}
);
layerId = m01;
shapes = (
{
closed = 1;
nodes = (
(518,454,l),
(454,454,l),
(454,389,l),
(389,389,l),
(389,324,l),
(324,324,l),
(324,259,l),
(259,259,l),
(259,194,l),
(194,194,l),
(194,130,l),
(130,130,l),
(130,194,l),
(65,194,l),
(65,259,l),
(0,259,l),
(0,130,l),
(65,130,l),
(65,65,l),
(130,65,l),
(130,0,l),
(194,0,l),
(194,65,l),
(259,65,l),
(259,130,l),
(324,130,l),
(324,194,l),
(389,194,l),
(389,259,l),
(454,259,l),
(454,324,l),
(518,324,l),
(518,389,l),
(583,389,l),
(583,518,l),
(518,518,l)
);
}
);
width = 711;
}
);
note = checkmark;
unicode = 10003;
},
{
glyphname = apple;
layers = (
{
hints = (
{
horizontal = 1;
place = (128, 128);
place = (128, 128);
type = Stem;
},
{
horizontal = 1;
place = (384, 64);
place = (384, 64);
type = Stem;
},
{
horizontal = 1;
place = (576, 64);
place = (576, 64);
type = Stem;
},
{
place = (256, 64);
place = (256, 64);
type = Stem;
},
{
place = (320, 64);
place = (320, 64);
type = Stem;
},
{
horizontal = 1;
place = (640, 64);
place = (640, 64);
type = Stem;
},
{
place = (320, 128);
place = (320, 128);
type = Stem;
},
{
place = (320, 192);
place = (320, 192);
type = Stem;
},
{
horizontal = 1;
place = (64, 192);
place = (64, 192);
type = Stem;
},
{
place = (64, 192);
place = (64, 192);
type = Stem;
},
{
place = (128, 128);
place = (128, 128);
type = Stem;
}
);
layerId = m01;
shapes = (
{
closed = 1;
nodes = (
(320,576,l),
(384,576,l),
(384,640,l),
(448,640,l),
(448,704,l),
(320,704,l),
(320,640,l),
(256,640,l),
(256,512,l),
(320,512,l)
);
},
{
closed = 1;
nodes = (
(448,0,l),
(448,64,l),
(512,64,l),
(512,128,l),
(576,128,l),
(576,256,l),
(448,256,l),
(448,384,l),
(576,384,l),
(576,448,l),
(512,448,l),
(512,512,l),
(320,512,l),
(320,448,l),
(256,448,l),
(256,512,l),
(64,512,l),
(64,448,l),
(0,448,l),
(0,128,l),
(64,128,l),
(64,64,l),
(128,64,l),
(128,0,l),
(256,0,l),
(256,64,l),
(320,64,l),
(320,0,l)
);
}
);
width = 704;
}
);
note = apple;
unicode = 63743;
},
{
glyphname = at;
layers = (
{
hints = (
{
horizontal = 1;
place = (0, 64);
place = (0, 64);
type = Stem;
},
{
horizontal = 1;
place = (128, 64);
place = (128, 64);
type = Stem;
},
{
horizontal = 1;
place = (320, 64);
place = (320, 64);
type = Stem;
},
{
horizontal = 1;
place = (448, 64);
place = (448, 64);
type = Stem;
},
{
place = (0, 64);
place = (0, 64);
type = Stem;
},
{
place = (128, 64);
place = (128, 64);
type = Stem;
},
{
place = (320, 64);
place = (320, 64);
type = Stem;
},
{
place = (512, 64);
place = (512, 64);
type = Stem;
},
{
horizontal = 1;
place = (384, 64);
place = (384, 64);
type = Stem;
},
{
place = (64, 64);
place = (64, 64);
type = Stem;
},
{
place = (448, 64);
place = (448, 64);
type = Stem;
},
{
horizontal = 1;
place = (192, 64);
place = (192, 64);
type = Stem;
},
{
place = (192, 128);
place = (192, 128);
type = Stem;
},
{
place = (384, 64);
place = (384, 64);
type = Stem;
},
{
horizontal = 1;
place = (192, 192);
place = (192, 192);
type = Stem;
},
{
horizontal = 1;
place = (192, 128);
place = (192, 128);
type = Stem;
},
{
horizontal = 1;
place = (64, 64);
place = (64, 64);
type = Stem;
}
);
layerId = m01;
shapes = (
{
closed = 1;
nodes = (
(448,512,l),
(128,512,l),
(128,448,l),
(448,448,l)
);
},
{
closed = 1;
nodes = (
(128,384,l),
(128,448,l),
(64,448,l),
(64,384,l)
);
},
{
closed = 1;
nodes = (
(448,384,l),
(512,384,l),
(512,448,l),
(448,448,l)
);
},
{
closed = 1;
nodes = (
(0,384,l),
(0,128,l),
(64,128,l),
(64,384,l)
);
},
{
closed = 1;
nodes = (
(384,256,l),
(384,384,l),
(192,384,l),
(192,320,l),
(320,320,l),
(320,192,l),
(384,192,l),
(384,128,l),
(512,128,l),
(512,192,l),
(448,192,l),
(448,256,l)
);
},
{
closed = 1;
nodes = (
(512,384,l),
(512,192,l),
(576,192,l),
(576,384,l)
);
},
{
closed = 1;
nodes = (
(128,320,l),
(128,192,l),
(192,192,l),
(192,320,l)
);
},
{
closed = 1;
nodes = (
(192,128,l),
(320,128,l),
(320,192,l),
(192,192,l)
);
},
{
closed = 1;
nodes = (
(128,128,l),
(64,128,l),
(64,64,l),
(128,64,l)
);
},
{
closed = 1;
nodes = (
(128,0,l),
(448,0,l),
(448,64,l),
(128,64,l)
);
}
);
width = 704;
}
);
note = at;
unicode = 64;
},
{
glyphname = ampersand;
layers = (
{
hints = (
{
horizontal = 1;
place = (0, 64);
place = (0, 64);
type = Stem;
},
{
horizontal = 1;
place = (256, 64);
place = (256, 64);
type = Stem;
},
{
horizontal = 1;
place = (512, 64);
place = (512, 64);
type = Stem;
},
{
place = (64, 64);
place = (64, 64);
type = Stem;
},
{
place = (256, 64);
place = (256, 64);
type = Stem;
},
{
place = (448, 64);
place = (448, 64);
type = Stem;
},
{
place = (256, 128);
place = (256, 128);
type = Stem;
},
{
horizontal = 1;
place = (320, 64);
place = (320, 64);
type = Stem;
},
{
horizontal = 1;
place = (384, 128);
place = (384, 128);
type = Stem;
},
{
place = (0, 128);
place = (0, 128);
type = Stem;
},
{
horizontal = 1;
place = (64, 256);
place = (64, 256);
type = Stem;
},
{
horizontal = 1;
place = (320, 128);
place = (320, 128);
type = Stem;
}
);
layerId = m01;
shapes = (
{
closed = 1;
nodes = (
(320,0,l),
(320,64,l),
(384,64,l),
(384,256,l),
(448,256,l),
(448,320,l),
(256,320,l),
(256,64,l),
(128,64,l),
(128,320,l),
(192,320,l),
(192,384,l),
(128,384,l),
(128,512,l),
(256,512,l),
(256,384,l),
(384,384,l),
(384,512,l),
(320,512,l),
(320,576,l),
(64,576,l),
(64,512,l),
(0,512,l),
(0,384,l),
(64,384,l),
(64,320,l),
(0,320,l),
(0,64,l),
(64,64,l),
(64,0,l)
);
},
{
closed = 1;
nodes = (
(512,320,l),
(512,448,l),
(448,448,l),
(448,320,l)
);
}
);
width = 640;
}
);
note = ampersand;
unicode = 38;
},
{
glyphname = paragraph;
layers = (
{
hints = (
{
horizontal = 1;
place = (256, 64);
place = (256, 64);
type = Stem;
},
{
horizontal = 1;
place = (512, 64);
place = (512, 64);
type = Stem;
},
{
place = (64, 64);
place = (64, 64);
type = Stem;
},
{
place = (256, 64);
place = (256, 64);
type = Stem;
},
{
place = (384, 64);
place = (384, 64);
type = Stem;
},
{
horizontal = 1;
place = (320, 192);
place = (320, 192);
type = Stem;
},
{
place = (0, 128);
place = (0, 128);
type = Stem;
}
);
layerId = m01;
shapes = (
{
closed = 1;
nodes = (
(448,0,l),
(448,576,l),
(64,576,l),
(64,512,l),
(0,512,l),
(0,320,l),
(64,320,l),
(64,256,l),
(256,256,l),
(256,0,l),
(320,0,l),
(320,512,l),
(384,512,l),
(384,0,l)
);
},
{
closed = 1;
nodes = (
(128,320,l),
(128,512,l),
(256,512,l),
(256,320,l)
);
}
);
width = 576;
}
);
note = paragraph;
unicode = 182;
},
{
glyphname = section;
layers = (
{
hints = (
{
horizontal = 1;
place = (576, 64);
place = (576, 64);
type = Stem;
},
{
place = (64, 192);
place = (64, 192);
type = Stem;
},
{
place = (64, 64);
place = (64, 64);
type = Stem;
},
{
horizontal = 1;
place = (128, 64);
place = (128, 64);
type = Stem;
},
{
horizontal = 1;
place = (256, 64);
place = (256, 64);
type = Stem;
},
{
place = (256, 64);
place = (256, 64);
type = Stem;
},
{
place = (192, 64);
place = (192, 64);
type = Stem;
},
{
horizontal = 1;
place = (320, 64);
place = (320, 64);
type = Stem;
},
{
place = (128, 64);
place = (128, 64);
type = Stem;
},
{
horizontal = 1;
place = (384, 64);
place = (384, 64);
type = Stem;
},
{
horizontal = 1;
place = (448, 64);
place = (448, 64);
type = Stem;
},
{
place = (0, 64);
place = (0, 64);
type = Stem;
},
{
place = (192, 128);
place = (192, 128);
type = Stem;
},
{
horizontal = 1;
place = (0, 64);
place = (0, 64);
type = Stem;
},
{
horizontal = 1;
place = (512, 64);
place = (512, 64);
type = Stem;
},
{
horizontal = 1;
place = (64, 64);
place = (64, 64);
type = Stem;
},
{
place = (0, 128);
place = (0, 128);
type = Stem;
},
{
horizontal = 1;
place = (192, 64);
place = (192, 64);
type = Stem;
},
{
horizontal = 1;
place = (-64, 64);
place = (-64, 64);
type = Stem;
},
{
horizontal = 1;
place = (-128, 64);
place = (-128, 64);
type = Stem;
}
);
layerId = m01;
shapes = (
{
closed = 1;
nodes = (
(256,640,l),
(64,640,l),
(64,576,l),
(256,576,l)
);
},
{
closed = 1;
nodes = (
(320,128,l),
(320,320,l),
(256,320,l),
(256,384,l),
(192,384,l),
(192,448,l),
(128,448,l),
(128,512,l),
(64,512,l),
(64,576,l),
(0,576,l),
(0,448,l),
(64,448,l),
(64,384,l),
(128,384,l),
(128,320,l),
(192,320,l),
(192,256,l),
(256,256,l),
(256,128,l)
);
},
{
closed = 1;
nodes = (
(320,512,l),
(320,576,l),
(256,576,l),
(256,512,l)
);
},
{
closed = 1;
nodes = (
(320,-64,l),
(320,64,l),
(256,64,l),
(256,128,l),
(192,128,l),
(192,192,l),
(128,192,l),
(128,256,l),
(64,256,l),
(64,384,l),
(0,384,l),
(0,192,l),
(64,192,l),
(64,128,l),
(128,128,l),
(128,64,l),
(192,64,l),
(192,0,l),
(256,0,l),
(256,-64,l)
);
},
{
closed = 1;
nodes = (
(64,0,l),
(0,0,l),
(0,-64,l),
(64,-64,l)
);
},
{
closed = 1;
nodes = (
(256,-64,l),
(64,-64,l),
(64,-128,l),
(256,-128,l)
);
}
);
width = 448;
}
);
note = section;
unicode = 167;
},
{
glyphname = copyright;
layers = (
{
hints = (
{
horizontal = 1;
place = (0, 64);
place = (0, 64);
type = Stem;
},
{
horizontal = 1;
place = (128, 64);
place = (128, 64);
type = Stem;
},
{
horizontal = 1;
place = (384, 64);
place = (384, 64);
type = Stem;
},
{
horizontal = 1;
place = (512, 64);
place = (512, 64);
type = Stem;
},
{
place = (0, 64);
place = (0, 64);
type = Stem;
},
{
place = (128, 64);
place = (128, 64);
type = Stem;
},
{
place = (320, 64);
place = (320, 64);
type = Stem;
},
{
place = (448, 64);
place = (448, 64);
type = Stem;
},
{
horizontal = 1;
place = (448, 64);
place = (448, 64);
type = Stem;
},
{
place = (64, 64);
place = (64, 64);
type = Stem;
},
{
place = (384, 64);
place = (384, 64);
type = Stem;
},
{
place = (192, 128);
place = (192, 128);
type = Stem;
},
{
horizontal = 1;
place = (192, 192);
place = (192, 192);
type = Stem;
},
{
horizontal = 1;
place = (192, 64);
place = (192, 64);
type = Stem;
},
{
horizontal = 1;
place = (320, 64);
place = (320, 64);
type = Stem;
},
{
horizontal = 1;
place = (64, 64);
place = (64, 64);
type = Stem;
}
);
layerId = m01;
shapes = (
{
closed = 1;
nodes = (
(384,576,l),
(128,576,l),
(128,512,l),
(384,512,l)
);
},
{
closed = 1;
nodes = (
(128,448,l),
(128,512,l),
(64,512,l),
(64,448,l)
);
},
{
closed = 1;
nodes = (
(448,512,l),
(384,512,l),
(384,448,l),
(448,448,l)
);
},
{
closed = 1;
nodes = (
(64,128,l),
(64,448,l),
(0,448,l),
(0,128,l)
);
},
{
closed = 1;
nodes = (
(320,448,l),
(192,448,l),
(192,384,l),
(320,384,l)
);
},
{
closed = 1;
nodes = (
(512,128,l),
(512,448,l),
(448,448,l),
(448,128,l)
);
},
{
closed = 1;
nodes = (
(192,192,l),
(192,384,l),
(128,384,l),
(128,192,l)
);
},
{
closed = 1;
nodes = (
(384,320,l),
(384,384,l),
(320,384,l),
(320,320,l)
);
},
{
closed = 1;
nodes = (
(384,192,l),
(384,256,l),
(320,256,l),
(320,192,l)
);
},
{
closed = 1;
nodes = (
(192,192,l),
(192,128,l),
(320,128,l),
(320,192,l)
);
},
{
closed = 1;
nodes = (
(128,128,l),
(64,128,l),
(64,64,l),
(128,64,l)
);
},
{
closed = 1;
nodes = (
(448,64,l),
(448,128,l),
(384,128,l),
(384,64,l)
);
},
{
closed = 1;
nodes = (
(384,64,l),
(128,64,l),
(128,0,l),
(384,0,l)
);
}
);
width = 640;
}
);
note = copyright;
unicode = 169;
},
{
glyphname = registered;
layers = (
{
hints = (
{
horizontal = 1;
place = (512, 64);
place = (512, 64);
type = Stem;
},
{
place = (128, 256);
place = (128, 256);
type = Stem;
},
{
horizontal = 1;
place = (448, 64);
place = (448, 64);
type = Stem;
},
{
place = (64, 64);
place = (64, 64);
type = Stem;
},
{
place = (384, 64);
place = (384, 64);
type = Stem;
},
{
horizontal = 1;
place = (256, 64);
place = (256, 64);
type = Stem;
},
{
horizontal = 1;
place = (384, 64);
place = (384, 64);
type = Stem;
},
{
place = (0, 64);
place = (0, 64);
type = Stem;
},
{
place = (128, 64);
place = (128, 64);
type = Stem;
},
{
place = (128, 192);
place = (128, 192);
type = Stem;
},
{
horizontal = 1;
place = (128, 128);
place = (128, 128);
type = Stem;
},
{
place = (448, 64);
place = (448, 64);
type = Stem;
},
{
horizontal = 1;
place = (320, 64);
place = (320, 64);
type = Stem;
},
{
place = (320, 64);
place = (320, 64);
type = Stem;
},
{
horizontal = 1;
place = (64, 64);
place = (64, 64);
type = Stem;
},
{
horizontal = 1;
place = (0, 64);
place = (0, 64);
type = Stem;
}
);
layerId = m01;
shapes = (
{
closed = 1;
nodes = (
(128,512,l),
(384,512,l),
(384,576,l),
(128,576,l)
);
},
{
closed = 1;
nodes = (
(64,512,l),
(64,448,l),
(128,448,l),
(128,512,l)
);
},
{
closed = 1;
nodes = (
(448,512,l),
(384,512,l),
(384,448,l),
(448,448,l)
);
},
{
closed = 1;
nodes = (
(64,128,l),
(64,448,l),
(0,448,l),
(0,128,l)
);
},
{
closed = 1;
nodes = (
(128,448,l),
(128,128,l),
(192,128,l),
(192,256,l),
(320,256,l),
(320,320,l),
(192,320,l),
(192,384,l),
(320,384,l),
(320,448,l)
);
},
{
closed = 1;
nodes = (
(448,448,l),
(448,128,l),
(512,128,l),
(512,448,l)
);
},
{
closed = 1;
nodes = (
(384,384,l),
(320,384,l),
(320,320,l),
(384,320,l)
);
},
{
closed = 1;
nodes = (
(384,128,l),
(384,256,l),
(320,256,l),
(320,128,l)
);
},
{
closed = 1;
nodes = (
(64,64,l),
(128,64,l),
(128,128,l),
(64,128,l)
);
},
{
closed = 1;
nodes = (
(448,64,l),
(448,128,l),
(384,128,l),
(384,64,l)
);
},
{
closed = 1;
nodes = (
(384,64,l),
(128,64,l),
(128,0,l),
(384,0,l)
);
}
);
width = 640;
}
);
note = registered;
unicode = 174;
},
{
glyphname = trademark;
layers = (
{
hints = (
{
horizontal = 1;
place = (383, 62);
place = (383, 62);
type = Stem;
},
{
horizontal = 1;
place = (508, 62);
place = (508, 62);
type = Stem;
},
{
place = (63, 62);
place = (63, 62);
type = Stem;
},
{
place = (250, 63);
place = (250, 63);
type = Stem;
},
{
place = (375, 63);
place = (375, 63);
type = Stem;
},
{
place = (500, 63);
place = (500, 63);
type = Stem;
},
{
horizontal = 1;
place = (445, 63);
place = (445, 63);
type = Stem;
}
);
layerId = m01;
shapes = (
{
closed = 1;
nodes = (
(0,508,l),
(63,508,l),
(63,320,l),
(125,320,l),
(125,508,l),
(188,508,l),
(188,570,l),
(0,570,l)
);
},
{
closed = 1;
nodes = (
(313,570,l),
(250,570,l),
(250,320,l),
(313,320,l),
(313,445,l),
(375,445,l),
(375,508,l),
(313,508,l)
);
},
{
closed = 1;
nodes = (
(500,508,l),
(438,508,l),
(438,445,l),
(500,445,l),
(500,320,l),
(563,320,l),
(563,570,l),
(500,570,l)
);
},
{
closed = 1;
nodes = (
(438,383,l),
(438,445,l),
(375,445,l),
(375,383,l)
);
}
);
width = 691;
}
);
note = trademark;
unicode = 8482;
},
{
glyphname = degree;
layers = (
{
hints = (
{
horizontal = 1;
place = (384, 64);
place = (384, 64);
type = Stem;
},
{
horizontal = 1;
place = (576, 64);
place = (576, 64);
type = Stem;
},
{
place = (64, 128);
place = (64, 128);
type = Stem;
},
{
horizontal = 1;
place = (448, 128);
place = (448, 128);
type = Stem;
},
{
place = (0, 64);
place = (0, 64);
type = Stem;
},
{
place = (192, 64);
place = (192, 64);
type = Stem;
}
);
layerId = m01;
shapes = (
{
closed = 1;
nodes = (
(192,640,l),
(64,640,l),
(64,576,l),
(192,576,l)
);
},
{
closed = 1;
nodes = (
(64,448,l),
(64,576,l),
(0,576,l),
(0,448,l)
);
},
{
closed = 1;
nodes = (
(256,448,l),
(256,576,l),
(192,576,l),
(192,448,l)
);
},
{
closed = 1;
nodes = (
(64,448,l),
(64,384,l),
(192,384,l),
(192,448,l)
);
}
);
width = 384;
}
);
note = degree;
unicode = 176;
},
{
glyphname = bar;
layers = (
{
hints = (
{
horizontal = 1;
place = (-64, 704);
place = (-64, 704);
type = Stem;
},
{
place = (0, 64);
place = (0, 64);
type = Stem;
}
);
layerId = m01;
shapes = (
{
closed = 1;
nodes = (
(64,-64,l),
(64,640,l),
(0,640,l),
(0,-64,l)
);
}
);
width = 192;
}
);
note = bar;
unicode = 124;
},
{
glyphname = brokenbar;
layers = (
{
hints = (
{
horizontal = 1;
place = (0, 256);
place = (0, 256);
type = Stem;
},
{
horizontal = 1;
place = (320, 256);
place = (320, 256);
type = Stem;
},
{
place = (0, 64);
place = (0, 64);
type = Stem;
}
);
layerId = m01;
shapes = (
{
closed = 1;
nodes = (
(64,320,l),
(64,576,l),
(0,576,l),
(0,320,l)
);
},
{
closed = 1;
nodes = (
(64,0,l),
(64,256,l),
(0,256,l),
(0,0,l)
);
}
);
width = 192;
}
);
note = brokenbar;
unicode = 166;
},
{
glyphname = dagger;
layers = (
{
hints = (
{
horizontal = 1;
place = (448, 64);
place = (448, 64);
type = Stem;
},
{
place = (64, 64);
place = (64, 64);
type = Stem;
}
);
layerId = m01;
shapes = (
{
closed = 1;
nodes = (
(128,576,l),
(64,576,l),
(64,512,l),
(0,512,l),
(0,448,l),
(64,448,l),
(64,256,l),
(128,256,l),
(128,448,l),
(192,448,l),
(192,512,l),
(128,512,l)
);
}
);
width = 320;
}
);
note = dagger;
unicode = 8224;
},
{
glyphname = cent;
layers = (
{
hints = (
{
horizontal = 1;
place = (192, 64);
place = (192, 64);
type = Stem;
},
{
horizontal = 1;
place = (512, 64);
place = (512, 64);
type = Stem;
},
{
place = (0, 64);
place = (0, 64);
type = Stem;
},
{
place = (128, 64);
place = (128, 64);
type = Stem;
},
{
place = (256, 64);
place = (256, 64);
type = Stem;
},
{
horizontal = 1;
place = (256, 256);
place = (256, 256);
type = Stem;
},
{
horizontal = 1;
place = (256, 64);
place = (256, 64);
type = Stem;
},
{
horizontal = 1;
place = (448, 64);
place = (448, 64);
type = Stem;
}
);
layerId = m01;
shapes = (
{
closed = 1;
nodes = (
(192,640,l),
(128,640,l),
(128,576,l),
(64,576,l),
(64,512,l),
(128,512,l),
(128,256,l),
(64,256,l),
(64,192,l),
(128,192,l),
(128,128,l),
(192,128,l),
(192,192,l),
(256,192,l),
(256,256,l),
(192,256,l),
(192,512,l),
(256,512,l),
(256,576,l),
(192,576,l)
);
},
{
closed = 1;
nodes = (
(64,256,l),
(64,512,l),
(0,512,l),
(0,256,l)
);
},
{
closed = 1;
nodes = (
(320,512,l),
(256,512,l),
(256,448,l),
(320,448,l)
);
},
{
closed = 1;
nodes = (
(256,320,l),
(256,256,l),
(320,256,l),
(320,320,l)
);
}
);
width = 448;
}
);
note = cent;
unicode = 162;
},
{
glyphname = currency;
layers = (
{
hints = (
{
horizontal = 1;
place = (512, 64);
place = (512, 64);
type = Stem;
},
{
place = (64, 128);
place = (64, 128);
type = Stem;
},
{
place = (384, 128);
place = (384, 128);
type = Stem;
},
{
horizontal = 1;
place = (384, 128);
place = (384, 128);
type = Stem;
},
{
place = (0, 64);
place = (0, 64);
type = Stem;
},
{
horizontal = 1;
place = (320, 64);
place = (320, 64);
type = Stem;
},
{
place = (320, 192);
place = (320, 192);
type = Stem;
},
{
place = (320, 64);
place = (320, 64);
type = Stem;
},
{
horizontal = 1;
place = (320, 192);
place = (320, 192);
type = Stem;
},
{
place = (192, 64);
place = (192, 64);
type = Stem;
},
{
place = (64, 192);
place = (64, 192);
type = Stem;
},
{
horizontal = 1;
place = (192, 64);
place = (192, 64);
type = Stem;
},
{
horizontal = 1;
place = (64, 192);
place = (64, 192);
type = Stem;
},
{
place = (512, 64);
place = (512, 64);
type = Stem;
},
{
horizontal = 1;
place = (64, 128);
place = (64, 128);
type = Stem;
},
{
horizontal = 1;
place = (0, 64);
place = (0, 64);
type = Stem;
}
);
layerId = m01;
shapes = (
{
closed = 1;
nodes = (
(64,576,l),
(64,512,l),
(192,512,l),
(192,576,l)
);
},
{
closed = 1;
nodes = (
(384,576,l),
(384,512,l),
(512,512,l),
(512,576,l)
);
},
{
closed = 1;
nodes = (
(0,384,l),
(64,384,l),
(64,512,l),
(0,512,l)
);
},
{
closed = 1;
nodes = (
(512,384,l),
(384,384,l),
(384,512,l),
(320,512,l),
(320,384,l),
(256,384,l),
(256,512,l),
(192,512,l),
(192,384,l),
(64,384,l),
(64,320,l),
(192,320,l),
(192,256,l),
(64,256,l),
(64,192,l),
(192,192,l),
(192,64,l),
(256,64,l),
(256,192,l),
(320,192,l),
(320,64,l),
(384,64,l),
(384,192,l),
(512,192,l),
(512,256,l),
(384,256,l),
(384,320,l),
(512,320,l)
);
},
{
closed = 1;
nodes = (
(576,512,l),
(512,512,l),
(512,384,l),
(576,384,l)
);
},
{
closed = 1;
nodes = (
(256,256,l),
(256,320,l),
(320,320,l),
(320,256,l)
);
},
{
closed = 1;
nodes = (
(0,64,l),
(64,64,l),
(64,192,l),
(0,192,l)
);
},
{
closed = 1;
nodes = (
(576,192,l),
(512,192,l),
(512,64,l),
(576,64,l)
);
},
{
closed = 1;
nodes = (
(192,0,l),
(192,64,l),
(64,64,l),
(64,0,l)
);
},
{
closed = 1;
nodes = (
(512,0,l),
(512,64,l),
(384,64,l),
(384,0,l)
);
}
);
width = 704;
}
);
note = currency;
unicode = 164;
},
{
glyphname = dollar;
layers = (
{
hints = (
{
horizontal = 1;
place = (0, 64);
place = (0, 64);
type = Stem;
},
{
horizontal = 1;
place = (128, 128);
place = (128, 128);
type = Stem;
},
{
horizontal = 1;
place = (512, 64);
place = (512, 64);
type = Stem;
},
{
place = (0, 64);
place = (0, 64);
type = Stem;
},
{
place = (128, 64);
place = (128, 64);
type = Stem;
},
{
place = (256, 64);
place = (256, 64);
type = Stem;
},
{
horizontal = 1;
place = (256, 64);
place = (256, 64);
type = Stem;
},
{
horizontal = 1;
place = (448, 64);
place = (448, 64);
type = Stem;
},
{
place = (128, 128);
place = (128, 128);
type = Stem;
},
{
horizontal = 1;
place = (320, 192);
place = (320, 192);
type = Stem;
},
{
horizontal = 1;
place = (320, 128);
place = (320, 128);
type = Stem;
},
{
horizontal = 1;
place = (64, 64);
place = (64, 64);
type = Stem;
}
);
layerId = m01;
shapes = (
{
closed = 1;
nodes = (
(192,-64,l),
(192,0,l),
(256,0,l),
(256,64,l),
(192,64,l),
(192,128,l),
(256,128,l),
(256,64,l),
(320,64,l),
(320,256,l),
(256,256,l),
(256,320,l),
(192,320,l),
(192,512,l),
(256,512,l),
(256,448,l),
(320,448,l),
(320,512,l),
(256,512,l),
(256,576,l),
(192,576,l),
(192,640,l),
(128,640,l),
(128,576,l),
(64,576,l),
(64,512,l),
(0,512,l),
(0,320,l),
(64,320,l),
(64,256,l),
(128,256,l),
(128,64,l),
(64,64,l),
(64,0,l),
(128,0,l),
(128,-64,l)
);
},
{
closed = 1;
nodes = (
(64,448,l),
(64,512,l),
(128,512,l),
(128,448,l)
);
},
{
closed = 1;
nodes = (
(64,128,l),
(0,128,l),
(0,64,l),
(64,64,l)
);
}
);
width = 448;
}
);
note = dollar;
unicode = 36;
},
{
glyphname = Euro;
layers = (
{
hints = (
{
horizontal = 1;
place = (0, 64);
place = (0, 64);
type = Stem;
},
{
horizontal = 1;
place = (192, 64);
place = (192, 64);
type = Stem;
},
{
horizontal = 1;
place = (320, 64);
place = (320, 64);
type = Stem;
},
{
horizontal = 1;
place = (512, 64);
place = (512, 64);
type = Stem;
},
{
place = (64, 128);
place = (64, 128);
type = Stem;
},
{
place = (384, 64);
place = (384, 64);
type = Stem;
},
{
place = (128, 64);
place = (128, 64);
type = Stem;
},
{
horizontal = 1;
place = (448, 64);
place = (448, 64);
type = Stem;
},
{
horizontal = 1;
place = (64, 64);
place = (64, 64);
type = Stem;
}
);
layerId = m01;
shapes = (
{
closed = 1;
nodes = (
(384,64,l),
(192,64,l),
(192,192,l),
(320,192,l),
(320,256,l),
(192,256,l),
(192,320,l),
(320,320,l),
(320,384,l),
(192,384,l),
(192,512,l),
(384,512,l),
(384,576,l),
(128,576,l),
(128,512,l),
(64,512,l),
(64,384,l),
(0,384,l),
(0,320,l),
(64,320,l),
(64,256,l),
(0,256,l),
(0,192,l),
(64,192,l),
(64,64,l),
(128,64,l),
(128,0,l),
(384,0,l)
);
},
{
closed = 1;
nodes = (
(448,448,l),
(448,512,l),
(384,512,l),
(384,448,l)
);
},
{
closed = 1;
nodes = (
(448,64,l),
(448,128,l),
(384,128,l),
(384,64,l)
);
}
);
width = 576;
}
);
note = Euro;
unicode = 8364;
},
{
glyphname = florin;
layers = (
{
hints = (
{
horizontal = 1;
place = (-58, 58);
place = (-58, 58);
type = Stem;
},
{
horizontal = 1;
place = (349, 58);
place = (349, 58);
type = Stem;
},
{
horizontal = 1;
place = (524, 58);
place = (524, 58);
type = Stem;
},
{
place = (58, 117);
place = (58, 117);
type = Stem;
},
{
place = (117, 58);
place = (117, 58);
type = Stem;
},
{
place = (58, 59);
place = (58, 59);
type = Stem;
}
);
layerId = m01;
shapes = (
{
closed = 1;
nodes = (
(233,582,l),
(117,582,l),
(117,524,l),
(58,524,l),
(58,407,l),
(0,407,l),
(0,349,l),
(58,349,l),
(58,0,l),
(0,0,l),
(0,-58,l),
(117,-58,l),
(117,0,l),
(175,0,l),
(175,349,l),
(233,349,l),
(233,407,l),
(175,407,l),
(175,524,l),
(233,524,l)
);
}
);
width = 360;
}
);
note = florin;
unicode = 402;
},
{
glyphname = sterling;
layers = (
{
hints = (
{
horizontal = 1;
place = (0, 64);
place = (0, 64);
type = Stem;
},
{
horizontal = 1;
place = (256, 64);
place = (256, 64);
type = Stem;
},
{
horizontal = 1;
place = (512, 64);
place = (512, 64);
type = Stem;
},
{
place = (64, 128);
place = (64, 128);
type = Stem;
},
{
place = (320, 64);
place = (320, 64);
type = Stem;
},
{
place = (128, 64);
place = (128, 64);
type = Stem;
},
{
horizontal = 1;
place = (448, 64);
place = (448, 64);
type = Stem;
},
{
horizontal = 1;
place = (64, 64);
place = (64, 64);
type = Stem;
},
{
place = (384, 64);
place = (384, 64);
type = Stem;
}
);
layerId = m01;
shapes = (
{
closed = 1;
nodes = (
(384,64,l),
(192,64,l),
(192,256,l),
(256,256,l),
(256,320,l),
(192,320,l),
(192,512,l),
(320,512,l),
(320,576,l),
(128,576,l),
(128,512,l),
(64,512,l),
(64,320,l),
(0,320,l),
(0,256,l),
(64,256,l),
(64,64,l),
(0,64,l),
(0,0,l),
(384,0,l)
);
},
{
closed = 1;
nodes = (
(384,448,l),
(384,512,l),
(320,512,l),
(320,448,l)
);
},
{
closed = 1;
nodes = (
(448,64,l),
(448,128,l),
(384,128,l),
(384,64,l)
);
}
);
width = 576;
}
);
note = sterling;
unicode = 163;
},
{
glyphname = yen;
layers = (
{
hints = (
{
horizontal = 1;
place = (256, 64);
place = (256, 64);
type = Stem;
},
{
horizontal = 1;
place = (384, 64);
place = (384, 64);
type = Stem;
},
{
horizontal = 1;
place = (512, 64);
place = (512, 64);
type = Stem;
},
{
place = (64, 64);
place = (64, 64);
type = Stem;
},
{
place = (192, 128);
place = (192, 128);
type = Stem;
},
{
place = (384, 64);
place = (384, 64);
type = Stem;
},
{
place = (384, 128);
place = (384, 128);
type = Stem;
},
{
place = (0, 128);
place = (0, 128);
type = Stem;
}
);
layerId = m01;
shapes = (
{
closed = 1;
nodes = (
(320,0,l),
(320,256,l),
(512,256,l),
(512,320,l),
(320,320,l),
(320,384,l),
(512,384,l),
(512,448,l),
(448,448,l),
(448,512,l),
(512,512,l),
(512,576,l),
(384,576,l),
(384,512,l),
(320,512,l),
(320,448,l),
(192,448,l),
(192,512,l),
(128,512,l),
(128,576,l),
(0,576,l),
(0,512,l),
(64,512,l),
(64,448,l),
(0,448,l),
(0,384,l),
(192,384,l),
(192,320,l),
(0,320,l),
(0,256,l),
(192,256,l),
(192,0,l)
);
}
);
width = 640;
}
);
note = yen;
unicode = 165;
},
{
glyphname = bulletoperator;
layers = (
{
hints = (
{
horizontal = 1;
place = (255, 66);
place = (255, 66);
type = Stem;
},
{
place = (199, 66);
place = (199, 66);
type = Stem;
}
);
layerId = m01;
shapes = (
{
closed = 1;
nodes = (
(398,388,l),
(332,388,l),
(332,454,l),
(265,454,l),
(265,520,l),
(199,520,l),
(199,454,l),
(133,454,l),
(133,388,l),
(66,388,l),
(66,321,l),
(0,321,l),
(0,255,l),
(66,255,l),
(66,189,l),
(133,189,l),
(133,122,l),
(199,122,l),
(199,56,l),
(265,56,l),
(265,122,l),
(332,122,l),
(332,189,l),
(398,189,l),
(398,255,l),
(464,255,l),
(464,321,l),
(398,321,l)
);
}
);
width = 592;
}
);
note = bulletoperator;
unicode = 8729;
},
{
glyphname = plus;
layers = (
{
hints = (
{
horizontal = 1;
place = (256, 64);
place = (256, 64);
type = Stem;
},
{
place = (128, 64);
place = (128, 64);
type = Stem;
}
);
layerId = m01;
shapes = (
{
closed = 1;
nodes = (
(192,128,l),
(192,256,l),
(320,256,l),
(320,320,l),
(192,320,l),
(192,448,l),
(128,448,l),
(128,320,l),
(0,320,l),
(0,256,l),
(128,256,l),
(128,128,l)
);
}
);
width = 448;
}
);
note = plus;
unicode = 43;
},
{
glyphname = multiply;
layers = (
{
hints = (
{
horizontal = 1;
place = (384, 64);
place = (384, 64);
type = Stem;
},
{
place = (0, 64);
place = (0, 64);
type = Stem;
},
{
place = (256, 64);
place = (256, 64);
type = Stem;
},
{
horizontal = 1;
place = (320, 64);
place = (320, 64);
type = Stem;
},
{
place = (64, 64);
place = (64, 64);
type = Stem;
},
{
place = (192, 64);
place = (192, 64);
type = Stem;
},
{
horizontal = 1;
place = (256, 64);
place = (256, 64);
type = Stem;
},
{
place = (128, 64);
place = (128, 64);
type = Stem;
},
{
horizontal = 1;
place = (192, 64);
place = (192, 64);
type = Stem;
},
{
horizontal = 1;
place = (128, 64);
place = (128, 64);
type = Stem;
}
);
layerId = m01;
shapes = (
{
closed = 1;
nodes = (
(64,448,l),
(0,448,l),
(0,384,l),
(64,384,l)
);
},
{
closed = 1;
nodes = (
(320,384,l),
(320,448,l),
(256,448,l),
(256,384,l)
);
},
{
closed = 1;
nodes = (
(128,384,l),
(64,384,l),
(64,320,l),
(128,320,l)
);
},
{
closed = 1;
nodes = (
(256,320,l),
(256,384,l),
(192,384,l),
(192,320,l)
);
},
{
closed = 1;
nodes = (
(192,320,l),
(128,320,l),
(128,256,l),
(192,256,l)
);
},
{
closed = 1;
nodes = (
(128,192,l),
(128,256,l),
(64,256,l),
(64,192,l)
);
},
{
closed = 1;
nodes = (
(256,256,l),
(192,256,l),
(192,192,l),
(256,192,l)
);
},
{
closed = 1;
nodes = (
(64,128,l),
(64,192,l),
(0,192,l),
(0,128,l)
);
},
{
closed = 1;
nodes = (
(320,128,l),
(320,192,l),
(256,192,l),
(256,128,l)
);
}
);
width = 448;
}
);
note = multiply;
unicode = 215;
},
{
glyphname = divide;
layers = (
{
hints = (
{
horizontal = 1;
place = (128, 64);
place = (128, 64);
type = Stem;
},
{
horizontal = 1;
place = (256, 64);
place = (256, 64);
type = Stem;
},
{
horizontal = 1;
place = (384, 64);
place = (384, 64);
type = Stem;
},
{
place = (128, 64);
place = (128, 64);
type = Stem;
}
);
layerId = m01;
shapes = (
{
closed = 1;
nodes = (
(192,384,l),
(192,448,l),
(128,448,l),
(128,384,l)
);
},
{
closed = 1;
nodes = (
(320,320,l),
(0,320,l),
(0,256,l),
(320,256,l)
);
},
{
closed = 1;
nodes = (
(192,128,l),
(192,192,l),
(128,192,l),
(128,128,l)
);
}
);
width = 448;
}
);
note = divide;
unicode = 247;
},
{
glyphname = equal;
layers = (
{
hints = (
{
horizontal = 1;
place = (192, 64);
place = (192, 64);
type = Stem;
},
{
horizontal = 1;
place = (320, 64);
place = (320, 64);
type = Stem;
},
{
place = (0, 384);
place = (0, 384);
type = Stem;
}
);
layerId = m01;
shapes = (
{
closed = 1;
nodes = (
(384,384,l),
(0,384,l),
(0,320,l),
(384,320,l)
);
},
{
closed = 1;
nodes = (
(384,256,l),
(0,256,l),
(0,192,l),
(384,192,l)
);
}
);
width = 512;
}
);
note = equal;
unicode = 61;
},
{
glyphname = notequal;
layers = (
{
hints = (
{
horizontal = 1;
place = (192, 64);
place = (192, 64);
type = Stem;
},
{
horizontal = 1;
place = (320, 64);
place = (320, 64);
type = Stem;
},
{
place = (128, 64);
place = (128, 64);
type = Stem;
},
{
place = (256, 64);
place = (256, 64);
type = Stem;
},
{
place = (192, 64);
place = (192, 64);
type = Stem;
}
);
layerId = m01;
shapes = (
{
closed = 1;
nodes = (
(448,384,l),
(320,384,l),
(320,448,l),
(256,448,l),
(256,384,l),
(0,384,l),
(0,320,l),
(192,320,l),
(192,256,l),
(0,256,l),
(0,192,l),
(128,192,l),
(128,128,l),
(192,128,l),
(192,192,l),
(448,192,l),
(448,256,l),
(256,256,l),
(256,320,l),
(448,320,l)
);
}
);
width = 576;
}
);
note = notequal;
unicode = 8800;
},
{
glyphname = greater;
layers = (
{
hints = (
{
horizontal = 1;
place = (64, 64);
place = (64, 64);
type = Stem;
},
{
horizontal = 1;
place = (256, 64);
place = (256, 64);
type = Stem;
},
{
horizontal = 1;
place = (448, 64);
place = (448, 64);
type = Stem;
},
{
place = (64, 64);
place = (64, 64);
type = Stem;
},
{
horizontal = 1;
place = (128, 64);
place = (128, 64);
type = Stem;
},
{
place = (128, 64);
place = (128, 64);
type = Stem;
},
{
horizontal = 1;
place = (192, 64);
place = (192, 64);
type = Stem;
},
{
place = (192, 64);
place = (192, 64);
type = Stem;
},
{
horizontal = 1;
place = (320, 64);
place = (320, 64);
type = Stem;
},
{
horizontal = 1;
place = (384, 64);
place = (384, 64);
type = Stem;
}
);
layerId = m01;
shapes = (
{
closed = 1;
nodes = (
(128,64,l),
(128,128,l),
(192,128,l),
(192,192,l),
(256,192,l),
(256,256,l),
(320,256,l),
(320,320,l),
(256,320,l),
(256,384,l),
(192,384,l),
(192,448,l),
(128,448,l),
(128,512,l),
(0,512,l),
(0,448,l),
(64,448,l),
(64,384,l),
(128,384,l),
(128,320,l),
(192,320,l),
(192,256,l),
(128,256,l),
(128,192,l),
(64,192,l),
(64,128,l),
(0,128,l),
(0,64,l)
);
}
);
width = 448;
}
);
note = greater;
unicode = 62;
},
{
glyphname = less;
layers = (
{
hints = (
{
horizontal = 1;
place = (64, 64);
place = (64, 64);
type = Stem;
},
{
horizontal = 1;
place = (256, 64);
place = (256, 64);
type = Stem;
},
{
horizontal = 1;
place = (448, 64);
place = (448, 64);
type = Stem;
},
{
place = (192, 64);
place = (192, 64);
type = Stem;
},
{
horizontal = 1;
place = (128, 64);
place = (128, 64);
type = Stem;
},
{
place = (128, 64);
place = (128, 64);
type = Stem;
},
{
horizontal = 1;
place = (192, 64);
place = (192, 64);
type = Stem;
},
{
horizontal = 1;
place = (320, 64);
place = (320, 64);
type = Stem;
},
{
place = (64, 64);
place = (64, 64);
type = Stem;
},
{
horizontal = 1;
place = (384, 64);
place = (384, 64);
type = Stem;
}
);
layerId = m01;
shapes = (
{
closed = 1;
nodes = (
(320,64,l),
(320,128,l),
(256,128,l),
(256,192,l),
(192,192,l),
(192,256,l),
(128,256,l),
(128,320,l),
(192,320,l),
(192,384,l),
(256,384,l),
(256,448,l),
(320,448,l),
(320,512,l),
(192,512,l),
(192,448,l),
(128,448,l),
(128,384,l),
(64,384,l),
(64,320,l),
(0,320,l),
(0,256,l),
(64,256,l),
(64,192,l),
(128,192,l),
(128,128,l),
(192,128,l),
(192,64,l)
);
}
);
width = 448;
}
);
note = less;
unicode = 60;
},
{
glyphname = greaterequal;
layers = (
{
hints = (
{
horizontal = 1;
place = (384, 64);
place = (384, 64);
type = Stem;
},
{
place = (64, 64);
place = (64, 64);
type = Stem;
},
{
horizontal = 1;
place = (320, 64);
place = (320, 64);
type = Stem;
},
{
place = (128, 64);
place = (128, 64);
type = Stem;
},
{
horizontal = 1;
place = (256, 64);
place = (256, 64);
type = Stem;
},
{
place = (192, 64);
place = (192, 64);
type = Stem;
},
{
horizontal = 1;
place = (192, 64);
place = (192, 64);
type = Stem;
},
{
horizontal = 1;
place = (0, 64);
place = (0, 64);
type = Stem;
},
{
horizontal = 1;
place = (128, 64);
place = (128, 64);
type = Stem;
}
);
layerId = m01;
shapes = (
{
closed = 1;
nodes = (
(64,384,l),
(128,384,l),
(128,448,l),
(64,448,l)
);
},
{
closed = 1;
nodes = (
(128,320,l),
(192,320,l),
(192,384,l),
(128,384,l)
);
},
{
closed = 1;
nodes = (
(192,256,l),
(256,256,l),
(256,320,l),
(192,320,l)
);
},
{
closed = 1;
nodes = (
(192,192,l),
(192,256,l),
(128,256,l),
(128,192,l)
);
},
{
closed = 1;
nodes = (
(128,128,l),
(128,192,l),
(64,192,l),
(64,128,l)
);
},
{
closed = 1;
nodes = (
(256,0,l),
(256,64,l),
(0,64,l),
(0,0,l)
);
}
);
width = 384;
}
);
note = greaterequal;
unicode = 8805;
},
{
glyphname = lessequal;
layers = (
{
hints = (
{
horizontal = 1;
place = (384, 64);
place = (384, 64);
type = Stem;
},
{
place = (128, 64);
place = (128, 64);
type = Stem;
},
{
horizontal = 1;
place = (320, 64);
place = (320, 64);
type = Stem;
},
{
place = (64, 64);
place = (64, 64);
type = Stem;
},
{
horizontal = 1;
place = (256, 64);
place = (256, 64);
type = Stem;
},
{
place = (0, 64);
place = (0, 64);
type = Stem;
},
{
horizontal = 1;
place = (192, 64);
place = (192, 64);
type = Stem;
},
{
horizontal = 1;
place = (128, 64);
place = (128, 64);
type = Stem;
},
{
horizontal = 1;
place = (0, 64);
place = (0, 64);
type = Stem;
},
{
place = (0, 256);
place = (0, 256);
type = Stem;
}
);
layerId = m01;
shapes = (
{
closed = 1;
nodes = (
(128,448,l),
(128,384,l),
(192,384,l),
(192,448,l)
);
},
{
closed = 1;
nodes = (
(64,384,l),
(64,320,l),
(128,320,l),
(128,384,l)
);
},
{
closed = 1;
nodes = (
(0,320,l),
(0,256,l),
(64,256,l),
(64,320,l)
);
},
{
closed = 1;
nodes = (
(128,256,l),
(64,256,l),
(64,192,l),
(128,192,l)
);
},
{
closed = 1;
nodes = (
(192,192,l),
(128,192,l),
(128,128,l),
(192,128,l)
);
},
{
closed = 1;
nodes = (
(0,0,l),
(256,0,l),
(256,64,l),
(0,64,l)
);
}
);
width = 384;
}
);
note = lessequal;
unicode = 8804;
},
{
glyphname = plusminus;
layers = (
{
hints = (
{
horizontal = 1;
place = (0, 64);
place = (0, 64);
type = Stem;
},
{
horizontal = 1;
place = (256, 64);
place = (256, 64);
type = Stem;
},
{
place = (128, 64);
place = (128, 64);
type = Stem;
}
);
layerId = m01;
shapes = (
{
closed = 1;
nodes = (
(192,448,l),
(128,448,l),
(128,320,l),
(0,320,l),
(0,256,l),
(128,256,l),
(128,128,l),
(192,128,l),
(192,256,l),
(320,256,l),
(320,320,l),
(192,320,l)
);
},
{
closed = 1;
nodes = (
(320,0,l),
(320,64,l),
(0,64,l),
(0,0,l)
);
}
);
width = 428;
}
);
note = plusminus;
unicode = 177;
},
{
glyphname = approxequal;
layers = (
{
hints = (
{
horizontal = 1;
place = (384, 64);
place = (384, 64);
type = Stem;
},
{
place = (320, 64);
place = (320, 64);
type = Stem;
},
{
horizontal = 1;
place = (320, 64);
place = (320, 64);
type = Stem;
},
{
place = (64, 256);
place = (64, 256);
type = Stem;
},
{
horizontal = 1;
place = (256, 64);
place = (256, 64);
type = Stem;
},
{
place = (0, 64);
place = (0, 64);
type = Stem;
},
{
horizontal = 1;
place = (192, 64);
place = (192, 64);
type = Stem;
},
{
horizontal = 1;
place = (128, 64);
place = (128, 64);
type = Stem;
}
);
layerId = m01;
shapes = (
{
closed = 1;
nodes = (
(320,448,l),
(320,384,l),
(384,384,l),
(384,448,l)
);
},
{
closed = 1;
nodes = (
(64,320,l),
(320,320,l),
(320,384,l),
(64,384,l)
);
},
{
closed = 1;
nodes = (
(0,256,l),
(64,256,l),
(64,320,l),
(0,320,l)
);
},
{
closed = 1;
nodes = (
(384,320,l),
(320,320,l),
(320,256,l),
(384,256,l)
);
},
{
closed = 1;
nodes = (
(320,192,l),
(320,256,l),
(64,256,l),
(64,192,l)
);
},
{
closed = 1;
nodes = (
(64,128,l),
(64,192,l),
(0,192,l),
(0,128,l)
);
}
);
width = 512;
}
);
note = approxequal;
unicode = 8776;
},
{
glyphname = asciitilde;
layers = (
{
hints = (
{
horizontal = 1;
place = (384, 64);
place = (384, 64);
type = Stem;
},
{
place = (64, 128);
place = (64, 128);
type = Stem;
},
{
place = (320, 64);
place = (320, 64);
type = Stem;
},
{
horizontal = 1;
place = (320, 64);
place = (320, 64);
type = Stem;
},
{
place = (0, 64);
place = (0, 64);
type = Stem;
},
{
place = (192, 128);
place = (192, 128);
type = Stem;
}
);
layerId = m01;
shapes = (
{
closed = 1;
nodes = (
(192,448,l),
(64,448,l),
(64,384,l),
(192,384,l)
);
},
{
closed = 1;
nodes = (
(384,384,l),
(384,448,l),
(320,448,l),
(320,384,l)
);
},
{
closed = 1;
nodes = (
(64,320,l),
(64,384,l),
(0,384,l),
(0,320,l)
);
},
{
closed = 1;
nodes = (
(192,384,l),
(192,320,l),
(320,320,l),
(320,384,l)
);
}
);
width = 512;
}
);
note = asciitilde;
unicode = 126;
},
{
glyphname = logicalnot;
layers = (
{
hints = (
{
horizontal = 1;
place = (288, 64);
place = (288, 64);
type = Stem;
},
{
place = (256, 64);
place = (256, 64);
type = Stem;
},
{
horizontal = 1;
place = (160, 192);
place = (160, 192);
type = Stem;
}
);
layerId = m01;
shapes = (
{
closed = 1;
nodes = (
(0,288,l),
(256,288,l),
(256,160,l),
(320,160,l),
(320,352,l),
(0,352,l)
);
}
);
width = 448;
}
);
note = logicalnot;
unicode = 172;
},
{
glyphname = asciicircum;
layers = (
{
hints = (
{
horizontal = 1;
place = (512, 64);
place = (512, 64);
type = Stem;
},
{
place = (0, 64);
place = (0, 64);
type = Stem;
},
{
place = (128, 64);
place = (128, 64);
type = Stem;
},
{
place = (256, 64);
place = (256, 64);
type = Stem;
},
{
horizontal = 1;
place = (448, 64);
place = (448, 64);
type = Stem;
},
{
place = (64, 64);
place = (64, 64);
type = Stem;
},
{
place = (192, 64);
place = (192, 64);
type = Stem;
},
{
horizontal = 1;
place = (384, 64);
place = (384, 64);
type = Stem;
}
);
layerId = m01;
shapes = (
{
closed = 1;
nodes = (
(192,576,l),
(128,576,l),
(128,512,l),
(192,512,l)
);
},
{
closed = 1;
nodes = (
(128,448,l),
(128,512,l),
(64,512,l),
(64,448,l)
);
},
{
closed = 1;
nodes = (
(256,512,l),
(192,512,l),
(192,448,l),
(256,448,l)
);
},
{
closed = 1;
nodes = (
(64,384,l),
(64,448,l),
(0,448,l),
(0,384,l)
);
},
{
closed = 1;
nodes = (
(320,384,l),
(320,448,l),
(256,448,l),
(256,384,l)
);
}
);
width = 448;
}
);
note = asciicircum;
unicode = 94;
},
{
glyphname = infinity;
layers = (
{
hints = (
{
horizontal = 1;
place = (352, 64);
place = (352, 64);
type = Stem;
},
{
place = (64, 192);
place = (64, 192);
type = Stem;
},
{
place = (448, 64);
place = (448, 64);
type = Stem;
},
{
horizontal = 1;
place = (288, 64);
place = (288, 64);
type = Stem;
},
{
place = (384, 64);
place = (384, 64);
type = Stem;
},
{
horizontal = 1;
place = (224, 64);
place = (224, 64);
type = Stem;
},
{
place = (320, 64);
place = (320, 64);
type = Stem;
},
{
horizontal = 1;
place = (160, 64);
place = (160, 64);
type = Stem;
},
{
place = (256, 64);
place = (256, 64);
type = Stem;
},
{
horizontal = 1;
place = (96, 64);
place = (96, 64);
type = Stem;
},
{
horizontal = 1;
place = (160, 192);
place = (160, 192);
type = Stem;
},
{
place = (0, 64);
place = (0, 64);
type = Stem;
},
{
place = (704, 64);
place = (704, 64);
type = Stem;
},
{
place = (512, 192);
place = (512, 192);
type = Stem;
}
);
layerId = m01;
shapes = (
{
closed = 1;
nodes = (
(64,416,l),
(64,352,l),
(256,352,l),
(256,416,l)
);
},
{
closed = 1;
nodes = (
(512,352,l),
(704,352,l),
(704,416,l),
(448,416,l),
(448,352,l),
(384,352,l),
(384,288,l),
(320,288,l),
(320,224,l),
(256,224,l),
(256,160,l),
(64,160,l),
(64,96,l),
(320,96,l),
(320,160,l),
(384,160,l),
(384,224,l),
(448,224,l),
(448,288,l),
(512,288,l)
);
},
{
closed = 1;
nodes = (
(0,160,l),
(64,160,l),
(64,352,l),
(0,352,l)
);
},
{
closed = 1;
nodes = (
(320,352,l),
(256,352,l),
(256,288,l),
(320,288,l)
);
},
{
closed = 1;
nodes = (
(704,160,l),
(768,160,l),
(768,352,l),
(704,352,l)
);
},
{
closed = 1;
nodes = (
(448,160,l),
(512,160,l),
(512,224,l),
(448,224,l)
);
},
{
closed = 1;
nodes = (
(704,96,l),
(704,160,l),
(512,160,l),
(512,96,l)
);
}
);
width = 896;
}
);
note = infinity;
unicode = 8734;
},
{
glyphname = integral;
layers = (
{
hints = (
{
horizontal = 1;
place = (-58, 58);
place = (-58, 58);
type = Stem;
},
{
horizontal = 1;
place = (524, 58);
place = (524, 58);
type = Stem;
},
{
place = (117, 58);
place = (117, 58);
type = Stem;
},
{
place = (59, 116);
place = (59, 116);
type = Stem;
},
{
place = (59, 58);
place = (59, 58);
type = Stem;
}
);
layerId = m01;
shapes = (
{
closed = 1;
nodes = (
(117,524,l),
(59,524,l),
(59,0,l),
(0,0,l),
(0,-58,l),
(117,-58,l),
(117,0,l),
(175,0,l),
(175,524,l),
(233,524,l),
(233,582,l),
(117,582,l)
);
}
);
width = 360;
}
);
note = integral;
unicode = 8747;
},
{
glyphname = uni2126;
layers = (
{
hints = (
{
horizontal = 1;
place = (0, 64);
place = (0, 64);
type = Stem;
},
{
horizontal = 1;
place = (450, 65);
place = (450, 65);
type = Stem;
},
{
place = (129, 64);
place = (129, 64);
type = Stem;
},
{
place = (386, 64);
place = (386, 64);
type = Stem;
},
{
place = (322, 64);
place = (322, 64);
type = Stem;
},
{
horizontal = 1;
place = (515, 64);
place = (515, 64);
type = Stem;
},
{
place = (64, 65);
place = (64, 65);
type = Stem;
},
{
horizontal = 1;
place = (257, 193);
place = (257, 193);
type = Stem;
}
);
layerId = m01;
shapes = (
{
closed = 1;
nodes = (
(450,515,l),
(386,515,l),
(386,579,l),
(129,579,l),
(129,515,l),
(64,515,l),
(64,450,l),
(0,450,l),
(0,257,l),
(64,257,l),
(64,193,l),
(129,193,l),
(129,450,l),
(193,450,l),
(193,515,l),
(322,515,l),
(322,450,l),
(386,450,l),
(386,193,l),
(450,193,l),
(450,257,l),
(515,257,l),
(515,450,l),
(450,450,l)
);
},
{
closed = 1;
nodes = (
(64,0,l),
(193,0,l),
(193,193,l),
(129,193,l),
(129,64,l),
(64,64,l)
);
},
{
closed = 1;
nodes = (
(322,0,l),
(450,0,l),
(450,64,l),
(386,64,l),
(386,193,l),
(322,193,l)
);
}
);
width = 643;
}
);
note = uni2126;
unicode = 8486;
},
{
glyphname = uni2206;
layers = (
{
hints = (
{
horizontal = 1;
place = (432, 144);
place = (432, 144);
type = Stem;
},
{
place = (216, 72);
place = (216, 72);
type = Stem;
},
{
horizontal = 1;
place = (288, 144);
place = (288, 144);
type = Stem;
},
{
place = (144, 72);
place = (144, 72);
type = Stem;
},
{
place = (288, 72);
place = (288, 72);
type = Stem;
},
{
horizontal = 1;
place = (144, 144);
place = (144, 144);
type = Stem;
},
{
place = (72, 72);
place = (72, 72);
type = Stem;
},
{
place = (360, 72);
place = (360, 72);
type = Stem;
},
{
horizontal = 1;
place = (0, 72);
place = (0, 72);
type = Stem;
},
{
place = (0, 72);
place = (0, 72);
type = Stem;
},
{
place = (432, 72);
place = (432, 72);
type = Stem;
}
);
layerId = m01;
shapes = (
{
closed = 1;
nodes = (
(216,576,l),
(216,432,l),
(288,432,l),
(288,576,l)
);
},
{
closed = 1;
nodes = (
(144,432,l),
(144,288,l),
(216,288,l),
(216,432,l)
);
},
{
closed = 1;
nodes = (
(360,432,l),
(288,432,l),
(288,288,l),
(360,288,l)
);
},
{
closed = 1;
nodes = (
(72,288,l),
(72,144,l),
(144,144,l),
(144,288,l)
);
},
{
closed = 1;
nodes = (
(432,288,l),
(360,288,l),
(360,144,l),
(432,144,l)
);
},
{
closed = 1;
nodes = (
(432,72,l),
(72,72,l),
(72,144,l),
(0,144,l),
(0,0,l),
(504,0,l),
(504,144,l),
(432,144,l)
);
}
);
width = 632;
}
);
note = uni2206;
unicode = 8710;
},
{
glyphname = product;
layers = (
{
hints = (
{
horizontal = 1;
place = (512, 64);
place = (512, 64);
type = Stem;
},
{
place = (64, 128);
place = (64, 128);
type = Stem;
},
{
place = (320, 128);
place = (320, 128);
type = Stem;
}
);
layerId = m01;
shapes = (
{
closed = 1;
nodes = (
(0,512,l),
(64,512,l),
(64,0,l),
(192,0,l),
(192,512,l),
(320,512,l),
(320,0,l),
(448,0,l),
(448,512,l),
(512,512,l),
(512,576,l),
(0,576,l)
);
}
);
width = 640;
}
);
note = product;
unicode = 8719;
},
{
glyphname = summation;
layers = (
{
hints = (
{
horizontal = 1;
place = (0, 64);
place = (0, 64);
type = Stem;
},
{
horizontal = 1;
place = (128, 64);
place = (128, 64);
type = Stem;
},
{
horizontal = 1;
place = (256, 64);
place = (256, 64);
type = Stem;
},
{
horizontal = 1;
place = (384, 64);
place = (384, 64);
type = Stem;
},
{
horizontal = 1;
place = (512, 64);
place = (512, 64);
type = Stem;
},
{
place = (192, 64);
place = (192, 64);
type = Stem;
},
{
place = (384, 64);
place = (384, 64);
type = Stem;
},
{
place = (128, 64);
place = (128, 64);
type = Stem;
},
{
horizontal = 1;
place = (320, 64);
place = (320, 64);
type = Stem;
},
{
horizontal = 1;
place = (192, 64);
place = (192, 64);
type = Stem;
},
{
place = (256, 64);
place = (256, 64);
type = Stem;
}
);
layerId = m01;
shapes = (
{
closed = 1;
nodes = (
(0,512,l),
(64,512,l),
(64,448,l),
(128,448,l),
(128,384,l),
(192,384,l),
(192,320,l),
(256,320,l),
(256,256,l),
(192,256,l),
(192,192,l),
(128,192,l),
(128,128,l),
(64,128,l),
(64,64,l),
(0,64,l),
(0,0,l),
(448,0,l),
(448,128,l),
(384,128,l),
(384,64,l),
(192,64,l),
(192,128,l),
(256,128,l),
(256,192,l),
(320,192,l),
(320,256,l),
(384,256,l),
(384,320,l),
(320,320,l),
(320,384,l),
(256,384,l),
(256,448,l),
(192,448,l),
(192,512,l),
(384,512,l),
(384,448,l),
(448,448,l),
(448,576,l),
(0,576,l)
);
}
);
width = 576;
}
);
note = summation;
unicode = 8721;
},
